<?xml version="1.0" standalone="no"?>
<!DOCTYPE svg PUBLIC "-//W3C//DTD SVG 1.1//EN" "http://www.w3.org/Graphics/SVG/1.1/DTD/svg11.dtd" >
<svg xmlns="http://www.w3.org/2000/svg" xmlns:xlink="http://www.w3.org/1999/xlink" version="1.1">
<metadata>
Created by FontForge 20161013 at Wed May  2 17:09:44 2001
 By ,,,
Typeface (c) The Monotype Corporation. Data (c) The Monotype Corporation
</metadata>
<defs>
<font id="CentaurMT" horiz-adv-x="1366" >
  <font-face 
    font-family="Centaur MT"
    font-weight="400"
    font-stretch="normal"
    units-per-em="2048"
    panose-1="2 3 5 2 6 4 0 1 1 2"
    ascent="1638"
    descent="-410"
    x-height="743"
    cap-height="1292"
    bbox="-373 -575 2234 1870"
    underline-thickness="102"
    underline-position="-307"
    unicode-range="U+0020-F002"
  />
<missing-glyph horiz-adv-x="1024" 
d="M51 0v1536h922v-1536h-922zM179 128h666v1280h-666v-1280z" />
    <glyph glyph-name=".notdef" horiz-adv-x="1024" 
d="M51 0v1536h922v-1536h-922zM179 128h666v1280h-666v-1280z" />
    <glyph glyph-name=".null" horiz-adv-x="0" 
 />
    <glyph glyph-name="nonmarkingreturn" horiz-adv-x="502" 
 />
    <glyph glyph-name="space" unicode=" " horiz-adv-x="502" 
 />
    <glyph glyph-name="exclam" unicode="!" horiz-adv-x="426" 
d="M358 1149q0 -10 -2 -19l-94 -571q-6 -34 -29 -203q-4 -4 -4 -22l-41 6q9 203 9 500q0 121 -4 161q-6 40 -27 52q-23 17 -23 24q0 14 21 17q18 6 99.5 37.5t82.5 31.5q12 0 12 -14zM332 86q0 -15 -17 -25q-44 -20 -79 -77q-14 -23 -29 -23q-17 0 -31 21q-18 33 -31.5 48
t-44.5 31q-14 10 -18 14t-4 15q0 14 26 31q44 23 76 82q11 16 27 16q17 0 26 -16t9 -23q-1 0 18.5 -25.5t46.5 -39.5q18 -8 21.5 -13t3.5 -16z" />
    <glyph glyph-name="quotedbl" unicode="&#x22;" horiz-adv-x="897" 
d="M748 1174q0 -37 -21 -150l-61 -328h-43l-54 295q-10 56 -16 94t-6 72q0 123 96 123q30 0 54 -14t37.5 -37.5t13.5 -54.5zM352 1174q0 -42 -20 -150l-62 -328h-43l-53 295q-10 56 -16 94t-6 72q0 123 96 123q30 0 53.5 -14t37 -37.5t13.5 -54.5z" />
    <glyph glyph-name="numbersign" unicode="#" 
d="M1313 391h-357l-90 -442h-94l92 442h-489l-88 -442h-97l93 442h-228v94h248l90 435h-338v94h359l94 444h92l-94 -444h487l92 444h95l-95 -444h228v-94h-246l-90 -435h336v-94zM975 920h-490l-90 -435h490z" />
    <glyph glyph-name="dollar" unicode="$" horiz-adv-x="1004" 
d="M891 352q0 -76 -40 -155t-125.5 -135t-207.5 -62l2 -133q0 -21 -12 -21q-37 0 -37 21v133q-89 7 -181 54.5t-208 205.5l108 156l31 -23q-10 -22 -10 -55q0 -24 21 -87.5t79.5 -127t159.5 -76.5l2 565q-39 22 -105 60.5t-114.5 81t-78.5 99.5t-30 126q0 68 39.5 135
t115.5 114t175 54l2 94h49v-94q205 0 330 -131q-71 -71 -92 -141l-37 4q0 97 -61 155.5t-140 65.5l-2 -481q136 -78 203 -125t115.5 -116.5t48.5 -160.5zM477 1237q-113 -7 -166 -62t-53 -131q0 -87 58.5 -145t158.5 -119zM799 291q0 82 -68 153.5t-209 141.5l-2 -545
q114 10 176 58.5t82.5 103t20.5 88.5z" />
    <glyph glyph-name="percent" unicode="%" horiz-adv-x="1665" 
d="M1579 313q0 -61 -20 -124t-61 -115.5t-99.5 -82.5t-130.5 -30q-79 0 -149.5 38.5t-112 112t-41.5 173.5q0 152 92.5 251t220.5 99q81 0 150 -41.5t110 -116t41 -164.5zM1462 274q0 75 -22.5 148.5t-67 121.5t-110.5 48q-62 0 -104 -39t-62.5 -99.5t-20.5 -131.5
q0 -61 15.5 -118.5t43 -102.5t66 -71t82.5 -26q63 0 121.5 58.5t58.5 211.5zM1309 1362q-148 -233 -273 -439t-229.5 -381t-207.5 -353.5t-136 -243.5q-52 -3 -84 -43l-35 14q52 74 155.5 236t207.5 331t182.5 302.5t109.5 189.5q41 74 72.5 130.5t73.5 131.5t43 76
q3 3 22 35q34 0 53 2.5t46 11.5zM715 1004q0 -85 -36.5 -166.5t-106.5 -134t-166 -52.5q-82 0 -151.5 38t-111 111.5t-41.5 174.5q0 100 42.5 179.5t116 124t155.5 44.5q79 0 147.5 -40t110 -113.5t41.5 -165.5zM598 963q0 122 -51 220.5t-148 98.5q-61 0 -103 -38.5
t-62.5 -100.5t-20.5 -131q0 -127 57.5 -223.5t147.5 -96.5q36 0 77 21.5t72 82.5t31 167z" />
    <glyph glyph-name="ampersand" unicode="&#x26;" horiz-adv-x="1300" 
d="M1262 209q-15 -54 -73.5 -135.5t-174.5 -81.5q-57 0 -102.5 34t-77 81t-56.5 96q-58 -84 -120.5 -131.5t-128.5 -66.5t-138 -19q-109 0 -180.5 51.5t-105 130.5t-33.5 158q0 147 83 233.5t181 138.5q-80 47 -116 112t-36 118q0 86 63 146t134 91t86 31q12 0 36 -12.5
t55 -32.5t44 -31q35 -27 55.5 -71.5t20.5 -92.5q0 -45 -10 -65t-64 -74q-13 -17 -37 -41.5t-45 -46.5q76 -38 119.5 -70.5t87 -94.5t98.5 -177q5 11 32 62t30 59q35 68 72.5 170.5t44.5 169.5q-13 19 -29 32.5t-59 32.5l14 33q53 -18 132.5 -31.5t137.5 -17.5l-4 -33
q-46 -2 -68.5 -15t-44.5 -51t-65 -134q-14 -32 -39 -87.5t-48.5 -108t-43.5 -89.5q-14 -26 -21 -38t-10 -19q27 -71 61 -130t72.5 -95t75.5 -36q68 0 133 119q23 38 27 43.5t14 5.5q7 0 14 -5.5t7 -14.5zM584 920q0 41 -28.5 85t-73 72.5t-91.5 28.5q-54 0 -99.5 -50
t-45.5 -89q0 -51 59.5 -112t161.5 -95q51 26 84 67.5t33 92.5zM752 256q0 1 -4 9t-5 9q-54 120 -94.5 187.5t-104 120t-159.5 86.5q-109 -74 -150.5 -129.5t-41.5 -139.5q0 -139 57.5 -210.5t121 -90t103.5 -18.5q164 0 277 176z" />
    <glyph glyph-name="quotesingle" unicode="'" horiz-adv-x="385" 
d="M293 1174q0 -50 -21 -150l-61 -328h-43l-53 295q-23 117 -23 166q0 123 96 123q29 0 53 -13.5t38 -37.5t14 -55z" />
    <glyph glyph-name="parenleft" unicode="(" horiz-adv-x="682" 
d="M631 -520l-31 -51q-135 86 -233.5 186.5t-166 222.5t-100 260.5t-32.5 298.5q0 179 42 336t116 277.5t169 210t209 155.5l25 -51q-114 -67 -226 -179t-194 -300t-82 -436q0 -183 44.5 -336t118.5 -264.5t158.5 -188t182.5 -141.5z" />
    <glyph glyph-name="parenright" unicode=")" horiz-adv-x="682" 
d="M614 408q0 -185 -42 -338t-115.5 -274.5t-168 -211t-210.5 -155.5l-25 51q114 67 226 179.5t194 300t82 435.5q0 190 -44.5 339.5t-116.5 259.5t-159.5 190.5t-183.5 140.5l31 51q268 -168 400 -408t132 -560z" />
    <glyph glyph-name="asterisk" unicode="*" horiz-adv-x="725" 
d="M692 793l-16 -33q-125 53 -232 59q-48 -98 -63 -229h-37q-17 134 -63 229q-113 -9 -230 -59l-18 33q108 79 164 168q-55 88 -164 169l18 33q122 -53 230 -59q46 95 63 229h37q9 -84 25 -132t38 -97q102 5 232 59l16 -33q-109 -83 -164 -169q54 -85 164 -168zM492 961
q0 52 -37 91.5t-93 39.5q-55 0 -92 -39.5t-37 -91.5t37 -91t92 -39q56 0 93 39t37 91z" />
    <glyph glyph-name="plus" unicode="+" 
d="M1257 522h-528v-522h-94v522h-524v94h524v529h94v-529h528v-94z" />
    <glyph glyph-name="comma" unicode="," horiz-adv-x="406" 
d="M324 129q0 -7 -13 -32.5t-14 -28.5l-4 -31q-24 -171 -211 -266l-21 32q61 39 96.5 72t35.5 84q0 61 -58 102q-26 22 -31.5 29t-5.5 27q70 37 95 123q14 0 22 2q25 -57 70 -80q25 -11 32 -16.5t7 -16.5z" />
    <glyph glyph-name="hyphen" unicode="-" horiz-adv-x="641" 
d="M567 330h-495v108h495v-108z" />
    <glyph glyph-name="period" unicode="." horiz-adv-x="406" 
d="M332 86q0 -15 -17 -25q-44 -20 -79 -77q-14 -23 -29 -23q-17 0 -31 21q-18 33 -31.5 48t-44.5 31q-14 10 -18 14t-4 15q0 14 26 31q44 23 76 82q11 16 27 16q17 0 26 -16t9 -23q-1 0 18.5 -25.5t46.5 -39.5q18 -8 21.5 -13t3.5 -16z" />
    <glyph glyph-name="slash" unicode="/" horiz-adv-x="1087" 
d="M1028 1520l-876 -1817h-93l875 1817h94z" />
    <glyph glyph-name="zero" unicode="0" horiz-adv-x="1004" 
d="M950 645q0 -186 -55.5 -337t-161 -237.5t-244.5 -86.5q-135 0 -234.5 89.5t-150.5 234t-51 304.5q0 164 40.5 292t106 211.5t148.5 126t166 42.5q131 0 230 -84.5t152.5 -232t53.5 -322.5zM801 553q0 50 -5 132.5t-24 188.5t-59 195q-18 39 -44.5 74.5t-72.5 63.5
t-102 28q-44 0 -91 -20t-93.5 -77t-76.5 -163t-30 -270q0 -67 8.5 -171t39.5 -219.5t96 -197.5t171 -82q144 0 213.5 152t69.5 366z" />
    <glyph glyph-name="one" unicode="1" horiz-adv-x="1004" 
d="M795 33l-2 -41q-78 6 -115 6q-29 2 -84 2q-223 0 -379 -10l-2 43q71 0 122.5 18.5t67.5 73.5q20 61 26.5 283.5t6.5 449.5q0 232 -10 272q-10 42 -61 52t-146 10l-2 39q143 3 238.5 11t154.5 18t135 26l11 -39l-70 -16q-60 -13 -77.5 -43.5t-24.5 -95.5
q-10 -100 -14.5 -197.5t-5.5 -185.5t-1 -222v-30q0 -117 6 -235.5t27 -143.5q15 -15 53 -25.5t146 -19.5z" />
    <glyph glyph-name="two" unicode="2" horiz-adv-x="1004" 
d="M965 297l-113 -207q-9 -16 -23 -42.5t-26.5 -51.5t-24.5 -47l-30 2q-11 30 -32.5 39.5t-64.5 9.5h-475q-61 0 -139 -10q-8 16 -12 22l145 150q113 117 188 201t150.5 185.5t123.5 200t48 175.5q0 114 -72.5 179.5t-179.5 65.5q-156 0 -260 -112l-37 30q50 55 95.5 94.5
t117 71t158.5 31.5q88 0 162 -37.5t116.5 -108t42.5 -161.5q0 -92 -38.5 -175t-105 -163.5t-202.5 -226.5l-166 -176q-3 -5 -17 -19.5t-28 -30.5l-55 -59l315 -2h65q104 0 157 12t92 52t88 128z" />
    <glyph glyph-name="three" unicode="3" horiz-adv-x="1004" 
d="M872 399q0 -96 -54.5 -192.5t-156.5 -158.5t-237 -62q-93 0 -187 41t-161 133q2 2 98 166l39 -23q-25 -39 -25 -57q0 -30 48 -80t119.5 -87.5t140.5 -37.5q67 0 128.5 37t97.5 100t36 137q0 80 -35.5 141t-85 101.5t-137.5 97.5l-64 -47l-26 37q112 88 176.5 164
t64.5 170q0 88 -63.5 149.5t-155.5 61.5q-105 0 -227 -94l-29 34q175 150 334 150q76 0 138.5 -28.5t97 -80.5t34.5 -122q0 -148 -159 -295q110 -70 180.5 -148.5t70.5 -206.5z" />
    <glyph glyph-name="four" unicode="4" horiz-adv-x="1004" 
d="M979 526l-68 -143q-64 6 -196 6q0 -135 2.5 -192t13 -91t32.5 -48.5t71 -24.5v-35q-37 2 -129 2q-191 0 -314 -12v47q52 0 104.5 12.5t63.5 38.5q6 12 11 62t7 104t3 72l2 69h-226q-38 0 -107 -3.5t-125.5 -6t-92.5 -4.5l-11 18q116 145 199.5 250.5t162.5 210.5
t153.5 214.5t140.5 223.5q21 4 49 15q-3 -51 -5.5 -235.5t-2.5 -280.5l-2 -316l110 2q36 0 63.5 10.5t61.5 47.5zM590 1059h-4q-43 -68 -94 -135q-101 -136 -120.5 -161.5t-49.5 -66.5l-170 -217q93 -1 215 -1q123 0 217 1l4 176q2 95 2 404z" />
    <glyph glyph-name="five" unicode="5" horiz-adv-x="1004" 
d="M907 1307l-104 -170q-12 0 -75 2t-73 2l-84 2q-11 0 -20 0.5t-23 0.5q-69 0 -105 -15.5t-63.5 -65.5t-60.5 -156q226 -49 357.5 -137t179 -181.5t47.5 -174.5q0 -107 -57 -207t-161 -161.5t-237 -61.5q-117 0 -194 39t-144 104q30 69 57 199l31 -9q-2 -8 -2 -32
q0 -71 57.5 -125t139 -81.5t143.5 -27.5q80 0 134 53.5t81 125.5t27 124q0 80 -42 153t-119.5 132.5t-177.5 94.5t-210 38q11 67 51 172l119 318h350q57 0 82.5 6.5t52.5 38.5h43z" />
    <glyph glyph-name="six" unicode="6" horiz-adv-x="1004" 
d="M924 408q0 -104 -50.5 -203t-141 -160t-200.5 -61q-80 0 -155 35t-134 102t-93.5 161t-34.5 203q0 115 31.5 233.5t109 233t211.5 210t326 153.5l14 -37q-158 -62 -265.5 -154t-169.5 -195t-88 -208t-26 -199q0 -159 49 -272t122.5 -168t141.5 -55q61 0 113.5 34
t83.5 100.5t31 155.5q0 100 -37.5 186t-101 138.5t-134.5 52.5q-75 0 -180 -80l2 45q104 73 147.5 93t108.5 20q83 0 157 -50.5t118.5 -135.5t44.5 -178z" />
    <glyph glyph-name="seven" unicode="7" horiz-adv-x="1004" 
d="M965 1264q-88 -142 -168 -295.5t-153.5 -316.5t-135 -315t-139.5 -360q-18 5 -31 5q-8 0 -33.5 -8.5l-25.5 -8.5q-6 -4 -17 -4q-20 0 -20 19q0 11 38.5 84t41.5 81q36 68 98.5 192.5t114.5 233.5t73 154l152 324q2 5 13 28t18.5 39.5t7.5 18.5q-31 4 -94 7.5t-127 5
t-113 1.5q-104 0 -167 -7t-128 -24l-51 -94l-41 2q79 173 98 227q18 49 21.5 55.5t11.5 6.5q10 0 14 -12q13 -24 29 -29.5t57 -5.5q17 0 98 2t93 2q54 0 105.5 -0.5t111.5 -1.5q103 0 157 6q28 3 78 10z" />
    <glyph glyph-name="eight" unicode="8" horiz-adv-x="1004" 
d="M913 336q0 -92 -52 -172.5t-146.5 -129t-218.5 -48.5q-110 0 -203.5 42.5t-147 116t-53.5 156.5q0 220 326 365q-138 77 -196 155t-58 172q0 78 39.5 146.5t115.5 109.5t177 41q102 0 178.5 -39.5t118 -103t41.5 -131.5q0 -76 -40.5 -135t-89 -94t-96.5 -60
q89 -48 150.5 -93t108 -119.5t46.5 -178.5zM707 983q0 62 -27 121.5t-81 100t-132 40.5q-61 0 -112.5 -25t-81 -68t-29.5 -95q0 -60 35 -108.5t87.5 -85t106.5 -64.5q56 -30 73.5 -39t22.5 -12q138 110 138 235zM784 283q0 220 -297 346q-22 11 -26 14q-92 -50 -160 -115.5
t-68 -173.5q0 -85 50 -158t124.5 -117t139.5 -44q67 0 120.5 31.5t85 88t31.5 128.5z" />
    <glyph glyph-name="nine" unicode="9" horiz-adv-x="1004" 
d="M889 786q0 -79 -18 -173t-69 -201t-143 -197q-54 -55 -121 -102t-122 -74t-113 -48.5t-92 -33.5l-16 37q204 80 328.5 212.5t173 273t48.5 270.5q0 125 -30.5 220.5t-77.5 154.5t-101.5 89.5t-103.5 30.5q-62 0 -115 -35t-83.5 -100.5t-30.5 -153.5q0 -99 37.5 -186.5
t101.5 -139.5t133 -52q47 0 97 26.5t83 52.5v-45q-70 -46 -110 -70t-72 -33t-74 -9q-83 0 -157 50.5t-118 134t-44 179.5q0 104 50.5 203t140.5 160t198 61q81 0 158 -35.5t135 -100.5t92.5 -159.5t34.5 -206.5z" />
    <glyph glyph-name="colon" unicode=":" horiz-adv-x="406" 
d="M330 668q0 -16 -17 -25q-44 -20 -80 -78q-13 -22 -28 -22q-17 0 -31 20q-18 32 -31.5 48t-44.5 32q-12 7 -17 12t-5 17q0 13 26 30q43 24 76 82q10 17 27 17t26 -16t9 -23q-1 0 18.5 -25t46.5 -41q19 -9 22 -13t3 -15zM332 86q0 -15 -17 -25q-44 -20 -79 -77
q-14 -23 -29 -23q-17 0 -31 21q-18 33 -31.5 48t-44.5 31q-14 10 -18 14t-4 15q0 14 26 31q44 23 76 82q11 16 27 16q17 0 26 -16t9 -23q-1 0 18.5 -25.5t46.5 -39.5q18 -8 21.5 -13t3.5 -16z" />
    <glyph glyph-name="semicolon" unicode=";" horiz-adv-x="426" 
d="M369 664q0 -16 -17 -25q-22 -10 -39 -25t-41 -53q-13 -22 -28 -22q-17 0 -31 20q-18 33 -34 49.5t-42 30.5q-12 7 -17 12t-5 17q0 13 26 30q43 24 76 82q11 17 27 17q17 0 26 -16t9 -23q-1 0 18.5 -25t46.5 -41q19 -9 22 -13t3 -15zM307 10q0 -93 -54.5 -159t-135.5 -117
l-25 33q47 33 82 73.5t35 93.5q0 50 -28 67t-72 24q-29 8 -29 26q0 9 14 23q37 23 69.5 54.5t49.5 78.5h25q0 -3 8.5 -21.5t11.5 -23.5q49 -89 49 -152z" />
    <glyph glyph-name="less" unicode="&#x3c;" 
d="M1255 45l-1142 485v84l1142 484v-103l-1019 -422l1019 -426v-102z" />
    <glyph glyph-name="equal" unicode="=" 
d="M1257 776h-1146v94h1146v-94zM1257 281h-1146v94h1146v-94z" />
    <glyph glyph-name="greater" unicode="&#x3e;" 
d="M1253 528l-1142 -483v102l1019 422l-1019 426v103l1142 -486v-84z" />
    <glyph glyph-name="question" unicode="?" horiz-adv-x="575" 
d="M508 797q0 -103 -41 -190.5t-123 -135.5q-44 -26 -55.5 -42.5t-18.5 -80.5q-2 -26 -4.5 -31.5t-15.5 -5.5q-21 0 -21 27l11 176q1 31 15.5 39.5t78.5 21.5q56 11 81 34t30.5 55t5.5 96q0 66 -25 110.5t-88 73t-166 39.5q-42 5 -64 12.5t-22 32.5q0 3 8 38.5t10 51.5
q1 4 1 24q0 25 -0.5 36.5t-0.5 23.5l29 2q16 -61 35.5 -75t71.5 -21q95 -12 181.5 -88t86.5 -223zM367 90q0 -15 -17 -24q-22 -10 -39 -25t-41 -53q-12 -23 -28 -23q-17 0 -31 21q-18 33 -34 49.5t-42 30.5q-12 7 -17 12t-5 16q0 14 26 31q44 23 76 82q11 16 27 16
q17 0 25.5 -15.5t8.5 -23.5q-2 0 18.5 -25.5t47.5 -39.5q18 -8 21.5 -13t3.5 -16z" />
    <glyph glyph-name="at" unicode="@" horiz-adv-x="2005" 
d="M1960 184q-51 -159 -147.5 -282.5t-224 -207t-269 -124.5t-285.5 -41q-192 0 -361.5 68t-299 198t-199.5 304t-70 376q0 222 79.5 414.5t219 332.5t323.5 218t388 78q189 0 334.5 -60.5t239.5 -163.5t141 -234t47 -274q0 -128 -38.5 -260t-113.5 -244t-187 -180.5
t-251 -68.5q-162 0 -162 147q0 50 19 152l-4 4q-71 -88 -128 -147t-133.5 -107.5t-154.5 -48.5q-62 0 -107 39t-66.5 97.5t-21.5 111.5q0 160 95.5 336t235.5 293.5t257 117.5q151 0 182 -145h5l32 116l168 23l-125 -426q-1 -5 -8.5 -32.5t-13.5 -51.5
q-45 -161 -60.5 -222.5t-15.5 -99.5q0 -24 19.5 -51.5t60.5 -27.5q76 0 155.5 53t148 151.5t108.5 224t40 265.5q0 141 -49.5 262t-140.5 209t-219 137t-283 49q-204 0 -375.5 -85t-291.5 -231t-184 -329.5t-64 -370.5q0 -190 62 -347t176.5 -272t266.5 -175t330 -60
q115 0 235 29.5t236.5 99t216.5 185.5t170 278h62zM1262 825q0 65 -35 109.5t-99 44.5q-96 0 -195.5 -122.5t-167 -286.5t-67.5 -257q0 -57 34.5 -104t88.5 -47q88 0 193 98.5t176.5 254t71.5 310.5z" />
    <glyph glyph-name="A" unicode="A" horiz-adv-x="1280" 
d="M1260 0q-61 6 -158 6q-44 0 -88.5 -1.5t-89.5 -4.5l-60 -4v33q46 8 73.5 21t27.5 44q0 25 -45 160l-74 201q-58 8 -189 8h-79q-141 0 -209 -12l-74 -185q-49 -122 -49 -145q0 -35 31.5 -58.5t128.5 -37.5v-33q-117 14 -199 14q-84 0 -182 -8v29q60 15 92 47
q22 19 61.5 98t83.5 182.5t57 134.5l160 383q30 70 56 132t45 110t37 99.5t30 97.5h33q31 -111 68 -213l210 -563q145 -388 195 -455q26 -37 107 -45v-35zM819 522q-35 102 -45 121l-72 184q-12 30 -45.5 109t-48.5 108q-51 -118 -61 -147l-113 -291q-23 -62 -31 -78
q76 -12 175 -12l92 2q83 0 149 4z" />
    <glyph glyph-name="B" unicode="B" horiz-adv-x="1044" 
d="M997 340q0 -220 -162 -283t-331 -63q-21 0 -131 4q-38 1 -69 1.5t-58 0.5q-60 0 -197 -8v37q40 4 64 10.5t42 23.5t23 46q10 43 15.5 179t7.5 276.5t2 217.5v99q0 100 -9 193.5t-26 121.5q-14 28 -42 40t-75 19v39q19 -1 94 -6q34 0 53.5 -0.5t41.5 -1.5q19 0 139 8
q128 9 135 9q98 0 178 -36.5t128 -107.5t48 -166q0 -101 -62 -174.5t-192 -107.5v-4q142 -26 228.5 -85t120.5 -130.5t34 -151.5zM715 971q0 90 -37.5 153t-100.5 96t-135 33q-69 0 -84 -16q-24 -20 -24 -399v-123q20 2 49 2q90 2 158 16t121 69t53 169zM842 328
q0 60 -23 123t-69 112.5t-121.5 81t-175.5 31.5q-64 0 -119 -8v-392q0 -102 3.5 -143t19 -62.5t45.5 -25.5t104 -4q81 0 156.5 25.5t127.5 89.5t52 172z" />
    <glyph glyph-name="C" unicode="C" horiz-adv-x="1280" 
d="M1223 281q0 -13 -19 -80l-43 -148q-108 -32 -196 -49.5t-191 -17.5q-124 0 -248 44t-223 130.5t-157 211t-58 283.5q0 218 107.5 368t274 221t343.5 71q139 0 268 -49q60 -19 90 -19q3 0 8.5 1.5t12 2.5t9.5 1.5t7 0.5q6 0 9 -3t4 -5l-6 -27t-9 -30q-21 -75 -37 -191
q-18 3 -24 12.5t-6 30.5q0 61 -17 86q-27 44 -135 90t-217 46q-144 0 -260.5 -71.5t-184 -209.5t-67.5 -324q0 -171 59.5 -294.5t149 -195.5t182 -104t160.5 -32q105 0 174 32t109 79.5t86 127.5q15 29 26 29q19 0 19 -18z" />
    <glyph glyph-name="D" unicode="D" horiz-adv-x="1473" 
d="M1395 655q0 -182 -93.5 -332t-267 -236.5t-395.5 -86.5q-21 0 -125 2t-121 2q-39 0 -89.5 -0.5t-98 -1.5t-87 -1.5t-77.5 -0.5v37q107 0 129 47q25 55 25 498q0 294 -7 438.5t-28 179.5q-24 35 -109 35l-2 37q268 0 451 22q80 9 141 9q149 0 285 -44.5t242 -128.5
t166.5 -204.5t60.5 -270.5zM1221 653q0 190 -90 326.5t-230 206t-287 69.5q-146 0 -260 -51q-10 -56 -15 -334t-5 -479q0 -16 1.5 -61t2.5 -93.5t1.5 -75t0.5 -59.5q101 -32 155 -44.5t136 -12.5q207 0 339.5 89.5t191.5 228.5t59 290z" />
    <glyph glyph-name="E" unicode="E" horiz-adv-x="1153" 
d="M1106 293q-16 -104 -35 -172.5t-49 -130.5q-33 3 -90 4.5t-160 1.5q-62 0 -133 2t-61 2q-65 0 -151.5 -1.5t-208.5 -5.5t-179 -7l2 34q31 7 63 15.5t43.5 18.5t16.5 24.5t10 52.5q5 40 10.5 129t9 199t3.5 167v21l-7 318q-3 148 -11.5 200t-32.5 69t-91 30l2 26h641
q108 0 326 8q-15 -210 -49 -260l-27 9q0 11 4 45t4 38q0 73 -87.5 93t-209.5 20q-147 0 -307 -20q-18 -166 -18 -279q0 -74 1 -170t1 -90q24 -2 147 -2q212 0 291 8q45 5 60.5 12t29.5 35.5t31 87.5h27v-376h-35q-3 92 -27.5 128t-94.5 46t-249 10q-115 0 -180 -10l-4 -142
q0 -21 -0.5 -38t-0.5 -38q0 -215 19 -325q18 -5 43 -11t47.5 -9.5t64.5 -7t105 -3.5q157 0 246.5 23t137 74t81.5 147h31z" />
    <glyph glyph-name="F" unicode="F" horiz-adv-x="1044" 
d="M983 1296q-7 -78 -7 -164q0 -57 1 -88h-41q-5 79 -25 116t-96 57t-246 20q-172 0 -227 -14q-8 -109 -8 -367v-158q120 -10 227 -10q139 0 198 10t72 34t13 83l39 4q4 -66 4 -121q0 -104 -4 -209h-41q0 101 -17 111q-22 16 -108.5 29.5t-202.5 13.5q-119 0 -178 -6
q-4 -188 -4 -338q0 -96 4.5 -136.5t24 -65.5t57.5 -35.5t129 -22.5v-39q-129 6 -217 6h-99q-80 0 -184 -8l2 33q65 11 88.5 31t30.5 57q22 119 22 547q0 57 -0.5 112.5t-2 149.5t-7.5 168t-16 100q-12 34 -44 45.5t-95 18.5v32h129q26 0 93 -4t89 -4q81 0 117.5 -0.5
t74.5 -1.5q280 0 455 14z" />
    <glyph glyph-name="G" unicode="G" horiz-adv-x="1386" 
d="M1360 598q-39 -13 -49.5 -19.5t-18.5 -27.5q-5 -13 -6.5 -35t-2.5 -66t-1 -165q0 -89 4 -127t12.5 -52.5t28.5 -31.5l-10 -23q-16 -1 -139 -26q-82 -15 -157 -24.5t-120 -12t-106 -2.5q-185 0 -322 57t-226 154.5t-130 212t-41 231.5q0 153 62.5 279.5t171 213t246 130
t282.5 43.5q55 0 105.5 -7t88.5 -15.5t49 -12.5q43 -19 56 -19q4 0 28.5 22.5t32.5 22.5q14 0 14 -38q0 -29 13.5 -124t13.5 -130q0 -15 -12 -15t-21 23q-27 58 -79 112t-138.5 89.5t-197.5 35.5q-166 0 -294 -83.5t-196 -220t-68 -281.5q0 -103 38.5 -211.5t117 -205
t191 -153.5t247.5 -57q114 0 193.5 32t103.5 62q11 14 14 44t3 155q0 122 -9.5 170t-45.5 64t-128 16q-39 0 -63 -4l4 43q138 1 256.5 3.5t204.5 10.5v-37z" />
    <glyph glyph-name="H" unicode="H" horiz-adv-x="1579" 
d="M1524 18l-2 -28q-72 12 -201 12q-10 0 -82 -4.5t-143 -7.5l-4 37q56 7 83 19t40.5 39.5t17.5 76.5t4 135q0 27 2.5 106t2.5 149q0 44 -1 64q-252 9 -628 9q-189 0 -271 -2q-6 -117 -6 -347q0 -136 12 -180q6 -20 18 -32.5t40.5 -23t89.5 -22.5l-2 -32q-19 1 -39.5 2
t-43.5 2.5t-49 3.5q-32 2 -54 3t-36.5 2t-40.5 1q-63 0 -186 -10l-14 37q106 12 129 43q9 11 16.5 82.5t10.5 139.5t6.5 190.5t3.5 150.5l2 325v33q0 115 -10.5 170t-39 73t-94.5 21l2 33q62 4 101 4q28 0 45 -0.5t45 -1.5t61.5 -2.5t59.5 -1.5l145 2l2 -35l-53 -8
q-50 -9 -67.5 -18.5t-27 -42t-18.5 -121.5q-10 -117 -10 -211q0 -102 2 -160h473q271 0 335 1t93 7l2 209v58q0 175 -18 225q-13 32 -37.5 43.5t-104.5 28.5l5 32q18 -2 35 -3t57 -5q39 -4 131 -4q18 0 104 4q90 4 101 4l4 -28q-48 -8 -73 -25t-36.5 -52.5t-15.5 -100
t-6 -197.5l-9 -510q-1 -34 -1 -92q0 -88 6.5 -141t22 -78.5t38.5 -34t76 -15.5z" />
    <glyph glyph-name="I" unicode="I" horiz-adv-x="641" 
d="M596 1247q-88 0 -120 -9.5t-48 -37.5q-33 -63 -33 -481v-178q0 -186 4 -348q2 -70 11 -99t49 -43.5t129 -15.5l-4 -39q-14 0 -55.5 1.5t-86 2.5t-68.5 1.5t-55 0.5q-43 0 -71 -0.5t-73.5 -1.5t-86 -2.5t-57.5 -1.5l-2 37q108 6 146 25t52 61q20 54 25.5 204.5t5.5 317.5
q0 153 -10 430q-2 77 -14.5 111.5t-56 51t-136.5 17.5v41q65 0 141 -6q102 -4 137 -4q61 0 146 6q114 4 131 4v-45z" />
    <glyph glyph-name="J" unicode="J" horiz-adv-x="641" 
d="M596 1253q-92 -6 -128.5 -23t-48 -68.5t-13.5 -168.5q0 -32 -0.5 -58t-2 -82t-2 -89t-0.5 -64v-153q0 -39 2.5 -246.5t2.5 -312.5q0 -74 -5 -133q-87 -124 -182 -222t-190 -98q-22 0 -44 15t-22 28q0 18 50.5 48t70.5 30q6 0 30.5 -9t26.5 -9q125 0 125 540v397
q0 250 -5.5 391.5t-18 189t-39.5 67.5q-43 31 -144 31q-9 0 -13.5 -0.5t-10.5 -0.5l-6 39q22 0 149 -6t150 -6q68 0 266 12z" />
    <glyph glyph-name="K" unicode="K" horiz-adv-x="1280" 
d="M1272 -12q-10 1 -24.5 3.5t-37.5 4.5q-48 4 -94 4q-84 0 -219 -12l-2 28q8 3 16 5t27 6q41 7 41 22q0 31 -223 207l-185 150q-11 10 -29 24t-59 46.5t-91.5 69t-59.5 42.5q0 -25 -0.5 -49.5t-0.5 -56.5q0 -133 3.5 -248t13.5 -146q13 -32 70.5 -53t83.5 -21v-30
q-36 6 -131 10q-52 2 -158 2q-88 0 -166 -4v35q60 5 87 19.5t36 55.5q9 36 16 145.5t10 241.5t3 156q0 79 -0.5 100t-2 100t-3.5 159q-2 96 -6.5 138.5t-17 66t-37 33t-75.5 15.5l-2 35q164 -8 238 -8q73 0 119.5 4.5t87.5 9.5v-32q-117 -14 -140 -56q-9 -19 -16 -107.5
t-10.5 -192t-3.5 -152.5v-119q35 31 123 119l245 241q105 105 133 142q23 26 23 59q0 46 -98 51l-2 37l166 -2q35 0 106 3t107 7l2 -39q-67 -7 -158 -75q-63 -46 -299 -267l-139 -135q-59 -56 -97 -96l371 -309q77 -65 176.5 -148.5t160.5 -129.5t120 -77z" />
    <glyph glyph-name="L" unicode="L" horiz-adv-x="1153" 
d="M1118 260q-6 -41 -27 -123t-49 -149q-86 10 -137 10q-31 1 -57.5 1.5t-61.5 0.5h-702l-2 31q59 12 86 26t40.5 48.5t17 103.5t3.5 199l2 440v109q0 145 -8.5 201t-35.5 73.5t-91 19.5v35q126 -1 165 -2t65 -2q168 0 221 4l-2 -39q-69 -6 -103 -16.5t-49 -44.5
q-9 -22 -13 -110t-7 -226q-4 -155 -6 -281t-2 -250q0 -113 6 -167t20 -68q17 -13 56.5 -19t168.5 -6q100 0 178 11.5t127 28t76 32.5q64 39 88 133z" />
    <glyph glyph-name="M" unicode="M" horiz-adv-x="1792" 
d="M1757 4h-172h-133q-110 0 -190 -10l-2 37q84 20 120 43.5t52 83t16 178.5q0 76 -2 123l-8 270q-6 174 -23 320h-4q-30 -58 -92.5 -174t-115 -215t-101.5 -193t-80 -160q-97 -209 -125 -303h-31q-25 79 -60 173t-99 216q-129 246 -340 662h-5q-17 -170 -33 -397t-16 -480
q0 -78 32.5 -109t152.5 -44l-2 -33q-18 2 -78 6q-29 2 -64 2l-121 -2q-21 0 -38.5 -0.5t-50.5 -1.5t-65 -2.5t-46 -1.5l2 28q97 18 136.5 50.5t51.5 93.5t23 219l30 522q5 72 5 96q0 149 -55 197t-183 55l4 39q101 -7 143 -8q87 -6 146 -6h88q40 -106 60.5 -153t59.5 -124.5
t154 -293.5t226 -424q45 75 147 272q7 13 69 129t125.5 235t115 217.5t73.5 147.5h291l-2 -37q-86 -10 -121 -26t-48.5 -62t-13.5 -155q0 -59 1 -95l6 -278q1 -24 1.5 -47.5t2 -58t3.5 -89t5 -135.5q5 -94 11.5 -141t25.5 -73.5t49 -35t92 -10.5v-37z" />
    <glyph glyph-name="N" unicode="N" horiz-adv-x="1579" 
d="M1542 1260q-60 -9 -86 -28t-37 -63q-18 -82 -25.5 -321t-7.5 -455q0 -85 1.5 -163t3.5 -140t6 -115l-41 2q-69 149 -416 472l-375 350q-19 14 -92.5 83t-128.5 120.5t-57 52.5l-13 -613q-1 -40 -1 -109q0 -133 17 -188t57 -73.5t159 -42.5q0 -21 -4 -37q-16 0 -96 4
q-82 4 -99 4q-16 0 -110 -4q-32 -2 -53.5 -3.5t-40 -3t-19.5 -1.5q-14 0 -20.5 5.5t-6.5 18.5q0 12 5.5 17t21.5 6q44 5 63.5 16t31.5 42t17.5 98.5t6.5 173.5l6 477q1 35 1 98q0 161 -33.5 232.5t-143.5 82.5v41q94 -8 174 -8l86 2q60 -76 141 -161t181.5 -182.5
t113.5 -110.5l590 -560q8 125 8 379v193q0 154 -7.5 232t-28.5 115t-55 49.5t-114 25.5l11 28q14 2 49 2q17 0 33 -1t43 -2t59 -3q49 -2 96 -2h127z" />
    <glyph glyph-name="O" unicode="O" horiz-adv-x="1516" 
d="M1436 649q0 -179 -89 -334.5t-247.5 -247.5t-358.5 -92q-153 0 -276 60t-209.5 162t-129 218.5t-42.5 229.5q0 182 96.5 336t256.5 244t339 90q122 0 241 -48t213 -134.5t150 -211.5t56 -272zM1284 569q0 138 -44.5 262t-124 217.5t-183.5 145t-219 51.5
q-126 0 -236 -62.5t-177 -182.5t-67 -279q0 -175 82 -331t220 -249.5t292 -93.5q114 0 218.5 56.5t171.5 174.5t67 291z" />
    <glyph glyph-name="P" unicode="P" horiz-adv-x="1087" 
d="M1026 883q0 -108 -66 -203t-195 -154t-304 -59q-67 0 -129 10l4 -309q2 -61 14 -87t50 -36.5t126 -15.5l-2 -45q-38 7 -102 10q-78 4 -107 4q-37 0 -80 -3t-66.5 -5t-39.5 -4q-23 -2 -74 -2v34q75 22 98 33t29 35q9 36 12 146.5t3 316.5q0 63 -0.5 137t-1.5 114.5
t-5 125.5q-2 58 -7 144.5t-9.5 110t-13.5 38.5q-14 21 -41 28.5t-82 12.5v36q62 0 102 -0.5t86 -1.5q31 0 109 4l63 5q23 2 64 2q141 0 248 -39t177 -101.5t105 -136.5t35 -145zM862 872q0 99 -42.5 186.5t-130.5 142t-210 54.5q-63 0 -137 -18q0 -9 -2.5 -104.5t-4 -155.5
t-3.5 -134t-2 -85l2 -213q87 -23 162 -23q83 0 167.5 32.5t142.5 111t58 206.5z" />
    <glyph glyph-name="Q" unicode="Q" horiz-adv-x="1516" 
d="M1640 -227q-60 -29 -131 -39t-118 -10q-318 0 -615 251q-101 2 -158 11.5t-137 42.5q-131 57 -219.5 159t-133 223.5t-44.5 237.5q0 173 94 328t253.5 246.5t344.5 91.5q120 0 239.5 -47.5t213.5 -134t150.5 -211t56.5 -273.5q0 -140 -55.5 -266.5t-157.5 -224.5
q-49 -48 -98 -76t-132 -64q331 -231 551 -231q32 0 84 10zM1284 569q0 141 -45 264.5t-124 215.5t-183 144t-219 52q-126 0 -236 -62.5t-177 -182.5t-67 -279q0 -133 47 -254t131 -217t192 -149.5t224 -53.5q113 0 217.5 57t172 174.5t67.5 290.5z" />
    <glyph glyph-name="R" unicode="R" 
d="M1350 -43q0 -9 -9 -13.5t-43 -4.5q-97 0 -187 42.5t-170.5 115t-144 152t-149.5 200.5l-115 163q-132 0 -219 13l-2 -240q0 -76 4.5 -170t20.5 -133q12 -26 28 -34.5t87 -29.5q22 -7 22 -14q0 -20 -14 -20q-2 0 -84 8q-86 8 -105 8q-31 0 -41.5 -0.5t-39 -2t-54.5 -3.5
q-61 -6 -82 -6q-20 0 -20 14q0 10 7.5 15t33.5 12q45 12 65.5 36.5t29.5 98.5t9 227v443q0 173 -3 243t-16 105.5t-39.5 47.5t-84.5 19q4 32 4 33q53 -2 135 -2q24 0 174.5 12.5t190.5 12.5q105 0 189 -29t140.5 -77t85.5 -109.5t29 -126.5q0 -67 -30 -130t-91 -114.5
t-157 -87.5l45 -68q94 -142 156 -229.5t133.5 -168.5t146 -131.5t145.5 -56.5q19 -3 19 -20zM831 938q0 68 -35.5 142.5t-109.5 128t-180 53.5q-43 0 -98 -11.5t-66 -36.5q-23 -56 -23 -532q67 -16 162 -16q48 0 101.5 7t110 31t97.5 81t41 153z" />
    <glyph glyph-name="S" unicode="S" horiz-adv-x="961" 
d="M918 324q0 -96 -50 -173t-150 -122t-245 -45q-141 0 -293 41q-27 6 -33 6q-12 0 -16 -8t-4 -27l-41 2q0 147 -55 334q24 7 32 8q24 -75 37.5 -108.5t35 -59t59.5 -45.5q65 -34 150 -61t183 -27q85 0 170.5 42t85.5 185q0 72 -25 124t-65.5 84t-94 57t-138.5 57
q-118 43 -194.5 88t-121.5 111t-45 161q0 151 111 251.5t317 100.5q105 0 207 -22q41 -8 51 -8q28 0 68 24q8 0 20 -4q-14 -109 -14 -157q1 -14 3 -40t4.5 -57t2.5 -35l-30 -2q-8 102 -67 160.5t-133 79.5t-142 21q-166 0 -219.5 -86.5t-53.5 -163.5q0 -81 40 -134.5
t99.5 -84t167.5 -72.5q122 -48 196 -88.5t132 -117t58 -189.5z" />
    <glyph glyph-name="T" unicode="T" 
d="M1337 1284q-35 -95 -55 -205l-43 -6q5 33 8 90q-28 24 -93.5 39t-223.5 15q-107 0 -130 -5.5t-24 -33.5q-3 -72 -7 -181.5t-5 -128.5q0 -30 -1 -99.5t-1.5 -156.5t-1 -131t-0.5 -90q0 -150 3 -210.5t17 -92.5t42.5 -42t97.5 -19q45 -4 45 -13q0 -20 -2 -24q-15 -2 -39 -2
q-36 0 -107 6q-30 2 -49.5 3t-31.5 2t-27 1q-97 0 -213 -18q-64 -11 -70 -11q-15 0 -21.5 7t-13.5 26q13 4 62 16q70 16 100.5 29t38.5 32t8 60q0 49 8 113q0 9 1.5 53t2.5 106.5t1.5 113t0.5 151.5q0 214 -1.5 306t-6.5 142.5t-16 79.5q-86 8 -189 8q-108 0 -167.5 -7
t-92 -23t-46 -36t-36.5 -71l-34 8q44 118 84 238q22 -20 35 -27.5t44 -11.5q64 -8 291 -8h506q19 0 122 2t118 2q42 0 56 5.5t30 23.5q9 -14 26 -25z" />
    <glyph glyph-name="U" unicode="U" horiz-adv-x="1473" 
d="M1440 1243q-69 -3 -94.5 -15t-31 -43t-7.5 -132q-3 -189 -9 -335.5t-15 -241t-25.5 -168.5t-40.5 -120q-46 -85 -143 -132t-196 -61.5t-180 -14.5q-135 0 -249 40.5t-186.5 134.5t-72.5 242q0 36 2.5 197t2.5 240q0 277 -27 368q-7 23 -23.5 28.5t-101.5 14.5l4 37
q47 -2 143 -2q170 0 334 8l11 -33q-93 -11 -125.5 -27t-47.5 -44q-30 -56 -30 -469q0 -142 4 -250t16 -168q33 -151 161 -200.5t239 -49.5q63 0 151 18t167 65t106 128q55 160 55 629q0 140 -8.5 210.5t-27.5 102t-48 38.5t-92 7l-4 35q45 6 100 6q215 0 289 -2v-41z" />
    <glyph glyph-name="V" unicode="V" horiz-adv-x="1473" 
d="M1466 1262q-66 -22 -99.5 -48t-69 -88t-109.5 -211l-225 -448q-64 -124 -126.5 -272t-72.5 -220l-31 -4q-18 51 -51 125l-68 150q-63 147 -84 190l-168 355q-186 387 -223 428q-23 26 -49 34.5t-70 10.5l5 34h81q38 0 55.5 -0.5t38 -1.5t39.5 -2.5t31 -1.5q27 1 49.5 1.5
t61.5 0.5l88 -2l2 -32q-88 -6 -108.5 -12t-20.5 -25q0 -27 41.5 -131t102 -239.5t87.5 -195.5l140 -301l28 -57q2 -3 15 -30.5t26 -55.5q34 60 81 155.5t88.5 184.5t45.5 98l131 287q29 63 57.5 137.5t28.5 106.5q0 66 -110 75l6 41q10 0 19 -1t25 -2t44 -3q86 -4 148 -4
q32 1 57 1.5t63 0.5v-28z" />
    <glyph glyph-name="W" unicode="W" horiz-adv-x="2005" 
d="M1985 1286l-3 -35q-62 -6 -102.5 -33t-75.5 -91t-80 -187l-198 -551q0 -3 -25 -69t-35 -89q-20 -50 -33 -88t-30 -88t-39 -116l-31 2q-28 84 -56 172t-49 151.5t-32 91.5l-168 461q-14 -30 -36 -78t-34 -71l-106 -240q-40 -89 -67.5 -164t-58 -166t-52.5 -159h-27
l-117 337q-25 77 -63.5 190.5t-90 259.5t-95 258t-68.5 157q-36 68 -79.5 86t-102.5 18l-2 41l94 -4q134 -4 170 -4q23 0 83 2t91 2h72l4 -39q-59 -4 -111.5 -24t-52.5 -56q0 -38 76.5 -256.5t164 -446t93.5 -237.5l41 107q6 12 32.5 76t40.5 98l174 389
q-76 176 -98.5 226.5t-34.5 64.5q-37 51 -112 55l-4 41q68 -4 139 -4q182 0 328 10l2 -35q-101 -12 -127.5 -32.5t-26.5 -53.5q0 -34 63.5 -224t151 -424t115.5 -298q74 183 146.5 383t114.5 339t42 181q0 81 -56 102.5t-137 24.5l-8 33h107h133q101 0 166 2z" />
    <glyph glyph-name="X" unicode="X" horiz-adv-x="1386" 
d="M1374 -8q-11 1 -38 2.5t-46.5 2t-42.5 1.5q-31 1 -56 1.5t-52 0.5q-85 0 -236 -8l-6 37q62 11 93.5 23.5t31.5 35.5q0 25 -20 65.5t-41 69.5q-134 185 -177 240l-108 137q-59 -66 -262 -342q-40 -56 -59 -90.5t-19 -58.5q0 -40 39 -57t102 -25v-35q-53 0 -131 4
q-82 4 -102 4q-27 0 -109 -4t-125 -4l2 31q78 12 139 51.5t119 105t183 223.5l118 152q5 4 24.5 29.5t30.5 41.5t15 21l-94 117q-147 184 -229 281.5t-127.5 142.5t-75 58t-78.5 18l2 34q105 -10 254 -10q127 0 199 6l6 -39q-105 0 -105 -36q0 -48 156 -242l180 -227
q160 212 217.5 299.5t57.5 136.5q0 44 -35.5 59t-98.5 17l4 34q26 0 52.5 -0.5t58.5 -1.5q94 -4 111 -4h207v-33q-83 0 -154 -64t-186 -216l-201 -268l336 -447q81 -109 119 -152.5t65.5 -57t87.5 -23.5z" />
    <glyph glyph-name="Y" unicode="Y" 
d="M1339 1280l-2 -41q-66 -3 -107 -22.5t-94 -83.5t-145 -203q-91 -143 -215 -330l4 -364q2 -98 5 -128t16.5 -44.5t50.5 -22.5q34 -7 106 -27l-2 -26q-41 2 -124.5 9t-120.5 7q-25 0 -69.5 -5t-51.5 -5q-48 -2 -79 -4t-44 -2v28q101 4 139 41q22 22 27.5 78.5t5.5 331.5
q0 100 -2 123l-82 121q-50 74 -116 161t-89 113q-107 135 -153 184.5t-79 64t-100 17.5l-6 33h99q9 0 72 -2t75 -2q28 0 91 2t97 2h48l-5 -39q-70 -6 -95 -12t-25 -27q0 -22 74.5 -129t172 -235t138.5 -176q30 41 90 129l76 114q40 58 89.5 146.5t49.5 124.5q0 66 -111 66
q-9 0 -13.5 -0.5t-10.5 -0.5l4 39l84 -4q10 0 66 -2t65 -2q15 0 98 2t98 2z" />
    <glyph glyph-name="Z" unicode="Z" horiz-adv-x="1260" 
d="M1257 254q-17 -41 -60 -148t-58 -141h-19q0 11 -7.5 17t-31.5 10q-45 8 -241 8h-516q-158 0 -316 -12l2 24q130 134 262.5 285t238 283.5t235 307.5t233.5 329q-73 4 -170.5 6t-212.5 2q-220 0 -317.5 -12.5t-146 -50.5t-89.5 -126l-29 15q13 39 22.5 76.5t14 57
t6.5 27.5q7 31 21 97q3 12 6 18t10 6t15 -10q19 -32 71 -37q31 -5 65.5 -6.5t78 -2.5t145.5 -1q375 0 745 10v-18q-85 -113 -132 -172.5t-137 -171t-95 -117.5l-223 -283q-52 -66 -107.5 -135.5t-102.5 -130t-88 -110.5t-69 -82q95 -19 264 -19q242 0 349.5 14t201.5 52
q65 26 96 58.5t56 100.5z" />
    <glyph glyph-name="bracketleft" unicode="[" horiz-adv-x="641" 
d="M578 -553h-426v1911h426v-58h-369v-1792h369v-61z" />
    <glyph glyph-name="backslash" unicode="\" horiz-adv-x="1087" 
d="M1028 -297h-92l-877 1817h95z" />
    <glyph glyph-name="bracketright" unicode="]" horiz-adv-x="641" 
d="M487 -553h-426v57h369v1792h-369v62h426v-1911z" />
    <glyph glyph-name="asciicircum" unicode="^" horiz-adv-x="1024" 
d="M985 549h-98l-373 625l-375 -625h-100l461 764h30z" />
    <glyph glyph-name="underscore" unicode="_" horiz-adv-x="1024" 
d="M1024 -256h-1024v102h1024v-102z" />
    <glyph glyph-name="grave" unicode="`" horiz-adv-x="682" 
d="M526 889h-47l-289 356h140z" />
    <glyph glyph-name="a" unicode="a" horiz-adv-x="768" 
d="M768 53l-147 -59q-33 -14 -50 -14q-24 0 -46 29.5t-36 72.5q-184 -102 -284 -102q-123 0 -123 141q0 68 16.5 101t53.5 52q75 38 159 56.5t176 31.5l5 123q1 13 1 35q0 50 -9 75.5t-31 47.5q-59 59 -123 59q-31 0 -62.5 -17.5t-31.5 -49.5q0 -16 10 -43l-123 -55
q-8 32 -8 47q0 51 62.5 94.5t141 70.5t109.5 27q27 0 65.5 -23t65.5 -48q19 -19 31.5 -39.5t21.5 -62.5t9 -107q0 -19 -5 -134l-4 -75q-1 -32 -2 -51t-2 -35q0 -41 10.5 -88t45.5 -47q41 0 104 28v-41zM489 307q-14 1 -41 1q-113 0 -182 -40t-69 -96q0 -45 24.5 -85
t67.5 -40q48 0 194 72q-1 9 -1 33q0 57 7 155z" />
    <glyph glyph-name="b" unicode="b" horiz-adv-x="961" 
d="M887 420q0 -132 -76 -229t-185.5 -146t-207.5 -49q-51 0 -137 27q-52 14 -70 14q-19 0 -34 -6.5t-34 -20.5q-12 -8 -16 -8q-2 0 -7 3t-5 5q0 3 4.5 19.5t9.5 36.5q25 140 25 669q0 174 -4 324q-2 105 -19 137.5t-78 32.5h-30v12q3 2 106 55t150 82l18 -8
q-8 -106 -12 -131q-10 -219 -11 -272l-6 -285q94 48 156 68t123 20q86 0 165 -44.5t127 -124.5t48 -181zM760 348q0 59 -17.5 120.5t-52.5 114.5t-89 87.5t-124 34.5q-92 0 -205 -68q0 -13 -0.5 -29t-1.5 -55.5t-2.5 -87.5t-1.5 -80v-147q0 -49 3.5 -67t21.5 -34
q103 -76 211 -76q74 0 132.5 36.5t92 102t33.5 148.5z" />
    <glyph glyph-name="c" unicode="c" horiz-adv-x="768" 
d="M735 698q0 -10 -28 -52t-45 -42q-8 0 -22.5 8t-31.5 17.5t-18 9.5q-109 45 -180 45q-203 0 -203 -264q0 -121 53 -204t127.5 -121t136.5 -38q52 0 96.5 18t96.5 48l14 -29q-133 -110 -274 -110q-81 0 -167.5 33.5t-135.5 86.5q-31 37 -48.5 103.5t-17.5 128.5
q0 125 67 227.5t164.5 159.5t182.5 57q51 0 142 -28.5t91 -53.5z" />
    <glyph glyph-name="d" unicode="d" horiz-adv-x="981" 
d="M977 27q-235 -82 -254 -82q-31 0 -31 161q-122 -62 -180.5 -84t-126.5 -22q-72 0 -144 39t-117.5 113.5t-45.5 171.5q0 133 59.5 222.5t137 135t148 65t91.5 19.5q61 0 193 -33q6 111 6 258q0 102 -4.5 149.5t-17 66t-36.5 18.5q-37 0 -75 -11l-2 31q184 76 264 133
l24 -10q-21 -136 -30 -346.5t-9 -300.5q0 -66 -4 -201t-4 -203q0 -286 37 -286q21 0 121 32v-36zM698 598q0 23 -34.5 41.5t-76 28.5t-91.5 17t-58 7q-64 0 -121.5 -33.5t-92 -91.5t-34.5 -129q0 -110 40 -190t108.5 -122t150.5 -42q58 0 105.5 20.5t97.5 51.5z" />
    <glyph glyph-name="e" unicode="e" horiz-adv-x="748" 
d="M707 520l-500 -108q5 -94 18.5 -145.5t53.5 -104.5q77 -101 186 -101q45 0 96 17t113 61l18 -24q-174 -125 -309 -125q-143 0 -223 108t-80 248q0 143 61 237.5t137 137.5t115 43q45 0 93.5 -14.5t95 -55.5t77.5 -112q9 -15 17 -20t29 -5zM551 543q0 16 -24 54.5
t-68.5 70.5t-104.5 32q-75 0 -106.5 -79t-38.5 -170l131 28q1 1 53 13l78 18q49 10 64.5 16t15.5 17z" />
    <glyph glyph-name="f" unicode="f" horiz-adv-x="618" 
d="M838 1307q0 -16 -22 -48t-42 -32q-3 0 -41 14t-39 14q-84 31 -133 31q-79 0 -127 -46t-73 -163t-29 -325h272v-64h-272l-4 -287q0 -34 -0.5 -54t-0.5 -44q0 -230 21 -250q9 -7 30 -9t122 -5v-39q-73 0 -127 0.5t-108 1.5t-108 1.5t-94 0.5v33q53 3 79.5 13.5t39 37t16 76
t3.5 139.5l2 334q0 36 -8 41q-19 12 -125 12v62h133q1 174 30 276t84 166q44 51 110 93.5t131 65.5t108 23q58 0 115 -20.5t57 -48.5z" />
    <glyph glyph-name="g" unicode="g" horiz-adv-x="854" 
d="M836 731q-3 -54 -27 -108q-68 28 -143 28q13 -18 26 -48.5t21 -65.5t8 -68q0 -134 -75.5 -204t-221.5 -138q-83 -38 -129.5 -65t-46.5 -48q0 -61 147 -61q122 0 190 -4t120 -21t81 -57.5t29 -112.5q0 -97 -75.5 -171.5t-193 -115t-235.5 -40.5q-152 0 -211 66.5
t-59 140.5q0 84 51.5 135t130.5 98q-104 57 -104 154q47 36 157 77l66 25v4q-57 14 -115.5 42t-105.5 90.5t-47 168.5q0 96 51.5 176.5t134 126t168.5 45.5q105 0 184 -59q72 14 152 14q53 0 72 -4zM602 418q0 59 -17 113.5t-47 96.5t-73.5 67.5t-97.5 25.5
q-82 0 -137.5 -62.5t-55.5 -158.5q0 -135 81 -203t194 -113q72 38 112.5 84t40.5 150zM739 -293q0 44 -31.5 83t-95.5 46q-9 1 -59 1q-58 0 -87 -0.5t-60 -0.5q-89 0 -127 12q-62 -19 -112 -63.5t-50 -101.5q0 -66 77 -119t199 -53q69 0 150 20.5t138.5 65.5t57.5 110z" />
    <glyph glyph-name="h" unicode="h" horiz-adv-x="961" 
d="M950 31l-2 -31h-198q-26 0 -42 -1t-35 -3t-37 -3.5t-36 -2.5l-2 22l9 3t16 5q34 14 48.5 34.5t20.5 79.5t6 175q0 198 -32 282.5t-146 84.5q-59 0 -130 -22t-105 -40q0 -17 -1.5 -33.5t-2.5 -60.5l-9 -241q0 -23 -0.5 -42t-1.5 -42q0 -97 13 -125q5 -17 24 -23.5
t101 -13.5v-35q-33 4 -140 4q-111 0 -239 -10l2 33q65 14 86 26t28 49t9 129q8 244 8 269l4 280q1 42 1.5 79.5t0.5 111.5q0 135 -11.5 199.5t-56.5 64.5q-7 0 -63 -16v38q-1 0 10.5 5.5t18.5 9.5l194 94l33 18l33 -16q-17 -83 -25 -197.5t-14 -308.5l-6 -203
q118 51 191.5 75t141.5 24q96 0 140 -58.5t54.5 -143t10.5 -222.5q0 -26 -0.5 -47.5t-1.5 -61t-2.5 -75.5t-1.5 -50q0 -31 8.5 -43.5t31.5 -16t97 -7.5z" />
    <glyph glyph-name="i" unicode="i" horiz-adv-x="492" 
d="M371 1192q0 -32 -21.5 -55t-54.5 -23q-32 0 -55 23t-23 55q0 34 23 56t55 22t54 -23t22 -55zM469 6l-403 -10l4 31q85 8 96 30q8 18 13 130t5 186q0 142 -4.5 182t-17.5 55q-4 5 -50 10t-46 13q0 16 18 20q119 37 233 131q7 0 19 -4q-10 -41 -17 -120t-11.5 -166
t-4.5 -154q0 -212 16 -268q8 -19 21 -24.5t47 -6.5q61 -5 70 -6z" />
    <glyph glyph-name="j" unicode="j" horiz-adv-x="469" 
d="M356 1194q0 -31 -27.5 -57.5t-62.5 -26.5q-32 0 -52.5 19.5t-20.5 50.5q0 40 26 64t60 24q20 0 38.5 -9.5t28.5 -27.5t10 -37zM338 807q-25 -78 -25 -238v-313l4 -344v-47q0 -75 -11 -119.5t-51 -92t-118 -110.5q-42 -34 -53.5 -55t-17.5 -61h-2t-3 -2l-30 28
q1 47 20 83.5t55 84.5q45 60 64 111t23 119t4 225q0 151 -4 289t-15 190q-9 40 -23.5 61t-48.5 21q-10 0 -53 -10l-14 30q168 67 283 164q10 -10 16 -14z" />
    <glyph glyph-name="k" unicode="k" horiz-adv-x="938" 
d="M930 -2q-14 2 -29.5 3.5t-27 2t-52.5 0.5h-78q-108 0 -176 -6v35q11 3 33.5 6t35.5 6.5t13 9.5q0 10 -32 48.5t-52 58.5q-82 83 -149 147l-66 60q-7 8 -29.5 26.5t-29.5 18.5q-17 0 -17 -35v-107q0 -94 1.5 -134.5t6.5 -60t17 -24.5q24 -10 96 -20l-2 -35q-52 8 -127 8
q-111 0 -239 -8v33q47 5 70.5 14.5t34 29t13.5 50.5q8 69 11 223t4.5 304.5t1.5 236.5q0 223 -19 293q-14 43 -47 43q-16 0 -35.5 -7t-29.5 -12l2 33q8 5 24.5 13.5t28 14t31 14.5t37.5 17q63 27 92 42.5t43 35.5h30q-11 -36 -19.5 -138.5t-13 -231t-7 -246t-3.5 -172.5
l-2 -137q20 7 89.5 53t122.5 95.5t53 80.5q0 41 -74 45v29h92q35 0 65.5 -0.5t67.5 -1.5q51 0 110 1t56 1l-4 -37q-63 -6 -118.5 -30.5t-158.5 -92.5l-172 -115q19 -18 72.5 -69t188.5 -185q77 -73 110 -102t68 -51.5t50.5 -28.5t37.5 -10v-35z" />
    <glyph glyph-name="l" unicode="l" horiz-adv-x="492" 
d="M477 -6q-2 0 -35 1.5t-68.5 3.5t-76.5 3.5t-84 1.5q-110 0 -186 -8v31q74 13 105 44.5t40 98.5q8 67 17.5 302t9.5 419q0 264 -27 301q-17 25 -68 25q-12 0 -19 -1t-13 -2t-13 -2v31q191 80 269 135h30q-31 -118 -39 -428l-8 -481q0 -21 -0.5 -37.5t-0.5 -36.5
q0 -104 3.5 -193.5t12.5 -115.5t60 -39.5t91 -17.5v-35z" />
    <glyph glyph-name="m" unicode="m" horiz-adv-x="1450" 
d="M1458 27l-14 -27h-379l-6 27q62 16 85 35t32.5 81t9.5 217q0 92 -15.5 156t-55.5 98.5t-111 34.5q-90 0 -209 -55q7 -50 8.5 -200t1.5 -296q0 -25 8.5 -36.5t28 -16t86.5 -14.5v-31h-125q-17 0 -126 -4t-130 -4l-6 31q67 13 94.5 34t37 77.5t9.5 184.5v97q0 252 -156 252
q-39 0 -82 -14t-82 -33.5t-67 -34.5q-2 -41 -2 -201v-102q0 -177 4 -195t29 -32.5t108 -26.5v-35q-12 0 -86 4t-88 4l-231 -4l2 31q60 14 87 35t39.5 89t12.5 207q0 135 -13.5 192t-40 71t-87.5 16v33q107 25 219 92q12 8 20 8q27 0 27 -97q0 -32 -2 -46q21 12 65.5 35.5
t86 42.5t87.5 34t82 15q54 0 103.5 -29t68.5 -96q189 100 320 100q75 0 116 -25.5t60 -70t23 -101t4 -153.5v-219q0 -77 6 -93.5t33 -19.5q8 -1 55.5 -11t54.5 -11z" />
    <glyph glyph-name="n" unicode="n" horiz-adv-x="961" 
d="M938 -4q-62 10 -174 10q-103 0 -201 -10v29q94 18 113 57q12 24 17 83.5t7 117t2 104.5q0 89 -7.5 145.5t-41.5 97t-106 40.5q-32 0 -97 -13t-153 -59l-6 -268q-2 -110 -2 -121q0 -52 6 -105q4 -34 25.5 -49t105.5 -24l-2 -31q-55 6 -168 6h-219l-2 33q54 10 79 21t33 25
t11 38q8 55 11 135t3 162q0 115 -7.5 157t-32 53.5t-91.5 18.5q0 13 -2 19q37 9 111.5 41t78.5 36q1 3 19.5 12t25.5 9q15 0 19 -29t4 -96q110 62 181 88.5t136 26.5q97 0 141.5 -42.5t55 -103.5t10.5 -161v-238q0 -141 13 -154q7 -7 51 -17t51 -13z" />
    <glyph glyph-name="o" unicode="o" horiz-adv-x="961" 
d="M883 387q0 -104 -49.5 -195t-140 -146.5t-208.5 -55.5q-89 0 -183.5 39t-159 125.5t-64.5 220.5q0 88 32.5 159.5t89.5 123.5t133 80t163 28q79 0 149.5 -29t123.5 -80t83.5 -120.5t30.5 -149.5zM748 346q0 91 -39.5 177.5t-109 141t-153.5 54.5q-68 0 -122 -37
t-84.5 -103t-30.5 -147q0 -93 37 -185t103.5 -151t146.5 -59q70 0 127 38.5t91 109.5t34 161z" />
    <glyph glyph-name="p" unicode="p" horiz-adv-x="981" 
d="M907 399q0 -121 -55 -201.5t-135.5 -124t-155 -60.5t-112.5 -17q-62 0 -148 29q0 -18 -2 -113t-2 -111v-182q0 -89 12 -110.5t58 -24.5l94 -6q0 -23 -2 -35h-37q-124 0 -155 -1.5t-204 -12.5q0 18 -2 30q51 4 68 14.5t27 34.5q9 25 14.5 91.5t7 114.5t3 129.5t1.5 117.5
l2 125q0 12 0.5 23t0.5 36q0 118 -3.5 262.5t-7.5 163.5q-5 20 -15.5 38.5t-25 30t-29.5 11.5q-11 0 -73 -26l-8 28q11 8 56.5 30t65.5 32q92 44 134 94q8 -24 22 -141l86 34q134 56 203 56q75 0 149.5 -49t121 -132t46.5 -178zM795 313q0 102 -47 188.5t-117 135.5t-133 49
q-32 0 -199 -59l-2 -506l92 -31q105 -35 146 -35q49 0 109 24.5t105.5 82.5t45.5 151z" />
    <glyph glyph-name="q" unicode="q" horiz-adv-x="961" 
d="M954 -561q-32 2 -98 2q-30 0 -170 -4q-108 -6 -147 -6l-4 34q60 6 89.5 20t42 45.5t16 91t3.5 192.5v227l-113 -35q-89 -29 -151 -29q-92 0 -171.5 47t-127 129t-47.5 177q0 122 70 221t180.5 154t230.5 55q81 0 143 -29q40 -22 58 -22q10 0 47.5 32.5t44.5 32.5
q14 0 14 -10q0 -2 -10 -31q-17 -42 -26 -99.5t-12 -169.5t-3 -314v-338q0 -109 1 -157t4 -92.5t5.5 -56t7.5 -16.5q4 -2 52.5 -8t70.5 -10v-33zM698 371q0 225 -8 237q-15 29 -84 61.5t-133 32.5q-73 0 -132.5 -41t-95.5 -117t-36 -175q0 -97 41 -172.5t110 -115.5t144 -40
q63 0 101.5 15.5t84.5 43.5q4 46 4 93z" />
    <glyph glyph-name="r" unicode="r" horiz-adv-x="641" 
d="M635 682q0 -39 -32 -64t-77 -30q0 69 -61 69q-30 0 -70 -20.5t-63 -40.5q-25 -22 -29.5 -36.5t-5.5 -72.5q0 -17 -0.5 -31t-1.5 -42.5t-2.5 -58t-1.5 -46.5q0 -196 20 -241q9 -16 20 -19.5t38 -3.5h26l119 2l-2 -43l-463 -12l2 31q50 10 69 20t33 47t18.5 111t4.5 227
q0 121 -13 161t-65 40q-31 0 -63 -8l4 32l258 150q4 -62 4 -170l121 69q21 13 51 30.5t76 47.5q12 -9 22 -14q30 -14 47 -32t17 -52z" />
    <glyph glyph-name="s" unicode="s" horiz-adv-x="662" 
d="M586 209q0 -35 -14.5 -74.5t-43.5 -56.5q-83 -53 -137 -68.5t-110 -15.5q-20 0 -57 5t-52 8t-52 14t-48 14q8 40 8 57q0 25 -8.5 68.5t-16.5 64.5l35 -2q0 -19 32.5 -62t87.5 -77.5t120 -34.5q47 0 94 20t47 87q0 115 -160 186l-75 35q-144 67 -144 168q0 46 33 96.5
t95.5 83.5t141.5 33q48 0 160 -15l33 -170h-35q-9 35 -41.5 66.5t-76 53.5t-74.5 22q-53 0 -86 -33t-33 -84q0 -41 24 -65.5t91 -57.5l61 -29q83 -39 142 -91.5t59 -145.5z" />
    <glyph glyph-name="t" unicode="t" horiz-adv-x="598" 
d="M600 100q-35 -38 -128.5 -75t-168.5 -37q-65 0 -111.5 44.5t-46.5 153.5v101l5 389q-46 6 -107 6l2 25q87 53 136 101t116 136l-10 -180q86 -8 188 -8q49 0 107 2l-2 -62q-52 -6 -107 -6q-5 0 -39 1.5t-68.5 3t-37.5 1.5q-19 0 -28.5 -3.5t-13 -13.5t-5 -38t-2.5 -59
l-5 -312v-28q0 -79 25.5 -129t103.5 -50q66 0 193 58z" />
    <glyph glyph-name="u" unicode="u" horiz-adv-x="938" 
d="M913 45q-113 -31 -229 -74q-17 56 -27 142q-245 -125 -340 -125q-60 0 -123 56t-63 216v25l8 225q0 9 0.5 16.5t0.5 19.5q0 87 -44 87q-18 0 -76 -27v41l222 123q16 8 20 8q14 0 14 -18l-12 -172q-12 -204 -12 -252q0 -113 30 -187.5t140 -74.5q35 0 72.5 11.5t87 35
t77.5 37.5q1 23 2 54t1 44l6 205q1 17 1 47q0 96 -23.5 120t-102.5 27l-2 37l266 62q-5 -90 -10.5 -171.5t-10 -174.5t-4.5 -138q0 -146 19 -204q52 2 112 24v-45z" />
    <glyph glyph-name="v" unicode="v" horiz-adv-x="811" 
d="M805 719q-33 -14 -58.5 -43.5t-41 -60t-62.5 -134.5l-180 -397q-23 -52 -51 -127h-31q-25 109 -100 313t-140 353q-16 37 -31 50.5t-69 39.5v24q57 -3 120 -3q112 0 242 9l-4 -34q-69 -7 -88.5 -15t-19.5 -26q0 -49 59 -227t96 -261q46 75 87.5 165.5t68.5 171t27 118.5
q0 46 -29.5 59t-77.5 15l4 32l70 2q20 0 41 -2q44 -4 53 -4q59 0 115 13v-31z" />
    <glyph glyph-name="w" unicode="w" horiz-adv-x="1260" 
d="M1253 741l-2 -26q-25 -5 -47 -27.5t-53 -76t-92 -175.5l-129 -256q-52 -103 -67.5 -139.5t-26.5 -79.5h-31q-7 44 -29 115l-82 276q-3 14 -53 160l-264 -551h-33q-20 157 -135 504q-32 96 -53.5 142t-43.5 63.5t-65 34.5v28h76q114 0 162 2t102 8l-6 -38
q-50 -6 -69 -15.5t-19 -34.5q0 -40 22 -122t47 -157t62 -181q151 282 186 399q-25 64 -47 81t-78 25l4 33q234 0 351 8l-2 -32q-101 -9 -101 -52q0 -13 29 -118q30 -102 60.5 -204.5t43.5 -152.5q26 48 71 136t66 132t42.5 104t21.5 91q0 30 -11.5 44.5t-25 18t-45.5 5.5
l2 28q58 -4 125 -4q59 0 137 4z" />
    <glyph glyph-name="x" unicode="x" horiz-adv-x="831" 
d="M795 -2q-46 6 -181 6q-125 0 -161 -6l-7 39q57 3 68.5 5.5t11.5 14.5q0 13 -80 166l-49 94q-81 -81 -128.5 -150t-47.5 -91q0 -17 19.5 -25t72.5 -14l4 -37q-48 5 -82.5 5.5t-64.5 0.5q-74 0 -137 -6l2 37q39 6 58.5 17.5t49.5 49.5q24 29 39.5 46.5t46.5 54.5l142 160
q-50 101 -105 193t-88 118q-16 13 -46.5 19t-78.5 12l4 36l84 -2q17 0 39 -0.5t51 -1.5q100 0 170 11l9 -39q-30 -2 -46 -8t-16 -27q0 -32 107 -217q40 40 92.5 104.5t52.5 100.5q0 20 -22 31.5t-76 17.5l12 32q31 -2 82 -6q27 -2 80 -2t119 8v-32q-25 -1 -57.5 -23.5
t-73 -64t-91 -103t-92.5 -114.5l109 -203q42 -79 73 -114.5t59 -44.5t73 -13v-35z" />
    <glyph glyph-name="y" unicode="y" horiz-adv-x="831" 
d="M838 737l-2 -32q-70 -13 -129 -142q-50 -102 -78 -160t-56.5 -115.5t-50.5 -99.5q-107 -210 -160.5 -334t-78 -206t-56.5 -217h-213v34q66 15 105.5 46t70 83.5t82.5 167.5l78 175q-44 165 -99.5 353.5t-98.5 293.5q-31 74 -58 95t-71 28v30q26 -2 46 -4t31 -2h60
q103 0 205 12l-3 -36q-38 -8 -57.5 -19t-19.5 -41q0 -50 43 -211t102 -319l66 119q76 138 118.5 242t42.5 147q0 69 -139 86l14 32q45 -5 130 -10q34 -2 77 -2q82 3 99 6z" />
    <glyph glyph-name="z" unicode="z" horiz-adv-x="831" 
d="M809 225q-10 -90 -61 -239q-17 0 -21 4q-56 10 -137 10h-365q-110 0 -184 -12l-14 28q97 94 203 216.5t193.5 236t166.5 221.5h-236q-120 0 -192.5 -25t-93.5 -90h-39q30 62 44.5 105t14.5 92q37 -27 137 -33q40 -4 134 -4h102h149q44 1 83 1.5t112 0.5q-44 -61 -70 -92
l-157 -188l-123 -144q-201 -247 -207 -260q84 -8 192 -8q97 0 159.5 11t110 51t68.5 118h31z" />
    <glyph glyph-name="braceleft" unicode="{" horiz-adv-x="1044" 
d="M801 -567q-103 13 -188.5 68t-133 138.5t-47.5 178.5q0 22 20.5 154t20.5 163q0 51 -30 96.5t-83.5 75.5t-115.5 37v37q62 7 115.5 37t83.5 75.5t30 96.5q0 25 -20 155q-21 130 -21 162q0 95 47.5 178.5t133 138.5t188.5 68v-35q-74 -16 -127 -51.5t-78 -82t-25 -95.5
q0 -12 5.5 -51.5t14 -94.5t16 -107t7.5 -68q0 -58 -19 -108.5t-55.5 -94t-90.5 -79.5t-123 -60v-5q136 -45 212 -136.5t76 -205.5q0 -44 -20 -159q-6 -39 -12 -75.5t-8.5 -53.5t-2.5 -33q0 -78 59 -141.5t171 -87.5v-35z" />
    <glyph glyph-name="bar" unicode="|" horiz-adv-x="1087" 
d="M592 -512h-96v2048h96v-2048z" />
    <glyph glyph-name="braceright" unicode="}" horiz-adv-x="1044" 
d="M801 344q-99 -12 -164.5 -71.5t-65.5 -137.5q0 -18 21 -155q20 -136 20 -162q0 -94 -47 -178t-132 -139t-189 -68v35q113 24 171 87.5t58 141.5q0 23 -21.5 162.5t-21.5 158.5q0 75 34 141.5t99 118.5t156 82v5q-91 30 -156 82t-99 118.5t-34 141.5q0 27 21 159
q22 150 22 162q0 78 -58 141.5t-171 87.5v35q104 -13 189 -68t132 -139t47 -178q0 -28 -20.5 -159t-20.5 -158q0 -78 65.5 -137.5t164.5 -71.5v-37z" />
    <glyph glyph-name="asciitilde" unicode="~" 
d="M1251 717q-1 -88 -37 -154.5t-94.5 -101.5t-128.5 -35q-43 0 -72 6.5t-98 32.5t-227 90q-98 41 -149 54.5t-87 13.5q-158 0 -198 -195h-45q7 130 58.5 195.5t103 81.5t85.5 16q45 0 124.5 -22.5t281.5 -110.5q70 -31 117 -46.5t71 -19.5t50 -4q42 0 84 17t74 61.5
t40 120.5h47z" />
    <glyph glyph-name="uni00A0" unicode="&#xa0;" horiz-adv-x="502" 
 />
    <glyph glyph-name="exclamdown" unicode="&#xa1;" horiz-adv-x="426" 
d="M348 678q0 -14 -26 -31q-44 -23 -76 -82q-11 -16 -27 -16t-25.5 16.5t-9.5 22.5q3 0 -18 26t-47 39q-20 12 -22.5 15t-2.5 14q0 15 17 25q44 20 79 77q14 23 29 23q17 0 31 -21q20 -35 33 -49t43 -30q22 -14 22 -29zM283 -309q0 -14 -21 -17q-31 -11 -106 -40t-76 -29
q-12 0 -12 14q0 10 2 19l94 571q6 34 29 203q4 4 4 22l41 -6q-9 -203 -9 -500q0 -121 4 -161q6 -40 27 -52q23 -17 23 -24z" />
    <glyph glyph-name="cent" unicode="&#xa2;" horiz-adv-x="768" 
d="M735 1010q0 -11 -28 -53t-45 -42l-45 21t-72 33l-168 -557q78 -43 149 -43q76 0 191 65l14 -28q-136 -111 -274 -111q-44 0 -111 16l-84 -284l-43 12l84 285q-101 37 -158 104t-57 219q0 124 66 227t163.5 160.5t185.5 57.5q11 0 29 -2l62 204l45 -14l-59 -201
q155 -36 155 -69zM502 981q-63 14 -92 14q-203 0 -203 -264q0 -191 131 -293z" />
    <glyph glyph-name="sterling" unicode="&#xa3;" horiz-adv-x="1004" 
d="M977 1239q-7 -12 -61 -61t-60 -58q-47 47 -110 79t-119 32q-30 0 -74.5 -28t-69.5 -68q-27 -41 -39 -141.5t-12 -188.5v-23l2 -94l166 4q182 6 270 25q2 -10 2 -14q0 -24 -22 -46q4 0 -203 -7t-219 -7q0 -16 0.5 -29t0.5 -32q0 -94 -8.5 -153t-28.5 -104t-54.5 -89.5
t-99.5 -116.5q72 -1 126.5 -2t77 -2.5t45 -3.5t72.5 -9q60 -8 129 -8q50 0 76 5.5t40.5 17t33.5 35.5l57 71l37 -18q-5 -15 -53 -79t-48 -71q-45 -75 -124 -75q-31 0 -86 10l-80 14q-82 14 -168 14q-77 0 -159 -11t-122 -38q-1 -1 -4 -2.5t-4 -1.5l-31 25q74 67 180 196
q68 79 68 291v39l-2 121q-28 0 -45.5 -0.5t-44 -1.5t-51 -2.5t-33.5 -1.5q6 0 -68 4l27 53q32 -12 59 -12q44 0 59 0.5t44 2t51 3.5q1 157 15.5 245.5t38.5 132.5t63 83q88 92 180.5 126t153.5 34q64 0 147 -48q15 -10 23 -10q11 0 34 19z" />
    <glyph glyph-name="currency" unicode="&#xa4;" horiz-adv-x="1468" 
d="M1235 266l-66 -65l-133 133q-54 -38 -85.5 -56.5t-87 -35.5t-128.5 -17q-74 0 -129.5 17t-92.5 39t-79 53l-133 -133l-68 65l136 133q-31 42 -53 79t-39 92.5t-17 129.5q0 73 17 128.5t35.5 87t56.5 85.5l-136 132l68 67l133 -131q67 48 134.5 77.5t166.5 29.5
q100 0 169.5 -31t131.5 -78l133 133l66 -67l-133 -132q44 -57 75 -129t31 -176q0 -98 -28 -164t-78 -133zM1114 700q0 101 -51 189t-139 139t-189 51t-189 -51t-139 -139t-51 -189t51 -188.5t139 -138.5t189 -51t189 51t139 138.5t51 188.5z" />
    <glyph glyph-name="yen" unicode="&#xa5;" 
d="M1300 1286l-2 -41q-70 -3 -115 -21t-100.5 -86t-130.5 -202l-90 -162l-37 -69q-7 -12 -18 -34t-23 -46.5t-16 -32.5h436v-60h-438l2 -165h436v-60h-436v-28q0 -121 3.5 -160.5t16.5 -52.5t52 -23q30 -7 61 -14.5t45 -12.5l-2 -26q8 0 -76 6l-61 4q-42 4 -66 4
q-25 0 -151 -8q-128 -8 -135 -8v30q86 5 120 28t42 72.5t10 188.5h-424v60h424v165h-424v60h422l-72 119q-26 42 -85 144t-85 132q-117 143 -159 188.5t-75 60t-98 17.5l-6 35h98q43 0 76 -2q19 0 46 -2t30 -2q19 1 41.5 2t43.5 2t35 1.5t42 0.5h22l47 -2l-4 -39
q-70 -6 -95.5 -12t-25.5 -27q0 -15 37.5 -80t83.5 -136.5t123 -187t90 -138.5q19 28 27 41q4 6 12.5 21.5t30.5 53.5l76 133q28 47 60 100t55.5 99.5t23.5 71.5q0 66 -111 66q-9 0 -13.5 -0.5t-10.5 -0.5l4 39l84 -4q10 0 66 -2t65 -2q14 0 97 2t99 2z" />
    <glyph glyph-name="brokenbar" unicode="&#xa6;" horiz-adv-x="1087" 
d="M592 666h-96v716h96v-716zM592 -358h-96v716h96v-716z" />
    <glyph glyph-name="section" unicode="&#xa7;" horiz-adv-x="897" 
d="M795 293q0 -104 -39.5 -167t-108.5 -132q70 -101 70 -201q0 -88 -60.5 -174t-147.5 -138t-159 -52q-75 0 -145 33t-70 61q0 22 27 56t59 34q26 0 55 -23q63 -42 93.5 -55.5t64.5 -13.5q53 0 93.5 28t61.5 74t21 101q0 57 -29.5 124.5t-113.5 163.5l-90 105
q-119 140 -171.5 210t-78 132t-25.5 129q0 70 33 141t123 158q-49 68 -49 145q0 84 42.5 163.5t118 130t165.5 50.5q35 0 94 -14t59 -53q0 -29 -16 -56.5t-45 -27.5q-9 0 -87.5 25.5t-93.5 25.5q-47 0 -82 -20.5t-54 -54t-19 -66.5q0 -57 46.5 -125.5t178.5 -225.5
q152 -173 215.5 -281t63.5 -210zM696 201q0 76 -29.5 144.5t-90.5 149.5t-183 228q-94 105 -108 129q-45 -45 -72 -87.5t-27 -105.5q0 -51 24 -103.5t72.5 -115t112.5 -137.5l74 -86q8 -10 37.5 -45.5t70 -85t44.5 -55.5q40 42 57.5 73t17.5 97z" />
    <glyph glyph-name="dieresis" unicode="&#xa8;" horiz-adv-x="682" 
d="M578 1014q0 -30 -23 -53t-55 -23q-31 0 -53.5 22.5t-22.5 53.5q0 32 23 55t53 23q33 0 55.5 -23.5t22.5 -54.5zM260 1014q0 -29 -21.5 -52.5t-54.5 -23.5q-32 0 -55 23t-23 53q0 31 22.5 54.5t55.5 23.5q34 0 55 -23.5t21 -54.5z" />
    <glyph glyph-name="copyright" unicode="&#xa9;" horiz-adv-x="1665" 
d="M1589 723q0 -207 -102 -380t-276.5 -274.5t-379.5 -101.5q-204 0 -378 101.5t-275.5 275t-101.5 379.5q0 207 102 381t276.5 275.5t376.5 101.5q203 0 378 -101t277.5 -275t102.5 -382zM1524 723q0 190 -94 349t-253 251t-346 92q-184 0 -344 -92.5t-253 -251.5t-93 -348
q0 -186 92.5 -345.5t250.5 -252t347 -92.5q188 0 347.5 92.5t252.5 251.5t93 346zM1247 461q-149 -217 -409 -217q-110 0 -201.5 38t-157.5 104t-101.5 152t-35.5 179q0 97 37.5 187t108 159t168.5 108t218 39q55 0 93 -8t106 -31q23 -8 39 -8q34 0 51 47h43l21 -299h-41
q-75 252 -324 252q-102 0 -180 -49.5t-120 -143t-42 -222.5q0 -54 7.5 -117t41 -140t107 -130.5t196.5 -53.5q210 0 334 172z" />
    <glyph glyph-name="ordfeminine" unicode="&#xaa;" horiz-adv-x="492" 
d="M492 918l-3 -31q-11 -5 -30 -12.5t-29 -12.5l-29 -10t-36 -10q-18 0 -34 19t-22 38q-114 -57 -176 -57q-82 0 -82 86q0 67 33 88q85 43 221 59l4 68q0 69 -30.5 97t-67.5 28q-19 0 -37 -10.5t-18 -24.5q0 -9 8 -29l-86 -35q-6 21 -6 33q0 44 81.5 80.5t118.5 36.5
q17 0 45.5 -12t54 -50t25.5 -108v-31.5t-2 -46.5q0 -7 -2 -47t-2 -45q0 -80 31 -80q30 0 70 19zM307 1034q-5 0 -9.5 0.5t-11.5 0.5q-75 0 -115 -23.5t-40 -53.5q0 -25 15.5 -47t37.5 -22q43 0 119 41q0 24 2 59t2 45z" />
    <glyph glyph-name="guillemotleft" unicode="&#xab;" horiz-adv-x="938" 
d="M872 -4h-32l-359 389l361 387h30l-200 -389zM459 -4h-33l-363 389l361 387h35l-203 -391z" />
    <glyph glyph-name="logicalnot" unicode="&#xac;" 
d="M1257 266h-92v520h-1054v95h1146v-615z" />
    <glyph glyph-name="uni00AD" unicode="&#xad;" horiz-adv-x="641" 
d="M567 330h-495v108h495v-108z" />
    <glyph glyph-name="registered" unicode="&#xae;" horiz-adv-x="1665" 
d="M1589 723q0 -207 -102 -380t-276.5 -274.5t-379.5 -101.5q-204 0 -378 101.5t-275.5 275t-101.5 379.5q0 207 102 381t276.5 275.5t376.5 101.5q203 0 378 -101t277.5 -275t102.5 -382zM1524 723q0 190 -94 349t-253 251t-346 92q-184 0 -344 -92.5t-253 -251.5t-93 -348
q0 -186 92.5 -345.5t250.5 -252t347 -92.5q188 0 347.5 92.5t252.5 251.5t93 346zM1257 266h-196l-313 432h-82v-252q0 -67 6 -94t31.5 -39t89.5 -12v-35h-392v35q53 0 77 14.5t29 42.5t5 91v559q0 89 -14.5 115.5t-83.5 27.5v39h411q147 0 232.5 -66.5t85.5 -173.5
q0 -180 -238 -237l223 -318q29 -41 52.5 -61.5t37.5 -25.5t39 -7v-35zM971 938q0 42 -14 78.5t-43.5 65.5t-68.5 45t-89 16q-41 0 -90 -17v-383q135 0 220 41t85 154z" />
    <glyph glyph-name="uni00AF" unicode="&#xaf;" horiz-adv-x="1024" 
d="M1024 1440h-1024v102h1024v-102z" />
    <glyph glyph-name="degree" unicode="&#xb0;" horiz-adv-x="874" 
d="M766 952q0 -68 -25 -127t-71.5 -104.5t-106 -70.5t-125.5 -25q-88 0 -164 43.5t-120.5 118t-44.5 165.5q0 90 44.5 165.5t120.5 119t164 43.5q66 0 127 -25.5t105.5 -69.5t70 -104t25.5 -129zM674 954q0 65 -32.5 120t-88.5 86.5t-117 31.5q-97 0 -167 -70t-70 -168
q0 -97 69.5 -168t167.5 -71t168 70t70 169z" />
    <glyph glyph-name="plusminus" unicode="&#xb1;" 
d="M1257 811h-528v-473h-94v473h-524v94h524v475h94v-475h528v-94zM1257 0h-1146v94h1146v-94z" />
    <glyph glyph-name="twosuperior" unicode="&#xb2;" horiz-adv-x="641" 
d="M606 774l-69 -115q-35 -59 -45 -71h-37q-4 16 -12 20t-35 4h-279q-51 0 -90 -4l-14 19l94 84q293 255 293 381q0 56 -39.5 87t-96.5 31q-56 0 -87.5 -17t-63.5 -46l-37 29q109 106 234 106q56 0 102 -20t72 -57t26 -85q0 -69 -46.5 -130t-162.5 -167l-143 -131l166 -2h43
q58 0 85.5 6.5t49 28.5t51.5 70z" />
    <glyph glyph-name="threesuperior" unicode="&#xb3;" horiz-adv-x="641" 
d="M551 827q0 -52 -34 -104.5t-98.5 -84.5t-144.5 -32q-46 0 -107 17.5t-112 78.5q15 18 40.5 57.5l25.5 39.5l43 -23q-17 -24 -17 -31q0 -24 58 -60t110 -36q58 0 101 38t43 95q0 56 -38 92.5t-102 69.5l-40 -24l-29 30q75 50 110 86.5t35 83.5q0 44 -33.5 72.5t-80.5 28.5
q-62 0 -138 -54l-30 31q112 82 211 82q51 0 90 -15.5t61.5 -44t22.5 -65.5q0 -44 -25 -78t-67 -71q60 -32 102.5 -73t42.5 -106z" />
    <glyph glyph-name="acute" unicode="&#xb4;" horiz-adv-x="682" 
d="M526 1245l-288 -356h-48l197 356h139z" />
    <glyph glyph-name="uni00B5" unicode="&#xb5;" horiz-adv-x="1036" 
d="M1024 201q-7 -79 -46 -155.5t-147 -76.5q-91 0 -122 57.5t-39 137.5q-86 -94 -164 -142.5t-158 -48.5q-82 0 -120 34t-58 87h-4q0 -227 14 -280q18 -64 26.5 -99.5t8.5 -60.5q0 -43 -23 -69.5t-57 -26.5q-31 0 -56.5 26.5t-25.5 67.5q0 34 13.5 84.5t19.5 66.5
q5 23 12 81t11 128t4 103l2 245v406h135v-461q0 -61 9 -107t46 -81t113 -35q59 0 111 32t141 109v543h133v-485q0 -119 17.5 -167t64.5 -48q45 0 62.5 33.5t33.5 101.5h43z" />
    <glyph glyph-name="paragraph" unicode="&#xb6;" horiz-adv-x="981" 
d="M981 1063l-6 -53q-10 -2 -88 -11q-109 -10 -156 -18t-100 -25l-23 -1097q20 -7 197 -43l-6 -52q-153 18 -260 60t-164 91t-99 108q-71 102 -119 217t-48 170q0 38 41 143t113 213t161 164q173 107 557 133zM575 938q-62 -16 -95 -49t-52 -90q-21 -70 -27 -216t-6 -335
q0 -137 14.5 -206t45 -97.5t100.5 -63.5z" />
    <glyph glyph-name="uni00B7" unicode="&#xb7;" horiz-adv-x="362" 
d="M309 614q0 -15 -16 -24q-24 -11 -40 -25.5t-40 -52.5q-13 -23 -29 -23q-15 0 -30 21q-18 33 -34 49.5t-42 30.5q-23 12 -23 28q0 9 6 15t21 16q42 23 76 82q11 17 26 17q16 0 25.5 -15.5t9.5 -23.5q-2 0 18.5 -25t47.5 -41q18 -9 21 -13t3 -16z" />
    <glyph glyph-name="cedilla" unicode="&#xb8;" horiz-adv-x="682" 
d="M520 -233q0 -93 -90 -151.5t-232 -58.5q-23 0 -34 1v41q156 4 204 46t48 85q0 98 -158 106q110 165 119 184h51l-51 -96q143 -46 143 -157z" />
    <glyph glyph-name="onesuperior" unicode="&#xb9;" horiz-adv-x="641" 
d="M506 641l-2 -35q-70 4 -78 4q-13 1 -24 1.5t-31 0.5q-120 0 -234 -6l-2 37q59 0 82 8.5t31 26.5q9 16 13.5 90t5.5 144.5t1 136.5q0 145 -10 157q-12 15 -117 15l-2 32q109 3 160 8t176 23l10 -33q-65 -14 -80.5 -22t-19.5 -31q-16 -96 -16 -328q0 -181 14 -204
q10 -18 123 -25z" />
    <glyph glyph-name="ordmasculine" unicode="&#xba;" horiz-adv-x="641" 
d="M578 1087q0 -95 -70.5 -167t-183.5 -72q-99 0 -180 59t-81 170q0 72 36.5 126.5t98.5 83t132 28.5q68 0 124.5 -31t90 -82.5t33.5 -114.5zM485 1061q0 55 -25 104t-67.5 80t-93.5 31q-64 0 -104.5 -47.5t-40.5 -116.5q0 -84 52 -156.5t124 -72.5q67 0 111 49t44 129z" />
    <glyph glyph-name="guillemotright" unicode="&#xbb;" horiz-adv-x="938" 
d="M874 385l-362 -389h-33l203 385l-203 391h35zM461 385l-363 -389h-32l202 385l-202 391h34z" />
    <glyph glyph-name="onequarter" unicode="&#xbc;" horiz-adv-x="1409" 
d="M1321 281l-45 -84q-27 2 -113 4v-36q0 -63 5 -88t18.5 -33t48.5 -13l-2 -31q-229 0 -285 -4l-2 37q71 0 94 14q10 4 14.5 26t4.5 101v29h-119q-7 0 -201 -8l-12 18q138 146 226 247.5t165 215.5q20 4 53 14q-4 -49 -4.5 -127.5t-1.5 -148.5l-2 -154q65 3 82.5 7.5
t40.5 25.5zM1065 516q-22 -26 -42.5 -49.5t-50 -57.5t-46.5 -53l-88 -96h223l2 84q2 62 2 172zM1147 1380q-31 -58 -67 -120t-96 -164t-85.5 -146t-77.5 -139l-217 -408q-18 -32 -124 -238.5t-109 -213.5q-48 -10 -86 -41l-29 12q53 77 181 298t292 522.5t324 619.5
q47 3 94 18zM496 643l-2 -35q-70 4 -78 4q-13 1 -24.5 1.5t-31.5 0.5q-76 0 -119 -1t-114 -5l-2 37q59 0 81 8t32 27q20 43 20 371q0 145 -10 157q-12 15 -119 15v32q99 3 145.5 7t86.5 9.5t75 10.5q3 0 14 2t13 2l12 -33q-67 -14 -82 -22t-18 -31q-17 -126 -17 -328
q0 -184 15 -204q10 -18 123 -25z" />
    <glyph glyph-name="onehalf" unicode="&#xbd;" horiz-adv-x="1409" 
d="M1362 160l-70 -115q-28 -49 -45 -72h-37q-3 17 -14 23q-6 2 -33 2h-278q-51 0 -90 -4l-15 18l94 84q123 109 208 208.5t85 172.5q0 58 -38.5 88.5t-96.5 30.5q-90 0 -151 -64l-37 29q44 44 98 75.5t135 31.5q86 0 143.5 -44.5t57.5 -117.5q0 -69 -46.5 -130t-162.5 -167
l-143 -131l166 -2h43q80 0 112 18t74 86zM1147 1380q-31 -58 -67 -119.5t-96 -163.5t-90 -154t-73 -132l-217 -408q-18 -32 -124 -238.5t-109 -213.5q-48 -10 -86 -41l-29 12q53 77 181 298t292 522.5t324 619.5q47 3 94 18zM498 643l-2 -35q-70 4 -78 4q-13 1 -24 1.5
t-32 0.5q-76 0 -117.5 -1t-115.5 -5l-2 37q59 0 81 8t32 27q9 16 13.5 90t5.5 144.5t1 136.5q0 145 -10 157q-12 15 -117 15l-2 32q29 2 76.5 4t81.5 5t85 9.5t93 12.5l10 -33q-65 -14 -80.5 -22t-19.5 -31q-17 -84 -17 -269v-59q0 -42 3.5 -116t11.5 -88q10 -18 123 -25z
" />
    <glyph glyph-name="threequarters" unicode="&#xbe;" horiz-adv-x="1409" 
d="M1321 281l-45 -84q-27 2 -113 4v-36q0 -63 5 -88t18.5 -33t48.5 -13l-2 -31q-229 0 -285 -4l-2 37q71 0 94 14q10 4 14.5 26t4.5 101v29h-119q-7 0 -201 -8l-12 18q138 146 226 247.5t165 215.5q20 4 53 14q-4 -49 -4.5 -127.5t-1.5 -148.5l-2 -154q65 3 82.5 7.5
t40.5 25.5zM1065 516q-22 -26 -42.5 -49.5t-50 -57.5t-46.5 -53l-88 -96h223l2 84q2 62 2 172zM1147 1380q-31 -58 -67 -120t-96 -164t-85.5 -146t-77.5 -139l-217 -408q-18 -32 -124 -238.5t-109 -213.5q-48 -10 -86 -41l-29 12q53 77 181 298t292 522.5t324 619.5
q47 3 94 18zM541 827q0 -52 -34 -104.5t-98.5 -84.5t-144.5 -32q-46 0 -107 17.5t-112 78.5q21 32 33.5 51.5t21.5 28.5q3 3 5.5 7.5t5.5 9.5l43 -23q-17 -23 -17 -31q0 -24 57 -60t111 -36q58 0 101 38t43 95q0 56 -38 92.5t-102 69.5l-41 -24l-28 30q75 50 110 86.5
t35 83.5q0 44 -34 72.5t-83 28.5q-59 0 -135 -54l-31 31q115 82 211 82q50 0 89.5 -15.5t62 -44t22.5 -65.5q0 -69 -92 -149q62 -33 104 -73.5t42 -105.5z" />
    <glyph glyph-name="questiondown" unicode="&#xbf;" horiz-adv-x="575" 
d="M465 676q0 -14 -27 -31q-41 -22 -76 -82q-11 -16 -26 -16q-16 0 -25.5 16.5t-9.5 22.5q3 0 -18 26t-47 39q-20 12 -22.5 15t-2.5 14q0 15 16 25q22 9 39.5 24.5t40.5 52.5q12 23 29 23q16 0 31 -21q20 -35 32.5 -49t42.5 -30q10 -5 16.5 -11.5t6.5 -17.5zM492 -258
q0 -7 -9.5 -49.5t-9.5 -40.5q-1 -4 -1 -24q0 -18 0.5 -32.5t0.5 -27.5l-29 -2q-14 60 -33 74.5t-73 21.5q-55 7 -117 40t-106.5 100t-44.5 171q0 65 18 128.5t54.5 114.5t90.5 83q30 17 43.5 29t20 32t10.5 62q1 24 4.5 30.5t16.5 6.5q20 0 20 -27l-10 -176
q-2 -32 -17 -40.5t-77 -20.5q-56 -11 -81 -34t-30.5 -55t-5.5 -96q0 -66 25.5 -111t88.5 -73t165 -39q42 -5 64 -12.5t22 -32.5z" />
    <glyph glyph-name="Agrave" unicode="&#xc0;" horiz-adv-x="1280" 
d="M1260 0q-61 6 -158 6q-44 0 -88.5 -1.5t-89.5 -4.5l-60 -4v33q46 8 73.5 21t27.5 44q0 25 -45 160l-74 201q-58 8 -189 8h-79q-141 0 -209 -12l-74 -185q-49 -122 -49 -145q0 -35 31.5 -58.5t128.5 -37.5v-33q-117 14 -199 14q-84 0 -182 -8v29q60 15 92 47
q22 19 61.5 98t83.5 182.5t57 134.5l160 383q30 70 56 132t45 110t37 99.5t30 97.5h33q31 -111 68 -213l210 -563q145 -388 195 -455q26 -37 107 -45v-35zM819 522q-35 102 -45 121l-72 184q-12 30 -45.5 109t-48.5 108q-51 -118 -61 -147l-113 -291q-23 -62 -31 -78
q76 -12 175 -12l92 2q83 0 149 4zM825 1391h-47l-289 356h140z" />
    <glyph glyph-name="Aacute" unicode="&#xc1;" horiz-adv-x="1280" 
d="M1260 0q-61 6 -158 6q-44 0 -88.5 -1.5t-89.5 -4.5l-60 -4v33q46 8 73.5 21t27.5 44q0 25 -45 160l-74 201q-58 8 -189 8h-79q-141 0 -209 -12l-74 -185q-49 -122 -49 -145q0 -35 31.5 -58.5t128.5 -37.5v-33q-117 14 -199 14q-84 0 -182 -8v29q60 15 92 47
q22 19 61.5 98t83.5 182.5t57 134.5l160 383q30 70 56 132t45 110t37 99.5t30 97.5h33q31 -111 68 -213l210 -563q145 -388 195 -455q26 -37 107 -45v-35zM819 522q-35 102 -45 121l-72 184q-12 30 -45.5 109t-48.5 108q-51 -118 -61 -147l-113 -291q-23 -62 -31 -78
q76 -12 175 -12l92 2q83 0 149 4zM889 1747l-288 -356h-48l197 356h139z" />
    <glyph glyph-name="Acircumflex" unicode="&#xc2;" horiz-adv-x="1280" 
d="M1260 0q-61 6 -158 6q-44 0 -88.5 -1.5t-89.5 -4.5l-60 -4v33q46 8 73.5 21t27.5 44q0 25 -45 160l-74 201q-58 8 -189 8h-79q-141 0 -209 -12l-74 -185q-49 -122 -49 -145q0 -35 31.5 -58.5t128.5 -37.5v-33q-117 14 -199 14q-84 0 -182 -8v29q60 15 92 47
q22 19 61.5 98t83.5 182.5t57 134.5l160 383q30 70 56 132t45 110t37 99.5t30 97.5h33q31 -111 68 -213l210 -563q145 -388 195 -455q26 -37 107 -45v-35zM819 522q-35 102 -45 121l-72 184q-12 30 -45.5 109t-48.5 108q-51 -118 -61 -147l-113 -291q-23 -62 -31 -78
q76 -12 175 -12l92 2q83 0 149 4zM885 1391h-47l-195 215l-199 -215h-47l199 356h90z" />
    <glyph glyph-name="Atilde" unicode="&#xc3;" horiz-adv-x="1280" 
d="M1260 0q-61 6 -158 6q-44 0 -88.5 -1.5t-89.5 -4.5l-60 -4v33q46 8 73.5 21t27.5 44q0 25 -45 160l-74 201q-58 8 -189 8h-79q-141 0 -209 -12l-74 -185q-49 -122 -49 -145q0 -35 31.5 -58.5t128.5 -37.5v-33q-117 14 -199 14q-84 0 -182 -8v29q60 15 92 47
q22 19 61.5 98t83.5 182.5t57 134.5l160 383q30 70 56 132t45 110t37 99.5t30 97.5h33q31 -111 68 -213l210 -563q145 -388 195 -455q26 -37 107 -45v-35zM819 522q-35 102 -45 121l-72 184q-12 30 -45.5 109t-48.5 108q-51 -118 -61 -147l-113 -291q-23 -62 -31 -78
q76 -12 175 -12l92 2q83 0 149 4zM920 1628q-3 -125 -59.5 -161.5t-104.5 -36.5q-38 0 -67.5 12t-102.5 55q-39 24 -55.5 31.5t-38.5 7.5q-35 0 -62 -26.5t-27 -79.5h-41q17 198 166 198q39 0 68 -13.5t82 -47.5q49 -30 66.5 -38.5t41.5 -8.5q36 0 64 28t29 80h41z" />
    <glyph glyph-name="Adieresis" unicode="&#xc4;" horiz-adv-x="1280" 
d="M1260 0q-61 6 -158 6q-44 0 -88.5 -1.5t-89.5 -4.5l-60 -4v33q46 8 73.5 21t27.5 44q0 25 -45 160l-74 201q-58 8 -189 8h-79q-141 0 -209 -12l-74 -185q-49 -122 -49 -145q0 -35 31.5 -58.5t128.5 -37.5v-33q-117 14 -199 14q-84 0 -182 -8v29q60 15 92 47
q22 19 61.5 98t83.5 182.5t57 134.5l160 383q30 70 56 132t45 110t37 99.5t30 97.5h33q31 -111 68 -213l210 -563q145 -388 195 -455q26 -37 107 -45v-35zM819 522q-35 102 -45 121l-72 184q-12 30 -45.5 109t-48.5 108q-51 -118 -61 -147l-113 -291q-23 -62 -31 -78
q76 -12 175 -12l92 2q83 0 149 4zM877 1515q0 -30 -23 -53t-55 -23q-31 0 -53.5 22.5t-22.5 53.5q0 32 23 55t53 23q33 0 55.5 -23.5t22.5 -54.5zM559 1515q0 -29 -21.5 -52.5t-54.5 -23.5q-32 0 -55 23t-23 53q0 31 22.5 54.5t55.5 23.5q34 0 55 -23.5t21 -54.5z" />
    <glyph glyph-name="Aring" unicode="&#xc5;" horiz-adv-x="1280" 
d="M1260 0q-61 6 -158 6q-44 0 -88.5 -1.5t-89.5 -4.5l-60 -4v33q46 8 73.5 21t27.5 44q0 25 -45 160l-74 201q-58 8 -189 8h-79q-141 0 -209 -12l-74 -185q-49 -122 -49 -145q0 -35 31.5 -58.5t128.5 -37.5v-33q-117 14 -199 14q-84 0 -182 -8v29q60 15 92 47
q22 19 61.5 98t83.5 182.5t57 134.5l160 383q30 70 56 132t45 110t37 99.5t30 97.5h33q31 -111 68 -213l210 -563q145 -388 195 -455q26 -37 107 -45v-35zM819 522q-35 102 -45 121l-72 184q-12 30 -45.5 109t-48.5 108q-51 -118 -61 -147l-113 -291q-23 -62 -31 -78
q76 -12 175 -12l92 2q83 0 149 4zM801 1573q0 -43 -21 -79.5t-57.5 -58.5t-81.5 -22q-66 0 -113 47t-47 113t47 112t113 46q67 0 113.5 -46.5t46.5 -111.5zM750 1573q0 44 -31.5 76.5t-77.5 32.5q-47 0 -78 -32t-31 -77q0 -43 32.5 -75.5t76.5 -32.5t76.5 31.5t32.5 76.5z
" />
    <glyph glyph-name="AE" unicode="&#xc6;" horiz-adv-x="2005" 
d="M1960 305q-11 -145 -82 -307q-120 8 -274 8h-129q-141 0 -295.5 -4.5t-307.5 -15.5l-2 34q50 9 74 19t35.5 26t19.5 41q27 90 27 251v26l-2 70q-128 10 -273 10h-32l-72 -2q-23 -1 -54 -2t-55 -2.5t-38 -3.5l-103 -170q-53 -88 -67.5 -118.5t-14.5 -49.5q0 -71 144 -88
v-37q-16 1 -84 4.5t-117 3.5h-88q-53 0 -69 -0.5t-40.5 -2t-46.5 -3.5v37q66 13 117 44t136 137.5t233 346.5l194 315q65 106 128 212t93 157q-90 26 -129 31v39q97 -12 222 -15q79 -4 225 -4l633 4q14 0 14 -12q0 -21 -17 -122t-34 -122l-27 9q10 43 10 75q0 64 -69.5 91.5
t-222.5 27.5q-57 0 -155 -5t-179 -15q-12 -67 -17.5 -151t-5.5 -198v-104q0 -57 2 -68q90 -8 209 -8l166 2q96 2 127.5 7.5t47 31t28.5 94.5h37v-370h-37q-5 94 -26 127.5t-80.5 42t-225.5 8.5h-100l-144 -2q-4 -31 -4 -197q0 -225 19 -354q114 -29 305 -29q229 0 311 60
t129 188zM1028 526q1 8 1 19q0 12 -0.5 26t-0.5 33l-6 346q0 68 -10.5 172.5t-32.5 104.5q-8 0 -68 -94l-364 -607q77 -6 176 -6h96l90 2q10 0 60 2t59 2z" />
    <glyph glyph-name="Ccedilla" unicode="&#xc7;" horiz-adv-x="1280" 
d="M1223 281q0 -13 -19 -80l-43 -148q-108 -32 -196 -49.5t-191 -17.5h-35l-34 -62q143 -47 143 -157q0 -62 -41.5 -109.5t-114.5 -74t-166 -26.5q-23 0 -34 1v41q155 4 203 46t48 85q0 98 -157 106q84 120 102 156q-155 18 -294 102t-222.5 228t-83.5 333q0 218 107.5 368
t274 221t343.5 71q139 0 268 -49q60 -19 90 -19q3 0 8.5 1.5t12 2.5t9.5 1.5t7 0.5q6 0 9 -3t4 -5l-6 -27t-9 -30q-21 -75 -37 -191q-18 3 -24 12.5t-6 30.5q-2 63 -17 86q-27 44 -135 90t-217 46q-144 0 -260.5 -71.5t-184 -209.5t-67.5 -324q0 -171 59.5 -294.5
t149 -195.5t182 -104t160.5 -32q108 0 179 35.5t111.5 85t78.5 118.5q15 29 26 29q19 0 19 -18z" />
    <glyph glyph-name="Egrave" unicode="&#xc8;" horiz-adv-x="1153" 
d="M1106 293q-16 -104 -35 -172.5t-49 -130.5q-33 3 -90 4.5t-160 1.5q-62 0 -133 2t-61 2q-65 0 -151.5 -1.5t-208.5 -5.5t-179 -7l2 34q31 7 63 15.5t43.5 18.5t16.5 24.5t10 52.5q5 40 10.5 129t9 199t3.5 167v21l-7 318q-3 148 -11.5 200t-32.5 69t-91 30l2 26h641
q108 0 326 8q-15 -210 -49 -260l-27 9q0 11 4 45t4 38q0 73 -87.5 93t-209.5 20q-147 0 -307 -20q-18 -166 -18 -279q0 -74 1 -170t1 -90q24 -2 147 -2q212 0 291 8q45 5 60.5 12t29.5 35.5t31 87.5h27v-376h-35q-3 92 -27.5 128t-94.5 46t-249 10q-115 0 -180 -10l-4 -142
q0 -21 -0.5 -38t-0.5 -38q0 -215 19 -325q18 -5 43 -11t47.5 -9.5t64.5 -7t105 -3.5q157 0 246.5 23t137 74t81.5 147h31zM762 1391h-47l-289 356h140z" />
    <glyph glyph-name="Eacute" unicode="&#xc9;" horiz-adv-x="1153" 
d="M1106 293q-16 -104 -35 -172.5t-49 -130.5q-33 3 -90 4.5t-160 1.5q-62 0 -133 2t-61 2q-65 0 -151.5 -1.5t-208.5 -5.5t-179 -7l2 34q31 7 63 15.5t43.5 18.5t16.5 24.5t10 52.5q5 40 10.5 129t9 199t3.5 167v21l-7 318q-3 148 -11.5 200t-32.5 69t-91 30l2 26h641
q108 0 326 8q-15 -210 -49 -260l-27 9q0 11 4 45t4 38q0 73 -87.5 93t-209.5 20q-147 0 -307 -20q-18 -166 -18 -279q0 -74 1 -170t1 -90q24 -2 147 -2q212 0 291 8q45 5 60.5 12t29.5 35.5t31 87.5h27v-376h-35q-3 92 -27.5 128t-94.5 46t-249 10q-115 0 -180 -10l-4 -142
q0 -21 -0.5 -38t-0.5 -38q0 -215 19 -325q18 -5 43 -11t47.5 -9.5t64.5 -7t105 -3.5q157 0 246.5 23t137 74t81.5 147h31zM762 1747l-288 -356h-48l197 356h139z" />
    <glyph glyph-name="Ecircumflex" unicode="&#xca;" horiz-adv-x="1153" 
d="M1106 293q-16 -104 -35 -172.5t-49 -130.5q-33 3 -90 4.5t-160 1.5q-62 0 -133 2t-61 2q-65 0 -151.5 -1.5t-208.5 -5.5t-179 -7l2 34q31 7 63 15.5t43.5 18.5t16.5 24.5t10 52.5q5 40 10.5 129t9 199t3.5 167v21l-7 318q-3 148 -11.5 200t-32.5 69t-91 30l2 26h641
q108 0 326 8q-15 -210 -49 -260l-27 9q0 11 4 45t4 38q0 73 -87.5 93t-209.5 20q-147 0 -307 -20q-18 -166 -18 -279q0 -74 1 -170t1 -90q24 -2 147 -2q212 0 291 8q45 5 60.5 12t29.5 35.5t31 87.5h27v-376h-35q-3 92 -27.5 128t-94.5 46t-249 10q-115 0 -180 -10l-4 -142
q0 -21 -0.5 -38t-0.5 -38q0 -215 19 -325q18 -5 43 -11t47.5 -9.5t64.5 -7t105 -3.5q157 0 246.5 23t137 74t81.5 147h31zM821 1391h-47l-195 215l-199 -215h-47l199 356h90z" />
    <glyph glyph-name="Edieresis" unicode="&#xcb;" horiz-adv-x="1153" 
d="M1106 293q-16 -104 -35 -172.5t-49 -130.5q-33 3 -90 4.5t-160 1.5q-62 0 -133 2t-61 2q-65 0 -151.5 -1.5t-208.5 -5.5t-179 -7l2 34q31 7 63 15.5t43.5 18.5t16.5 24.5t10 52.5q5 40 10.5 129t9 199t3.5 167v21l-7 318q-3 148 -11.5 200t-32.5 69t-91 30l2 26h641
q108 0 326 8q-15 -210 -49 -260l-27 9q0 11 4 45t4 38q0 73 -87.5 93t-209.5 20q-147 0 -307 -20q-18 -166 -18 -279q0 -74 1 -170t1 -90q24 -2 147 -2q212 0 291 8q45 5 60.5 12t29.5 35.5t31 87.5h27v-376h-35q-3 92 -27.5 128t-94.5 46t-249 10q-115 0 -180 -10l-4 -142
q0 -21 -0.5 -38t-0.5 -38q0 -215 19 -325q18 -5 43 -11t47.5 -9.5t64.5 -7t105 -3.5q157 0 246.5 23t137 74t81.5 147h31zM813 1515q0 -30 -23 -53t-55 -23q-31 0 -53.5 22.5t-22.5 53.5q0 32 23 55t53 23q33 0 55.5 -23.5t22.5 -54.5zM495 1515q0 -29 -21.5 -52.5
t-54.5 -23.5q-32 0 -55 23t-23 53q0 31 22.5 54.5t55.5 23.5q34 0 55 -23.5t21 -54.5z" />
    <glyph glyph-name="Igrave" unicode="&#xcc;" horiz-adv-x="641" 
d="M596 1247q-88 0 -120 -9.5t-48 -37.5q-33 -63 -33 -481v-178q0 -186 4 -348q2 -70 11 -99t49 -43.5t129 -15.5l-4 -39q-14 0 -55.5 1.5t-86 2.5t-68.5 1.5t-55 0.5q-43 0 -71 -0.5t-73.5 -1.5t-86 -2.5t-57.5 -1.5l-2 37q108 6 146 25t52 61q20 54 25.5 204.5t5.5 317.5
q0 153 -10 430q-2 77 -14.5 111.5t-56 51t-136.5 17.5v41q65 0 141 -6q102 -4 137 -4q61 0 146 6q114 4 131 4v-45zM506 1391h-47l-289 356h140z" />
    <glyph glyph-name="Iacute" unicode="&#xcd;" horiz-adv-x="641" 
d="M596 1247q-88 0 -120 -9.5t-48 -37.5q-33 -63 -33 -481v-178q0 -186 4 -348q2 -70 11 -99t49 -43.5t129 -15.5l-4 -39q-14 0 -55.5 1.5t-86 2.5t-68.5 1.5t-55 0.5q-43 0 -71 -0.5t-73.5 -1.5t-86 -2.5t-57.5 -1.5l-2 37q108 6 146 25t52 61q20 54 25.5 204.5t5.5 317.5
q0 153 -10 430q-2 77 -14.5 111.5t-56 51t-136.5 17.5v41q65 0 141 -6q102 -4 137 -4q61 0 146 6q114 4 131 4v-45zM506 1747l-288 -356h-48l197 356h139z" />
    <glyph glyph-name="Icircumflex" unicode="&#xce;" horiz-adv-x="641" 
d="M596 1247q-88 0 -120 -9.5t-48 -37.5q-33 -63 -33 -481v-178q0 -186 4 -348q2 -70 11 -99t49 -43.5t129 -15.5l-4 -39q-14 0 -55.5 1.5t-86 2.5t-68.5 1.5t-55 0.5q-43 0 -71 -0.5t-73.5 -1.5t-86 -2.5t-57.5 -1.5l-2 37q108 6 146 25t52 61q20 54 25.5 204.5t5.5 317.5
q0 153 -10 430q-2 77 -14.5 111.5t-56 51t-136.5 17.5v41q65 0 141 -6q102 -4 137 -4q61 0 146 6q114 4 131 4v-45zM565 1391h-47l-195 215l-199 -215h-47l199 356h90z" />
    <glyph glyph-name="Idieresis" unicode="&#xcf;" horiz-adv-x="641" 
d="M596 1247q-88 0 -120 -9.5t-48 -37.5q-33 -63 -33 -481v-178q0 -186 4 -348q2 -70 11 -99t49 -43.5t129 -15.5l-4 -39q-14 0 -55.5 1.5t-86 2.5t-68.5 1.5t-55 0.5q-43 0 -71 -0.5t-73.5 -1.5t-86 -2.5t-57.5 -1.5l-2 37q108 6 146 25t52 61q20 54 25.5 204.5t5.5 317.5
q0 153 -10 430q-2 77 -14.5 111.5t-56 51t-136.5 17.5v41q65 0 141 -6q102 -4 137 -4q61 0 146 6q114 4 131 4v-45zM557 1515q0 -30 -23 -53t-55 -23q-31 0 -53.5 22.5t-22.5 53.5q0 32 23 55t53 23q33 0 55.5 -23.5t22.5 -54.5zM239 1515q0 -29 -21.5 -52.5t-54.5 -23.5
q-32 0 -55 23t-23 53q0 31 22.5 54.5t55.5 23.5q34 0 55 -23.5t21 -54.5z" />
    <glyph glyph-name="Eth" unicode="&#xd0;" horiz-adv-x="1473" 
d="M1395 655q0 -181 -93 -331t-264.5 -237t-398.5 -87q-21 0 -125 2t-121 2q-39 0 -89.5 -0.5t-98 -1.5t-87 -1.5t-77.5 -0.5v37q60 0 89 12t37.5 31.5t14.5 66.5q13 129 13 471h-154v60h154q-2 246 -6 352t-21 150q-20 55 -117 55l-2 37q268 0 451 22q83 9 143 9
q146 0 283.5 -44t242 -127.5t165.5 -206t61 -270.5zM1221 655q0 189 -90 325t-230 205.5t-287 69.5q-146 0 -260 -51q-2 -13 -6.5 -95.5t-6.5 -160t-3.5 -151t-1.5 -119.5h360v-60h-360q0 -54 0.5 -112t1.5 -127.5t1.5 -143.5t0.5 -133q101 -32 155 -44.5t136 -12.5
q302 0 446 181.5t144 428.5z" />
    <glyph glyph-name="Ntilde" unicode="&#xd1;" horiz-adv-x="1579" 
d="M1542 1260q-60 -9 -86 -28t-37 -63q-18 -82 -25.5 -321t-7.5 -455q0 -85 1.5 -163t3.5 -140t6 -115l-41 2q-69 149 -416 472l-375 350q-19 14 -92.5 83t-128.5 120.5t-57 52.5l-13 -613q-1 -40 -1 -109q0 -133 17 -188t57 -73.5t159 -42.5q0 -21 -4 -37q-16 0 -96 4
q-82 4 -99 4q-16 0 -110 -4q-32 -2 -53.5 -3.5t-40 -3t-19.5 -1.5q-14 0 -20.5 5.5t-6.5 18.5q0 12 5.5 17t21.5 6q44 5 63.5 16t31.5 42t17.5 98.5t6.5 173.5l6 477q1 35 1 98q0 161 -33.5 232.5t-143.5 82.5v41q94 -8 174 -8l86 2q60 -76 141 -161t181.5 -182.5
t113.5 -110.5l590 -560q8 125 8 379v193q0 154 -7.5 232t-28.5 115t-55 49.5t-114 25.5l11 28q14 2 49 2q17 0 33 -1t43 -2t59 -3q49 -2 96 -2h127zM1069 1628q-3 -125 -59.5 -161.5t-104.5 -36.5q-38 0 -67.5 12t-102.5 55q-39 24 -55.5 31.5t-38.5 7.5q-35 0 -62 -26.5
t-27 -79.5h-41q17 198 166 198q39 0 68 -13.5t82 -47.5q49 -30 66.5 -38.5t41.5 -8.5q36 0 64 28t29 80h41z" />
    <glyph glyph-name="Ograve" unicode="&#xd2;" horiz-adv-x="1516" 
d="M1436 649q0 -179 -89 -334.5t-247.5 -247.5t-358.5 -92q-153 0 -276 60t-209.5 162t-129 218.5t-42.5 229.5q0 182 96.5 336t256.5 244t339 90q122 0 241 -48t213 -134.5t150 -211.5t56 -272zM1284 569q0 138 -44.5 262t-124 217.5t-183.5 145t-219 51.5
q-126 0 -236 -62.5t-177 -182.5t-67 -279q0 -175 82 -331t220 -249.5t292 -93.5q114 0 218.5 56.5t171.5 174.5t67 291zM944 1391h-47l-289 356h140z" />
    <glyph glyph-name="Oacute" unicode="&#xd3;" horiz-adv-x="1516" 
d="M1436 649q0 -179 -89 -334.5t-247.5 -247.5t-358.5 -92q-153 0 -276 60t-209.5 162t-129 218.5t-42.5 229.5q0 182 96.5 336t256.5 244t339 90q122 0 241 -48t213 -134.5t150 -211.5t56 -272zM1284 569q0 138 -44.5 262t-124 217.5t-183.5 145t-219 51.5
q-126 0 -236 -62.5t-177 -182.5t-67 -279q0 -175 82 -331t220 -249.5t292 -93.5q114 0 218.5 56.5t171.5 174.5t67 291zM944 1747l-288 -356h-48l197 356h139z" />
    <glyph glyph-name="Ocircumflex" unicode="&#xd4;" horiz-adv-x="1516" 
d="M1436 649q0 -179 -89 -334.5t-247.5 -247.5t-358.5 -92q-153 0 -276 60t-209.5 162t-129 218.5t-42.5 229.5q0 182 96.5 336t256.5 244t339 90q122 0 241 -48t213 -134.5t150 -211.5t56 -272zM1284 569q0 138 -44.5 262t-124 217.5t-183.5 145t-219 51.5
q-126 0 -236 -62.5t-177 -182.5t-67 -279q0 -175 82 -331t220 -249.5t292 -93.5q114 0 218.5 56.5t171.5 174.5t67 291zM1004 1391h-47l-195 215l-199 -215h-47l199 356h90z" />
    <glyph glyph-name="Otilde" unicode="&#xd5;" horiz-adv-x="1516" 
d="M1436 649q0 -179 -89 -334.5t-247.5 -247.5t-358.5 -92q-153 0 -276 60t-209.5 162t-129 218.5t-42.5 229.5q0 182 96.5 336t256.5 244t339 90q122 0 241 -48t213 -134.5t150 -211.5t56 -272zM1284 569q0 138 -44.5 262t-124 217.5t-183.5 145t-219 51.5
q-126 0 -236 -62.5t-177 -182.5t-67 -279q0 -175 82 -331t220 -249.5t292 -93.5q114 0 218.5 56.5t171.5 174.5t67 291zM1038 1628q-3 -125 -59.5 -161.5t-104.5 -36.5q-38 0 -67.5 12t-102.5 55q-39 24 -55.5 31.5t-38.5 7.5q-35 0 -62 -26.5t-27 -79.5h-41q17 198 166 198
q39 0 68 -13.5t82 -47.5q49 -30 66.5 -38.5t41.5 -8.5q36 0 64 28t29 80h41z" />
    <glyph glyph-name="Odieresis" unicode="&#xd6;" horiz-adv-x="1516" 
d="M1436 649q0 -179 -89 -334.5t-247.5 -247.5t-358.5 -92q-153 0 -276 60t-209.5 162t-129 218.5t-42.5 229.5q0 182 96.5 336t256.5 244t339 90q122 0 241 -48t213 -134.5t150 -211.5t56 -272zM1284 569q0 138 -44.5 262t-124 217.5t-183.5 145t-219 51.5
q-126 0 -236 -62.5t-177 -182.5t-67 -279q0 -175 82 -331t220 -249.5t292 -93.5q114 0 218.5 56.5t171.5 174.5t67 291zM995 1515q0 -30 -23 -53t-55 -23q-31 0 -53.5 22.5t-22.5 53.5q0 32 23 55t53 23q33 0 55.5 -23.5t22.5 -54.5zM677 1515q0 -29 -21.5 -52.5
t-54.5 -23.5q-32 0 -55 23t-23 53q0 31 22.5 54.5t55.5 23.5q34 0 55 -23.5t21 -54.5z" />
    <glyph glyph-name="multiply" unicode="&#xd7;" 
d="M1204 1024l-454 -455l450 -450l-67 -66l-449 451l-453 -451l-67 66l452 450l-452 455l65 68l455 -455l455 455z" />
    <glyph glyph-name="Oslash" unicode="&#xd8;" horiz-adv-x="1516" 
d="M1448 1282l-186 -182q174 -190 174 -451q0 -134 -51.5 -257.5t-145.5 -217.5t-222 -146.5t-274 -52.5q-85 0 -160 19t-130 47.5t-87.5 54t-66.5 56.5l-182 -181l-37 41l180 178q-102 119 -139 242t-37 217q0 175 94.5 329t253.5 245.5t344 91.5q140 0 250.5 -50
t192.5 -124l186 184zM1120 1042q-63 74 -162.5 138.5t-244.5 64.5q-97 0 -183.5 -36.5t-153.5 -105t-105 -164.5t-38 -214q0 -99 34 -213.5t102 -212.5zM1284 569q0 104 -30.5 215.5t-96.5 210.5l-751 -739q60 -68 128 -114t142.5 -70.5t150.5 -24.5q113 0 217.5 57
t172 174.5t67.5 290.5z" />
    <glyph glyph-name="Ugrave" unicode="&#xd9;" horiz-adv-x="1473" 
d="M1440 1243q-69 -3 -94.5 -15t-31 -43t-7.5 -132q-3 -189 -9 -335.5t-15 -241t-25.5 -168.5t-40.5 -120q-46 -85 -143 -132t-196 -61.5t-180 -14.5q-135 0 -249 40.5t-186.5 134.5t-72.5 242q0 36 2.5 197t2.5 240q0 277 -27 368q-7 23 -23.5 28.5t-101.5 14.5l4 37
q47 -2 143 -2q170 0 334 8l11 -33q-93 -11 -125.5 -27t-47.5 -44q-30 -56 -30 -469q0 -142 4 -250t16 -168q33 -151 161 -200.5t239 -49.5q63 0 151 18t167 65t106 128q55 160 55 629q0 140 -8.5 210.5t-27.5 102t-48 38.5t-92 7l-4 35q45 6 100 6q215 0 289 -2v-41z
M922 1391h-47l-289 356h140z" />
    <glyph glyph-name="Uacute" unicode="&#xda;" horiz-adv-x="1473" 
d="M1440 1243q-69 -3 -94.5 -15t-31 -43t-7.5 -132q-3 -189 -9 -335.5t-15 -241t-25.5 -168.5t-40.5 -120q-46 -85 -143 -132t-196 -61.5t-180 -14.5q-135 0 -249 40.5t-186.5 134.5t-72.5 242q0 36 2.5 197t2.5 240q0 277 -27 368q-7 23 -23.5 28.5t-101.5 14.5l4 37
q47 -2 143 -2q170 0 334 8l11 -33q-93 -11 -125.5 -27t-47.5 -44q-30 -56 -30 -469q0 -142 4 -250t16 -168q33 -151 161 -200.5t239 -49.5q63 0 151 18t167 65t106 128q55 160 55 629q0 140 -8.5 210.5t-27.5 102t-48 38.5t-92 7l-4 35q45 6 100 6q215 0 289 -2v-41z
M985 1747l-288 -356h-48l197 356h139z" />
    <glyph glyph-name="Ucircumflex" unicode="&#xdb;" horiz-adv-x="1473" 
d="M1440 1243q-69 -3 -94.5 -15t-31 -43t-7.5 -132q-3 -189 -9 -335.5t-15 -241t-25.5 -168.5t-40.5 -120q-46 -85 -143 -132t-196 -61.5t-180 -14.5q-135 0 -249 40.5t-186.5 134.5t-72.5 242q0 36 2.5 197t2.5 240q0 277 -27 368q-7 23 -23.5 28.5t-101.5 14.5l4 37
q47 -2 143 -2q170 0 334 8l11 -33q-93 -11 -125.5 -27t-47.5 -44q-30 -56 -30 -469q0 -142 4 -250t16 -168q33 -151 161 -200.5t239 -49.5q63 0 151 18t167 65t106 128q55 160 55 629q0 140 -8.5 210.5t-27.5 102t-48 38.5t-92 7l-4 35q45 6 100 6q215 0 289 -2v-41z
M981 1391h-47l-195 215l-199 -215h-47l199 356h90z" />
    <glyph glyph-name="Udieresis" unicode="&#xdc;" horiz-adv-x="1473" 
d="M1440 1243q-69 -3 -94.5 -15t-31 -43t-7.5 -132q-3 -189 -9 -335.5t-15 -241t-25.5 -168.5t-40.5 -120q-46 -85 -143 -132t-196 -61.5t-180 -14.5q-135 0 -249 40.5t-186.5 134.5t-72.5 242q0 36 2.5 197t2.5 240q0 277 -27 368q-7 23 -23.5 28.5t-101.5 14.5l4 37
q47 -2 143 -2q170 0 334 8l11 -33q-93 -11 -125.5 -27t-47.5 -44q-30 -56 -30 -469q0 -142 4 -250t16 -168q33 -151 161 -200.5t239 -49.5q63 0 151 18t167 65t106 128q55 160 55 629q0 140 -8.5 210.5t-27.5 102t-48 38.5t-92 7l-4 35q45 6 100 6q215 0 289 -2v-41z
M973 1515q0 -30 -23 -53t-55 -23q-31 0 -53.5 22.5t-22.5 53.5q0 32 23 55t53 23q33 0 55.5 -23.5t22.5 -54.5zM655 1515q0 -29 -21.5 -52.5t-54.5 -23.5q-32 0 -55 23t-23 53q0 31 22.5 54.5t55.5 23.5q34 0 55 -23.5t21 -54.5z" />
    <glyph glyph-name="Yacute" unicode="&#xdd;" 
d="M1339 1280l-2 -41q-66 -3 -107 -22.5t-94 -83.5t-145 -203q-91 -143 -215 -330l4 -364q2 -98 5 -128t16.5 -44.5t50.5 -22.5q34 -7 106 -27l-2 -26q-41 2 -124.5 9t-120.5 7q-25 0 -69.5 -5t-51.5 -5q-48 -2 -79 -4t-44 -2v28q101 4 139 41q22 22 27.5 78.5t5.5 331.5
q0 100 -2 123l-82 121q-50 74 -116 161t-89 113q-107 135 -153 184.5t-79 64t-100 17.5l-6 33h99q9 0 72 -2t75 -2q28 0 91 2t97 2h48l-5 -39q-70 -6 -95 -12t-25 -27q0 -22 74.5 -129t172 -235t138.5 -176q30 41 90 129l76 114q40 58 89.5 146.5t49.5 124.5q0 66 -111 66
q-9 0 -13.5 -0.5t-10.5 -0.5l4 39l84 -4q10 0 66 -2t65 -2q15 0 98 2t98 2zM932 1747l-288 -356h-48l197 356h139z" />
    <glyph glyph-name="Thorn" unicode="&#xde;" horiz-adv-x="1087" 
d="M1028 653q0 -76 -46.5 -169t-174 -164.5t-352.5 -71.5q-32 0 -59 2t-52 4q3 -118 12.5 -155.5t43.5 -49t135 -18.5v-39q-41 3 -69 5.5t-67 4.5q-34 2 -100 2q-33 0 -98 -6q-44 -2 -70.5 -4t-32.5 -2h-28v28q78 21 101 35t28 41q4 13 7 105t3 219v151q0 77 -12 473
q-3 88 -11.5 128t-37.5 59t-99 20v37q16 0 104 -2t105 -2q63 0 127 1.5t109 4.5q2 -10 2 -19q0 -8 -2 -20q-69 -7 -94.5 -17.5t-37 -45t-16.5 -117.5q87 6 119 6q140 0 249 -39t177.5 -101t102.5 -136t34 -148zM868 643q0 57 -25.5 144t-111.5 163t-248 76q-75 0 -139 -22
q-3 -48 -4.5 -136.5t-1.5 -197.5q0 -174 6 -348q77 -21 160 -21q176 0 270 97.5t94 244.5z" />
    <glyph glyph-name="germandbls" unicode="&#xdf;" horiz-adv-x="1004" 
d="M915 365q0 -102 -30 -177.5t-78 -121.5t-100 -67.5t-101 -21.5q-86 0 -86 62q0 59 49 59q12 0 69 -22.5t69 -22.5q37 0 65.5 66t28.5 143q0 75 -28 173t-103 177q-55 58 -107 78.5t-123 32.5l-2 43q161 0 238.5 61t77.5 213q0 142 -63.5 215.5t-151.5 73.5
q-103 0 -144 -71.5t-55 -186.5q-8 -68 -12 -186t-5 -236.5t-1 -251.5q0 -305 8 -331q5 -10 60.5 -23.5t60.5 -15.5v-33q-42 4 -89 4l-321 2v27q12 0 20 4q82 16 99 22.5t24 34.5q11 35 15 117.5t4 179.5q0 144 -4 203t-10.5 73t-22.5 17q-17 4 -51.5 7t-65.5 7l8 41
q38 6 117 6q19 0 25 6t6 27q0 116 16 222t54.5 192t110 139t177.5 53q100 0 173 -43.5t111 -115.5t38 -156q0 -101 -61 -191t-210 -122v-5q73 -19 137 -53t114 -114t50 -213z" />
    <glyph glyph-name="agrave" unicode="&#xe0;" horiz-adv-x="768" 
d="M768 53l-147 -59q-33 -14 -50 -14q-24 0 -46 29.5t-36 72.5q-184 -102 -284 -102q-123 0 -123 141q0 68 16.5 101t53.5 52q75 38 159 56.5t176 31.5l5 123q1 13 1 35q0 50 -9 75.5t-31 47.5q-59 59 -123 59q-31 0 -62.5 -17.5t-31.5 -49.5q0 -16 10 -43l-123 -55
q-8 32 -8 47q0 51 62.5 94.5t141 70.5t109.5 27q27 0 65.5 -23t65.5 -48q19 -19 31.5 -39.5t21.5 -62.5t9 -107q0 -19 -5 -134l-4 -75q-1 -32 -2 -51t-2 -35q0 -41 10.5 -88t45.5 -47q41 0 104 28v-41zM489 307q-14 1 -41 1q-113 0 -182 -40t-69 -96q0 -45 24.5 -85
t67.5 -40q48 0 194 72q-1 9 -1 33q0 57 7 155zM569 889h-47l-289 356h140z" />
    <glyph glyph-name="aacute" unicode="&#xe1;" horiz-adv-x="768" 
d="M768 53l-147 -59q-33 -14 -50 -14q-24 0 -46 29.5t-36 72.5q-184 -102 -284 -102q-123 0 -123 141q0 68 16.5 101t53.5 52q75 38 159 56.5t176 31.5l5 123q1 13 1 35q0 50 -9 75.5t-31 47.5q-59 59 -123 59q-31 0 -62.5 -17.5t-31.5 -49.5q0 -16 10 -43l-123 -55
q-8 32 -8 47q0 51 62.5 94.5t141 70.5t109.5 27q27 0 65.5 -23t65.5 -48q19 -19 31.5 -39.5t21.5 -62.5t9 -107q0 -19 -5 -134l-4 -75q-1 -32 -2 -51t-2 -35q0 -41 10.5 -88t45.5 -47q41 0 104 28v-41zM489 307q-14 1 -41 1q-113 0 -182 -40t-69 -96q0 -45 24.5 -85
t67.5 -40q48 0 194 72q-1 9 -1 33q0 57 7 155zM569 1245l-288 -356h-48l197 356h139z" />
    <glyph glyph-name="acircumflex" unicode="&#xe2;" horiz-adv-x="768" 
d="M768 53l-147 -59q-33 -14 -50 -14q-24 0 -46 29.5t-36 72.5q-184 -102 -284 -102q-123 0 -123 141q0 68 16.5 101t53.5 52q75 38 159 56.5t176 31.5l5 123q1 13 1 35q0 50 -9 75.5t-31 47.5q-59 59 -123 59q-31 0 -62.5 -17.5t-31.5 -49.5q0 -16 10 -43l-123 -55
q-8 32 -8 47q0 51 62.5 94.5t141 70.5t109.5 27q27 0 65.5 -23t65.5 -48q19 -19 31.5 -39.5t21.5 -62.5t9 -107q0 -19 -5 -134l-4 -75q-1 -32 -2 -51t-2 -35q0 -41 10.5 -88t45.5 -47q41 0 104 28v-41zM489 307q-14 1 -41 1q-113 0 -182 -40t-69 -96q0 -45 24.5 -85
t67.5 -40q48 0 194 72q-1 9 -1 33q0 57 7 155zM629 889h-47l-195 215l-199 -215h-47l199 356h90z" />
    <glyph glyph-name="atilde" unicode="&#xe3;" horiz-adv-x="768" 
d="M768 53l-147 -59q-33 -14 -50 -14q-24 0 -46 29.5t-36 72.5q-184 -102 -284 -102q-123 0 -123 141q0 68 16.5 101t53.5 52q75 38 159 56.5t176 31.5l5 123q1 13 1 35q0 50 -9 75.5t-31 47.5q-59 59 -123 59q-31 0 -62.5 -17.5t-31.5 -49.5q0 -16 10 -43l-123 -55
q-8 32 -8 47q0 51 62.5 94.5t141 70.5t109.5 27q27 0 65.5 -23t65.5 -48q19 -19 31.5 -39.5t21.5 -62.5t9 -107q0 -19 -5 -134l-4 -75q-1 -32 -2 -51t-2 -35q0 -41 10.5 -88t45.5 -47q41 0 104 28v-41zM489 307q-14 1 -41 1q-113 0 -182 -40t-69 -96q0 -45 24.5 -85
t67.5 -40q48 0 194 72q-1 9 -1 33q0 57 7 155zM664 1126q-3 -125 -59.5 -161.5t-104.5 -36.5q-38 0 -67.5 12t-102.5 55q-39 24 -55.5 31.5t-38.5 7.5q-35 0 -62 -26.5t-27 -79.5h-41q17 198 166 198q39 0 68 -13.5t82 -47.5q49 -30 66.5 -38.5t41.5 -8.5q36 0 64 28t29 80
h41z" />
    <glyph glyph-name="adieresis" unicode="&#xe4;" horiz-adv-x="768" 
d="M768 53l-147 -59q-33 -14 -50 -14q-24 0 -46 29.5t-36 72.5q-184 -102 -284 -102q-123 0 -123 141q0 68 16.5 101t53.5 52q75 38 159 56.5t176 31.5l5 123q1 13 1 35q0 50 -9 75.5t-31 47.5q-59 59 -123 59q-31 0 -62.5 -17.5t-31.5 -49.5q0 -16 10 -43l-123 -55
q-8 32 -8 47q0 51 62.5 94.5t141 70.5t109.5 27q27 0 65.5 -23t65.5 -48q19 -19 31.5 -39.5t21.5 -62.5t9 -107q0 -19 -5 -134l-4 -75q-1 -32 -2 -51t-2 -35q0 -41 10.5 -88t45.5 -47q41 0 104 28v-41zM489 307q-14 1 -41 1q-113 0 -182 -40t-69 -96q0 -45 24.5 -85
t67.5 -40q48 0 194 72q-1 9 -1 33q0 57 7 155zM621 1014q0 -30 -23 -53t-55 -23q-31 0 -53.5 22.5t-22.5 53.5q0 32 23 55t53 23q33 0 55.5 -23.5t22.5 -54.5zM303 1014q0 -29 -21.5 -52.5t-54.5 -23.5q-32 0 -55 23t-23 53q0 31 22.5 54.5t55.5 23.5q34 0 55 -23.5
t21 -54.5z" />
    <glyph glyph-name="aring" unicode="&#xe5;" horiz-adv-x="768" 
d="M768 53l-147 -59q-33 -14 -50 -14q-24 0 -46 29.5t-36 72.5q-184 -102 -284 -102q-123 0 -123 141q0 68 16.5 101t53.5 52q75 38 159 56.5t176 31.5l5 123q1 13 1 35q0 50 -9 75.5t-31 47.5q-59 59 -123 59q-31 0 -62.5 -17.5t-31.5 -49.5q0 -16 10 -43l-123 -55
q-8 32 -8 47q0 51 62.5 94.5t141 70.5t109.5 27q27 0 65.5 -23t65.5 -48q19 -19 31.5 -39.5t21.5 -62.5t9 -107q0 -19 -5 -134l-4 -75q-1 -32 -2 -51t-2 -35q0 -41 10.5 -88t45.5 -47q41 0 104 28v-41zM489 307q-14 1 -41 1q-113 0 -182 -40t-69 -96q0 -45 24.5 -85
t67.5 -40q48 0 194 72q-1 9 -1 33q0 57 7 155zM545 1071q0 -43 -21 -79.5t-57.5 -58.5t-81.5 -22q-66 0 -113 47t-47 113t47 112t113 46q67 0 113.5 -46.5t46.5 -111.5zM494 1071q0 44 -31.5 76.5t-77.5 32.5q-47 0 -78 -32t-31 -77q0 -43 32.5 -75.5t76.5 -32.5t76.5 31.5
t32.5 76.5z" />
    <glyph glyph-name="ae" unicode="&#xe6;" horiz-adv-x="1130" 
d="M1096 481q-94 -12 -255 -43.5t-243 -58.5q0 -171 95 -242t173 -71q50 0 127 47q51 32 58 32q18 0 18 -20q0 -15 -49 -49t-122 -61t-142 -27q-80 0 -138 41.5t-90 97.5q-133 -77 -196.5 -104t-134.5 -27q-125 0 -125 135q0 70 32 135q81 37 166 65.5t207 45.5v84
q0 128 -37 170q-20 26 -52 41.5t-60 15.5q-84 0 -84 -63q0 -21 8 -45l-121 -50q-14 44 -14 58q0 33 52.5 75.5t125 72.5t129.5 30q48 0 85.5 -32t72.5 -77q73 69 113.5 90t82.5 21q95 0 173.5 -59t107.5 -162q6 -16 11.5 -22t25.5 -13v-31zM946 520q0 23 -24.5 69t-72 82
t-112.5 36q-56 0 -97.5 -74.5t-41.5 -204.5l322 70q26 4 26 22zM510 164q-9 28 -14 50t-13 97q-20 2 -59 2q-119 0 -175 -38.5t-56 -104.5q0 -32 17.5 -68t63.5 -36q54 0 132 40z" />
    <glyph glyph-name="ccedilla" unicode="&#xe7;" horiz-adv-x="768" 
d="M735 698q0 -10 -28 -52t-45 -42q-8 0 -22.5 8t-31.5 17.5t-18 9.5q-109 45 -180 45q-203 0 -203 -264q0 -121 53 -204t127.5 -121t136.5 -38q52 0 96.5 18t96.5 48l14 -29q-133 -110 -301 -110l-33 -60q144 -47 144 -157q0 -93 -90.5 -151.5t-232.5 -58.5q-23 0 -34 1v41
q156 4 204 46t48 85q0 98 -157 106q70 101 100 154q-152 32 -225 114q-31 37 -48.5 103.5t-17.5 128.5q0 125 67 227.5t164.5 159.5t182.5 57q51 0 142 -28.5t91 -53.5z" />
    <glyph glyph-name="egrave" unicode="&#xe8;" horiz-adv-x="748" 
d="M707 520l-500 -108q5 -94 18.5 -145.5t53.5 -104.5q77 -101 186 -101q45 0 96 17t113 61l18 -24q-174 -125 -309 -125q-143 0 -223 108t-80 248q0 143 61 237.5t137 137.5t115 43q45 0 93.5 -14.5t95 -55.5t77.5 -112q9 -15 17 -20t29 -5zM551 543q0 16 -24 54.5
t-68.5 70.5t-104.5 32q-75 0 -106.5 -79t-38.5 -170l131 28q1 1 53 13l78 18q49 10 64.5 16t15.5 17zM559 889h-47l-289 356h140z" />
    <glyph glyph-name="eacute" unicode="&#xe9;" horiz-adv-x="748" 
d="M707 520l-500 -108q5 -94 18.5 -145.5t53.5 -104.5q77 -101 186 -101q45 0 96 17t113 61l18 -24q-174 -125 -309 -125q-143 0 -223 108t-80 248q0 143 61 237.5t137 137.5t115 43q45 0 93.5 -14.5t95 -55.5t77.5 -112q9 -15 17 -20t29 -5zM551 543q0 16 -24 54.5
t-68.5 70.5t-104.5 32q-75 0 -106.5 -79t-38.5 -170l131 28q1 1 53 13l78 18q49 10 64.5 16t15.5 17zM623 1245l-288 -356h-48l197 356h139z" />
    <glyph glyph-name="ecircumflex" unicode="&#xea;" horiz-adv-x="748" 
d="M707 520l-500 -108q5 -94 18.5 -145.5t53.5 -104.5q77 -101 186 -101q45 0 96 17t113 61l18 -24q-174 -125 -309 -125q-143 0 -223 108t-80 248q0 143 61 237.5t137 137.5t115 43q45 0 93.5 -14.5t95 -55.5t77.5 -112q9 -15 17 -20t29 -5zM551 543q0 16 -24 54.5
t-68.5 70.5t-104.5 32q-75 0 -106.5 -79t-38.5 -170l131 28q1 1 53 13l78 18q49 10 64.5 16t15.5 17zM618 889h-47l-195 215l-199 -215h-47l199 356h90z" />
    <glyph glyph-name="edieresis" unicode="&#xeb;" horiz-adv-x="748" 
d="M707 520l-500 -108q5 -94 18.5 -145.5t53.5 -104.5q77 -101 186 -101q45 0 96 17t113 61l18 -24q-174 -125 -309 -125q-143 0 -223 108t-80 248q0 143 61 237.5t137 137.5t115 43q45 0 93.5 -14.5t95 -55.5t77.5 -112q9 -15 17 -20t29 -5zM551 543q0 16 -24 54.5
t-68.5 70.5t-104.5 32q-75 0 -106.5 -79t-38.5 -170l131 28q1 1 53 13l78 18q49 10 64.5 16t15.5 17zM610 1014q0 -30 -23 -53t-55 -23q-31 0 -53.5 22.5t-22.5 53.5q0 32 23 55t53 23q33 0 55.5 -23.5t22.5 -54.5zM292 1014q0 -29 -21.5 -52.5t-54.5 -23.5q-32 0 -55 23
t-23 53q0 31 22.5 54.5t55.5 23.5q34 0 55 -23.5t21 -54.5z" />
    <glyph glyph-name="igrave" unicode="&#xec;" horiz-adv-x="492" 
d="M469 6l-403 -10l4 31q85 8 96 30q8 18 13 130t5 186q0 142 -4.5 182t-17.5 55q-4 5 -50 10t-46 13q0 16 18 20q119 37 233 131q7 0 19 -4q-10 -41 -17 -120t-11.5 -166t-4.5 -154q0 -212 16 -268q8 -19 21 -24.5t47 -6.5q61 -5 70 -6zM432 889h-47l-289 356h140z" />
    <glyph glyph-name="iacute" unicode="&#xed;" horiz-adv-x="492" 
d="M469 6l-403 -10l4 31q85 8 96 30q8 18 13 130t5 186q0 142 -4.5 182t-17.5 55q-4 5 -50 10t-46 13q0 16 18 20q119 37 233 131q7 0 19 -4q-10 -41 -17 -120t-11.5 -166t-4.5 -154q0 -212 16 -268q8 -19 21 -24.5t47 -6.5q61 -5 70 -6zM432 1245l-288 -356h-48l197 356
h139z" />
    <glyph glyph-name="icircumflex" unicode="&#xee;" horiz-adv-x="492" 
d="M469 6l-403 -10l4 31q85 8 96 30q8 18 13 130t5 186q0 142 -4.5 182t-17.5 55q-4 5 -50 10t-46 13q0 16 18 20q119 37 233 131q7 0 19 -4q-10 -41 -17 -120t-11.5 -166t-4.5 -154q0 -212 16 -268q8 -19 21 -24.5t47 -6.5q61 -5 70 -6zM492 889h-47l-195 215l-199 -215
h-47l199 356h90z" />
    <glyph glyph-name="idieresis" unicode="&#xef;" horiz-adv-x="492" 
d="M469 6l-403 -10l4 31q85 8 96 30q8 18 13 130t5 186q0 142 -4.5 182t-17.5 55q-4 5 -50 10t-46 13q0 16 18 20q119 37 233 131q7 0 19 -4q-10 -41 -17 -120t-11.5 -166t-4.5 -154q0 -212 16 -268q8 -19 21 -24.5t47 -6.5q61 -5 70 -6zM483 1014q0 -30 -23 -53t-55 -23
q-31 0 -53.5 22.5t-22.5 53.5q0 32 23 55t53 23q33 0 55.5 -23.5t22.5 -54.5zM165 1014q0 -29 -21.5 -52.5t-54.5 -23.5q-32 0 -55 23t-23 53q0 31 22.5 54.5t55.5 23.5q34 0 55 -23.5t21 -54.5z" />
    <glyph glyph-name="eth" unicode="&#xf0;" horiz-adv-x="1044" 
d="M926 438q0 -159 -60.5 -260t-153 -145.5t-190.5 -44.5t-191 45.5t-151.5 133t-58.5 202.5q0 132 61.5 222t150.5 132.5t173 42.5q129 0 237 -98l5 4q-20 106 -76.5 234t-149.5 235l-264 -156l-25 45l252 150q-107 117 -243 174l45 28q141 -58 264 -163l278 163l25 -45
l-262 -155q109 -103 184.5 -234t112.5 -263.5t37 -246.5zM788 344q0 88 -38 176.5t-107.5 144.5t-155.5 56q-67 0 -121 -38t-84 -103t-30 -142q0 -75 21 -146t61.5 -132t92.5 -94t114 -33q109 0 178 90.5t69 220.5z" />
    <glyph glyph-name="ntilde" unicode="&#xf1;" horiz-adv-x="961" 
d="M938 -4q-62 10 -174 10q-103 0 -201 -10v29q94 18 113 57q12 24 17 83.5t7 117t2 104.5q0 89 -7.5 145.5t-41.5 97t-106 40.5q-32 0 -97 -13t-153 -59l-6 -268q-2 -110 -2 -121q0 -52 6 -105q4 -34 25.5 -49t105.5 -24l-2 -31q-55 6 -168 6h-219l-2 33q54 10 79 21t33 25
t11 38q8 55 11 135t3 162q0 115 -7.5 157t-32 53.5t-91.5 18.5q0 13 -2 19q37 9 111.5 41t78.5 36q1 3 19.5 12t25.5 9q15 0 19 -29t4 -96q110 62 181 88.5t136 26.5q97 0 141.5 -42.5t55 -103.5t10.5 -161v-238q0 -141 13 -154q7 -7 51 -17t51 -13zM760 1126
q-3 -125 -59.5 -161.5t-104.5 -36.5q-38 0 -67.5 12t-102.5 55q-39 24 -55.5 31.5t-38.5 7.5q-35 0 -62 -26.5t-27 -79.5h-41q17 198 166 198q39 0 68 -13.5t82 -47.5q49 -30 66.5 -38.5t41.5 -8.5q36 0 64 28t29 80h41z" />
    <glyph glyph-name="ograve" unicode="&#xf2;" horiz-adv-x="961" 
d="M883 387q0 -104 -49.5 -195t-140 -146.5t-208.5 -55.5q-89 0 -183.5 39t-159 125.5t-64.5 220.5q0 88 32.5 159.5t89.5 123.5t133 80t163 28q79 0 149.5 -29t123.5 -80t83.5 -120.5t30.5 -149.5zM748 346q0 91 -39.5 177.5t-109 141t-153.5 54.5q-68 0 -122 -37
t-84.5 -103t-30.5 -147q0 -93 37 -185t103.5 -151t146.5 -59q70 0 127 38.5t91 109.5t34 161zM666 889h-47l-289 356h140z" />
    <glyph glyph-name="oacute" unicode="&#xf3;" horiz-adv-x="961" 
d="M883 387q0 -104 -49.5 -195t-140 -146.5t-208.5 -55.5q-89 0 -183.5 39t-159 125.5t-64.5 220.5q0 88 32.5 159.5t89.5 123.5t133 80t163 28q79 0 149.5 -29t123.5 -80t83.5 -120.5t30.5 -149.5zM748 346q0 91 -39.5 177.5t-109 141t-153.5 54.5q-68 0 -122 -37
t-84.5 -103t-30.5 -147q0 -93 37 -185t103.5 -151t146.5 -59q70 0 127 38.5t91 109.5t34 161zM666 1245l-288 -356h-48l197 356h139z" />
    <glyph glyph-name="ocircumflex" unicode="&#xf4;" horiz-adv-x="961" 
d="M883 387q0 -104 -49.5 -195t-140 -146.5t-208.5 -55.5q-89 0 -183.5 39t-159 125.5t-64.5 220.5q0 88 32.5 159.5t89.5 123.5t133 80t163 28q79 0 149.5 -29t123.5 -80t83.5 -120.5t30.5 -149.5zM748 346q0 91 -39.5 177.5t-109 141t-153.5 54.5q-68 0 -122 -37
t-84.5 -103t-30.5 -147q0 -93 37 -185t103.5 -151t146.5 -59q70 0 127 38.5t91 109.5t34 161zM725 889h-47l-195 215l-199 -215h-47l199 356h90z" />
    <glyph glyph-name="otilde" unicode="&#xf5;" horiz-adv-x="961" 
d="M883 387q0 -104 -49.5 -195t-140 -146.5t-208.5 -55.5q-89 0 -183.5 39t-159 125.5t-64.5 220.5q0 88 32.5 159.5t89.5 123.5t133 80t163 28q79 0 149.5 -29t123.5 -80t83.5 -120.5t30.5 -149.5zM748 346q0 91 -39.5 177.5t-109 141t-153.5 54.5q-68 0 -122 -37
t-84.5 -103t-30.5 -147q0 -93 37 -185t103.5 -151t146.5 -59q70 0 127 38.5t91 109.5t34 161zM760 1126q-3 -125 -59.5 -161.5t-104.5 -36.5q-38 0 -67.5 12t-102.5 55q-39 24 -55.5 31.5t-38.5 7.5q-35 0 -62 -26.5t-27 -79.5h-41q17 198 166 198q39 0 68 -13.5t82 -47.5
q49 -30 66.5 -38.5t41.5 -8.5q36 0 64 28t29 80h41z" />
    <glyph glyph-name="odieresis" unicode="&#xf6;" horiz-adv-x="961" 
d="M883 387q0 -104 -49.5 -195t-140 -146.5t-208.5 -55.5q-89 0 -183.5 39t-159 125.5t-64.5 220.5q0 88 32.5 159.5t89.5 123.5t133 80t163 28q79 0 149.5 -29t123.5 -80t83.5 -120.5t30.5 -149.5zM748 346q0 91 -39.5 177.5t-109 141t-153.5 54.5q-68 0 -122 -37
t-84.5 -103t-30.5 -147q0 -93 37 -185t103.5 -151t146.5 -59q70 0 127 38.5t91 109.5t34 161zM717 1014q0 -30 -23 -53t-55 -23q-31 0 -53.5 22.5t-22.5 53.5q0 32 23 55t53 23q33 0 55.5 -23.5t22.5 -54.5zM399 1014q0 -29 -21.5 -52.5t-54.5 -23.5q-32 0 -55 23t-23 53
q0 31 22.5 54.5t55.5 23.5q34 0 55 -23.5t21 -54.5z" />
    <glyph glyph-name="divide" unicode="&#xf7;" 
d="M748 1012q0 -26 -19 -47t-47 -21q-27 0 -47.5 22t-20.5 50q0 27 21 44t47 17q27 0 46.5 -19.5t19.5 -45.5zM1257 524h-1146v92h1146v-92zM748 131q0 -26 -19 -47t-47 -21q-27 0 -47.5 22t-20.5 50q0 26 21 44t47 18t46 -20t20 -46z" />
    <glyph glyph-name="oslash" unicode="&#xf8;" horiz-adv-x="961" 
d="M883 387q0 -105 -49.5 -196.5t-141 -146t-207.5 -54.5q-64 0 -135 20.5t-141 73.5l-100 -100l-29 30l98 99q-100 103 -100 260q0 117 56.5 206.5t153 138t208.5 48.5q145 0 254 -92l98 94l31 -31l-97 -94q101 -103 101 -256zM668 592q-28 44 -85.5 84.5t-136.5 40.5
q-68 0 -122 -37t-84.5 -103t-30.5 -147q0 -45 13.5 -111.5t43.5 -119.5zM748 342q0 46 -13.5 105.5t-42.5 107.5l-403 -393q89 -127 207 -127q67 0 125 38t92.5 109.5t34.5 159.5z" />
    <glyph glyph-name="ugrave" unicode="&#xf9;" horiz-adv-x="938" 
d="M913 45q-113 -31 -229 -74q-17 56 -27 142q-245 -125 -340 -125q-60 0 -123 56t-63 216v25l8 225q0 9 0.5 16.5t0.5 19.5q0 87 -44 87q-18 0 -76 -27v41l222 123q16 8 20 8q14 0 14 -18l-12 -172q-12 -204 -12 -252q0 -113 30 -187.5t140 -74.5q35 0 72.5 11.5t87 35
t77.5 37.5q1 23 2 54t1 44l6 205q1 17 1 47q0 96 -23.5 120t-102.5 27l-2 37l266 62q-5 -90 -10.5 -171.5t-10 -174.5t-4.5 -138q0 -146 19 -204q52 2 112 24v-45zM655 889h-47l-289 356h140z" />
    <glyph glyph-name="uacute" unicode="&#xfa;" horiz-adv-x="938" 
d="M913 45q-113 -31 -229 -74q-17 56 -27 142q-245 -125 -340 -125q-60 0 -123 56t-63 216v25l8 225q0 9 0.5 16.5t0.5 19.5q0 87 -44 87q-18 0 -76 -27v41l222 123q16 8 20 8q14 0 14 -18l-12 -172q-12 -204 -12 -252q0 -113 30 -187.5t140 -74.5q35 0 72.5 11.5t87 35
t77.5 37.5q1 23 2 54t1 44l6 205q1 17 1 47q0 96 -23.5 120t-102.5 27l-2 37l266 62q-5 -90 -10.5 -171.5t-10 -174.5t-4.5 -138q0 -146 19 -204q52 2 112 24v-45zM719 1245l-288 -356h-48l197 356h139z" />
    <glyph glyph-name="ucircumflex" unicode="&#xfb;" horiz-adv-x="938" 
d="M913 45q-113 -31 -229 -74q-17 56 -27 142q-245 -125 -340 -125q-60 0 -123 56t-63 216v25l8 225q0 9 0.5 16.5t0.5 19.5q0 87 -44 87q-18 0 -76 -27v41l222 123q16 8 20 8q14 0 14 -18l-12 -172q-12 -204 -12 -252q0 -113 30 -187.5t140 -74.5q35 0 72.5 11.5t87 35
t77.5 37.5q1 23 2 54t1 44l6 205q1 17 1 47q0 96 -23.5 120t-102.5 27l-2 37l266 62q-5 -90 -10.5 -171.5t-10 -174.5t-4.5 -138q0 -146 19 -204q52 2 112 24v-45zM715 889h-47l-195 215l-199 -215h-47l199 356h90z" />
    <glyph glyph-name="udieresis" unicode="&#xfc;" horiz-adv-x="938" 
d="M913 45q-113 -31 -229 -74q-17 56 -27 142q-245 -125 -340 -125q-60 0 -123 56t-63 216v25l8 225q0 9 0.5 16.5t0.5 19.5q0 87 -44 87q-18 0 -76 -27v41l222 123q16 8 20 8q14 0 14 -18l-12 -172q-12 -204 -12 -252q0 -113 30 -187.5t140 -74.5q35 0 72.5 11.5t87 35
t77.5 37.5q1 23 2 54t1 44l6 205q1 17 1 47q0 96 -23.5 120t-102.5 27l-2 37l266 62q-5 -90 -10.5 -171.5t-10 -174.5t-4.5 -138q0 -146 19 -204q52 2 112 24v-45zM707 1014q0 -30 -23 -53t-55 -23q-31 0 -53.5 22.5t-22.5 53.5q0 32 23 55t53 23q33 0 55.5 -23.5
t22.5 -54.5zM389 1014q0 -29 -21.5 -52.5t-54.5 -23.5q-32 0 -55 23t-23 53q0 31 22.5 54.5t55.5 23.5q34 0 55 -23.5t21 -54.5z" />
    <glyph glyph-name="yacute" unicode="&#xfd;" horiz-adv-x="831" 
d="M838 737l-2 -32q-70 -13 -129 -142q-50 -102 -78 -160t-56.5 -115.5t-50.5 -99.5q-107 -210 -160.5 -334t-78 -206t-56.5 -217h-213v34q66 15 105.5 46t70 83.5t82.5 167.5l78 175q-44 165 -99.5 353.5t-98.5 293.5q-31 74 -58 95t-71 28v30q26 -2 46 -4t31 -2h60
q103 0 205 12l-3 -36q-38 -8 -57.5 -19t-19.5 -41q0 -50 43 -211t102 -319l66 119q76 138 118.5 242t42.5 147q0 69 -139 86l14 32q45 -5 130 -10q34 -2 77 -2q82 3 99 6zM666 1245l-288 -356h-48l197 356h139z" />
    <glyph glyph-name="thorn" unicode="&#xfe;" horiz-adv-x="981" 
d="M909 399q0 -116 -54 -196.5t-133.5 -126t-152.5 -63t-120 -17.5q-60 0 -148 29q-4 -170 -4 -224v-182q0 -89 12 -110.5t58 -24.5l94 -6q0 -23 -2 -35h-37q-124 0 -155 -1.5t-204 -12.5q0 18 -2 30q51 4 68 14.5t27 34.5q9 25 14.5 91.5t7 114.5t3 129.5t1.5 117.5l2 125
q1 28 1.5 118.5t0.5 253.5q0 654 -24 720q-13 39 -74 39q-10 0 -45 -5l-2 31q5 0 29 12q169 74 241 123h31q-24 -85 -33 -242t-9 -323q0 -40 0.5 -72t0.5 -73l86 34q137 56 201 56q76 0 151.5 -49t122.5 -132t47 -178zM797 311q0 107 -48.5 192.5t-119 134t-129.5 48.5
q-25 0 -67.5 -13.5t-133.5 -45.5l-2 -506l92 -31q111 -35 146 -35q48 0 110 26t107 83.5t45 146.5z" />
    <glyph glyph-name="ydieresis" unicode="&#xff;" horiz-adv-x="831" 
d="M838 737l-2 -32q-70 -13 -129 -142q-50 -102 -78 -160t-56.5 -115.5t-50.5 -99.5q-107 -210 -160.5 -334t-78 -206t-56.5 -217h-213v34q66 15 105.5 46t70 83.5t82.5 167.5l78 175q-44 165 -99.5 353.5t-98.5 293.5q-31 74 -58 95t-71 28v30q26 -2 46 -4t31 -2h60
q103 0 205 12l-3 -36q-38 -8 -57.5 -19t-19.5 -41q0 -50 43 -211t102 -319l66 119q76 138 118.5 242t42.5 147q0 69 -139 86l14 32q45 -5 130 -10q34 -2 77 -2q82 3 99 6zM653 1014q0 -30 -23 -53t-55 -23q-31 0 -53.5 22.5t-22.5 53.5q0 32 23 55t53 23q33 0 55.5 -23.5
t22.5 -54.5zM335 1014q0 -29 -21.5 -52.5t-54.5 -23.5q-32 0 -55 23t-23 53q0 31 22.5 54.5t55.5 23.5q34 0 55 -23.5t21 -54.5z" />
    <glyph glyph-name="dotlessi" unicode="&#x131;" horiz-adv-x="492" 
d="M469 6l-403 -10l4 31q85 8 96 30q8 18 13 130t5 186q0 142 -4.5 182t-17.5 55q-4 5 -50 10t-46 13q0 16 18 20q119 37 233 131q7 0 19 -4q-10 -41 -17 -120t-11.5 -166t-4.5 -154q0 -212 16 -268q8 -19 21 -24.5t47 -6.5q61 -5 70 -6z" />
    <glyph glyph-name="Lslash" unicode="&#x141;" horiz-adv-x="1153" 
d="M1118 260q-19 -138 -78 -276q-59 11 -118 14q-35 2 -91 2h-747l-2 31q59 12 86 26t40 48t17 95.5t4 207.5v77l-139 -106v74l139 106l2 289v109q0 145 -8.5 201t-35.5 73.5t-91 19.5v35q126 -1 165 -2t65 -2q115 0 221 8l-2 -39q-64 -6 -100.5 -18t-51.5 -47
q-8 -23 -13.5 -135t-8 -229t-2.5 -181l372 283v-72l-374 -283q-2 -98 -2 -241q0 -120 6 -175t20 -69q17 -13 56.5 -19t168.5 -6q100 0 178 11.5t127 28t76 32.5q64 39 88 133z" />
    <glyph glyph-name="lslash" unicode="&#x142;" horiz-adv-x="492" 
d="M477 -6q-8 0 -114 6t-150 6q-91 0 -186 -10v31q38 8 61.5 15.5t46.5 30t33 62.5q20 86 27 479l-146 -110v78l146 110q4 46 4 207q0 256 -27 293q-17 25 -68 25q-12 0 -19 -1t-13 -2t-13 -2v31q191 80 269 135h30q-20 -76 -29.5 -225t-9.5 -203l-2 -186l144 110v-77
l-146 -111l-4 -217v-76q0 -261 15 -307q9 -26 60 -39.5t91 -17.5v-35z" />
    <glyph glyph-name="OE" unicode="&#x152;" horiz-adv-x="2005" 
d="M1968 297q-6 -66 -26 -147t-60 -156q-20 0 -144 2t-147 2h-501q-125 0 -275 -12q-128 -9 -143 -9q-113 0 -226 50t-202.5 140t-142 214t-52.5 262q0 177 93 330t255.5 242.5t358.5 89.5q42 0 90 -5q82 -5 112 -6t53.5 -2t99.5 -1q23 0 42.5 0.5t56.5 0.5l330 2
q260 2 342 4q6 -6 8 -10q0 -7 -4 -41t-4 -41q-3 -68 -12 -104t-27 -66l-33 13q13 41 13 73q0 52 -41 79t-107 34.5t-168 7.5q-75 0 -157.5 -3.5t-132.5 -14.5q-19 -158 -19 -437v-100q42 -4 107 -4q195 0 267 1.5t116 10.5q34 6 63 123h31v-377h-35q0 94 -24 131
t-100.5 47.5t-276.5 10.5q-64 0 -146 -6q-6 -61 -6 -209q0 -234 18 -340q89 -27 230 -27q124 0 203 8.5t132.5 33t92.5 74.5t67 130zM1053 643v188q0 191 -8 261.5t-31 93.5q-24 27 -113 45t-172 18q-215 0 -371.5 -134t-156.5 -408q0 -139 48.5 -261t131 -212.5t185 -139.5
t206.5 -49q102 0 252 43q10 55 16.5 124t9.5 170.5t3 260.5z" />
    <glyph glyph-name="oe" unicode="&#x153;" horiz-adv-x="1409" 
d="M1368 512l-2 -33q-69 -11 -166 -29t-166 -32.5t-129 -28.5q-5 0 -17 -3t-9 -3q2 -73 7 -114t22.5 -76t58.5 -68q40 -30 90 -47t86 -17q32 0 57.5 11.5t85.5 46.5q40 20 43 20q8 0 14.5 -4.5t6.5 -11.5q0 -18 -52 -52.5t-122 -60.5t-129 -26q-76 0 -130 28t-82 60.5
t-49 66.5q-38 -52 -93.5 -86.5t-111 -49.5t-104.5 -15q-96 0 -189 47t-151.5 135t-58.5 209q0 90 34 165t91 125t132.5 76.5t153.5 26.5q95 0 178 -41.5t146 -124.5q32 48 79.5 84t95 57t71.5 21q103 0 164 -58.5t112 -166.5q11 -20 15 -23.5t18 -7.5zM1214 520
q0 33 -28 78.5t-72.5 78t-91.5 32.5q-137 0 -145 -283l311 68q26 4 26 26zM743 354q0 87 -34.5 171t-102.5 139t-160 55q-62 0 -116.5 -31t-88.5 -91.5t-34 -145.5q0 -59 17 -129t53.5 -136t93 -106.5t129.5 -40.5q62 0 118.5 37t90.5 107.5t34 170.5z" />
    <glyph glyph-name="Scaron" unicode="&#x160;" horiz-adv-x="961" 
d="M918 324q0 -96 -50 -173t-150 -122t-245 -45q-141 0 -293 41q-27 6 -33 6q-12 0 -16 -8t-4 -27l-41 2q0 147 -55 334q24 7 32 8q24 -75 37.5 -108.5t35 -59t59.5 -45.5q65 -34 150 -61t183 -27q85 0 170.5 42t85.5 185q0 72 -25 124t-65.5 84t-94 57t-138.5 57
q-118 43 -194.5 88t-121.5 111t-45 161q0 151 111 251.5t317 100.5q105 0 207 -22q41 -8 51 -8q28 0 68 24q8 0 20 -4q-14 -109 -14 -157q1 -14 3 -40t4.5 -57t2.5 -35l-30 -2q-8 102 -67 160.5t-133 79.5t-142 21q-166 0 -219.5 -86.5t-53.5 -163.5q0 -81 40 -134.5
t99.5 -84t167.5 -72.5q122 -48 196 -88.5t132 -117t58 -189.5zM745 1747l-198 -356h-91l-198 356h47l196 -217l197 217h47z" />
    <glyph glyph-name="scaron" unicode="&#x161;" horiz-adv-x="662" 
d="M586 209q0 -35 -14.5 -74.5t-43.5 -56.5q-83 -53 -137 -68.5t-110 -15.5q-20 0 -57 5t-52 8t-52 14t-48 14q8 40 8 57q0 25 -8.5 68.5t-16.5 64.5l35 -2q0 -19 32.5 -62t87.5 -77.5t120 -34.5q47 0 94 20t47 87q0 115 -160 186l-75 35q-144 67 -144 168q0 46 33 96.5
t95.5 83.5t141.5 33q48 0 160 -15l33 -170h-35q-9 35 -41.5 66.5t-76 53.5t-74.5 22q-53 0 -86 -33t-33 -84q0 -41 24 -65.5t91 -57.5l61 -29q83 -39 142 -91.5t59 -145.5zM596 1245l-198 -356h-91l-198 356h47l196 -217l197 217h47z" />
    <glyph glyph-name="Ydieresis" unicode="&#x178;" 
d="M1339 1280l-2 -41q-66 -3 -107 -22.5t-94 -83.5t-145 -203q-91 -143 -215 -330l4 -364q2 -98 5 -128t16.5 -44.5t50.5 -22.5q34 -7 106 -27l-2 -26q-41 2 -124.5 9t-120.5 7q-25 0 -69.5 -5t-51.5 -5q-48 -2 -79 -4t-44 -2v28q101 4 139 41q22 22 27.5 78.5t5.5 331.5
q0 100 -2 123l-82 121q-50 74 -116 161t-89 113q-107 135 -153 184.5t-79 64t-100 17.5l-6 33h99q9 0 72 -2t75 -2q28 0 91 2t97 2h48l-5 -39q-70 -6 -95 -12t-25 -27q0 -22 74.5 -129t172 -235t138.5 -176q30 41 90 129l76 114q40 58 89.5 146.5t49.5 124.5q0 66 -111 66
q-9 0 -13.5 -0.5t-10.5 -0.5l4 39l84 -4q10 0 66 -2t65 -2q15 0 98 2t98 2zM920 1515q0 -30 -23 -53t-55 -23q-31 0 -53.5 22.5t-22.5 53.5q0 32 23 55t53 23q33 0 55.5 -23.5t22.5 -54.5zM602 1515q0 -29 -21.5 -52.5t-54.5 -23.5q-32 0 -55 23t-23 53q0 31 22.5 54.5
t55.5 23.5q34 0 55 -23.5t21 -54.5z" />
    <glyph glyph-name="Zcaron" unicode="&#x17d;" horiz-adv-x="1260" 
d="M1257 254q-17 -41 -60 -148t-58 -141h-19q0 11 -7.5 17t-31.5 10q-45 8 -241 8h-516q-158 0 -316 -12l2 24q130 134 262.5 285t238 283.5t235 307.5t233.5 329q-73 4 -170.5 6t-212.5 2q-220 0 -317.5 -12.5t-146 -50.5t-89.5 -126l-29 15q13 39 22.5 76.5t14 57
t6.5 27.5q7 31 21 97q3 12 6 18t10 6t15 -10q19 -32 71 -37q31 -5 65.5 -6.5t78 -2.5t145.5 -1q375 0 745 10v-18q-85 -113 -132 -172.5t-137 -171t-95 -117.5l-223 -283q-52 -66 -107.5 -135.5t-102.5 -130t-88 -110.5t-69 -82q95 -19 264 -19q242 0 349.5 14t201.5 52
q65 26 96 58.5t56 100.5zM895 1747l-198 -356h-91l-198 356h47l196 -217l197 217h47z" />
    <glyph glyph-name="zcaron" unicode="&#x17e;" horiz-adv-x="831" 
d="M809 225q-10 -90 -61 -239q-17 0 -21 4q-56 10 -137 10h-365q-110 0 -184 -12l-14 28q97 94 203 216.5t193.5 236t166.5 221.5h-236q-120 0 -192.5 -25t-93.5 -90h-39q30 62 44.5 105t14.5 92q37 -27 137 -33q40 -4 134 -4h102h149q44 1 83 1.5t112 0.5q-44 -61 -70 -92
l-157 -188l-123 -144q-201 -247 -207 -260q84 -8 192 -8q97 0 159.5 11t110 51t68.5 118h31zM682 1245l-198 -356h-91l-198 356h47l196 -217l197 217h47z" />
    <glyph glyph-name="florin" unicode="&#x192;" horiz-adv-x="1130" 
d="M1010 1229q0 -60 -113 -60l-45 2q-78 0 -119.5 -35.5t-61.5 -108.5t-42 -226h231l-14 -60h-225l-54 -368q-38 -274 -98.5 -429.5t-177.5 -265.5q-72 -67 -153.5 -103t-172.5 -36q-94 0 -94 49q0 56 84 56q9 0 51 -2t47 -2q106 0 175.5 48t111 133.5t63.5 187t46 263.5
l69 471l-149 2q2 22 10 50l149 4q11 70 26.5 128t52 125.5t100.5 127.5q57 53 119.5 76.5t109.5 23.5q34 0 54 -14t20 -37z" />
    <glyph glyph-name="circumflex" unicode="&#x2c6;" horiz-adv-x="682" 
d="M586 889h-47l-195 215l-199 -215h-47l199 356h90z" />
    <glyph glyph-name="caron" unicode="&#x2c7;" horiz-adv-x="682" 
d="M606 1245l-198 -356h-91l-198 356h47l196 -217l197 217h47z" />
    <glyph glyph-name="macron" unicode="&#x2c9;" horiz-adv-x="682" 
d="M623 999h-564v74h564v-74z" />
    <glyph glyph-name="breve" unicode="&#x2d8;" horiz-adv-x="682" 
d="M575 1204q-8 -144 -78.5 -210t-154.5 -66q-88 0 -157 69t-76 207h41q17 -94 71 -128t121 -34q163 0 193 162h40z" />
    <glyph glyph-name="dotaccent" unicode="&#x2d9;" horiz-adv-x="682" 
d="M418 1014q0 -29 -22.5 -52.5t-55.5 -23.5q-31 0 -53.5 22.5t-22.5 53.5q0 32 22 55t54 23q34 0 56 -23t22 -55z" />
    <glyph glyph-name="ring" unicode="&#x2da;" horiz-adv-x="682" 
d="M502 1071q0 -43 -21 -79.5t-57.5 -58.5t-81.5 -22q-66 0 -113 47t-47 113t47 112t113 46q67 0 113.5 -46.5t46.5 -111.5zM451 1071q0 44 -31.5 76.5t-77.5 32.5q-47 0 -78 -32t-31 -77q0 -43 32.5 -75.5t76.5 -32.5t76.5 31.5t32.5 76.5z" />
    <glyph glyph-name="ogonek" unicode="&#x2db;" horiz-adv-x="682" 
d="M512 -408q-43 -21 -73.5 -31t-71.5 -10q-101 0 -151 62t-50 135q0 70 40 130.5t116 133.5h51q-54 -54 -80.5 -101.5t-26.5 -111.5q0 -94 48 -142t106 -48q33 0 78 16z" />
    <glyph glyph-name="tilde" unicode="&#x2dc;" horiz-adv-x="682" 
d="M621 1126q-3 -125 -59.5 -161.5t-104.5 -36.5q-38 0 -67.5 12t-102.5 55q-39 24 -55.5 31.5t-38.5 7.5q-35 0 -62 -26.5t-27 -79.5h-41q17 198 166 198q39 0 68 -13.5t82 -47.5q49 -30 66.5 -38.5t41.5 -8.5q36 0 64 28t29 80h41z" />
    <glyph glyph-name="hungarumlaut" unicode="&#x2dd;" horiz-adv-x="682" 
d="M657 1245l-290 -358h-45l196 358h139zM412 1245l-293 -358h-45l196 358h142z" />
    <glyph glyph-name="pi" unicode="&#x3c0;" horiz-adv-x="1124" 
d="M1049 258q-7 -61 -18.5 -104.5t-31.5 -79.5q-24 -48 -66.5 -76.5t-90.5 -28.5q-35 0 -69.5 16.5t-53.5 43.5q-32 44 -46 107.5t-14 168.5q0 62 7 158q3 27 5 52.5t9 98.5q2 18 5.5 48t6.5 55l6 53h-260l-4 -61q-17 -294 -39.5 -450t-58.5 -223t-94 -67q-34 0 -59 25
t-25 59q0 27 12 52t43 67q46 59 68.5 113t37.5 143q15 85 22.5 160.5t12.5 181.5h-45q-50 0 -74 -6.5t-51 -26.5q-46 -36 -90 -110h-39q52 160 116.5 224t174.5 64h703v-145h-242q-17 -109 -26 -222.5t-9 -215.5q0 -93 33 -142t92 -49q97 0 117 117h35z" />
    <glyph glyph-name="endash" unicode="&#x2013;" horiz-adv-x="1024" 
d="M1036 330h-1048v108h1048v-108z" />
    <glyph glyph-name="emdash" unicode="&#x2014;" horiz-adv-x="2048" 
d="M2060 330h-2072v108h2072v-108z" />
    <glyph glyph-name="quoteleft" unicode="&#x2018;" horiz-adv-x="406" 
d="M346 1348q-78 -47 -106.5 -84.5t-28.5 -77.5q0 -25 15.5 -53t52.5 -43q24 -27 24 -46q0 -12 -12 -20q-2 -2 -13 -8.5t-14 -9.5q-40 -40 -55 -99q-8 2 -25 2q-24 59 -80 88q-20 13 -20 25q0 2 8 24.5t10 32.5q28 214 217 299z" />
    <glyph glyph-name="quoteright" unicode="&#x2019;" horiz-adv-x="406" 
d="M322 1262q0 -1 -7 -15q-12 -20 -16 -47q-9 -75 -37 -130t-74.5 -95t-105.5 -66l-23 31q64 40 99 75.5t35 84.5q0 24 -15 54t-51 40q-25 35 -25 47q0 14 19 25q59 32 76 110h24q24 -40 35 -53.5t43 -34.5l3.5 -2.5t6.5 -5.5q13 -4 13 -18z" />
    <glyph glyph-name="quotesinglbase" unicode="&#x201a;" horiz-adv-x="406" 
d="M324 129q0 -7 -11 -27q-5 -9 -17 -56.5t-17 -61.5q-26 -76 -68.5 -122t-130.5 -93l-19 34q58 37 96 72t38 86q0 62 -58 90q-14 6 -24.5 24t-10.5 34q0 6 31 34q43 38 60 97h26q13 -29 36 -52t42 -34q27 -14 27 -25z" />
    <glyph glyph-name="quotedblleft" unicode="&#x201c;" horiz-adv-x="854" 
d="M760 1348q-133 -83 -133 -160q0 -24 14 -53.5t51 -40.5q25 -35 25 -47q0 -15 -19 -25q-28 -15 -48 -47t-27 -64h-25q-18 35 -33.5 53.5t-44.5 34.5q0 -1 -10 9q-12 8 -12 16q0 4 6 16q12 21 16 47q16 120 75.5 187.5t141.5 103.5zM381 1348q-41 -25 -68.5 -47t-46 -51.5
t-18.5 -61.5q0 -24 14 -53.5t51 -40.5q25 -35 25 -47q0 -15 -19 -25q-28 -16 -48.5 -47.5t-26.5 -63.5h-25q-19 37 -34.5 54.5t-43.5 33.5q0 -1 -10 9q-12 4 -12 18q0 2 6 14q12 21 16 47q26 208 217 291z" />
    <glyph glyph-name="quotedblright" unicode="&#x201d;" horiz-adv-x="854" 
d="M735 1262q0 -3 -6 -15q-12 -20 -16 -47q-9 -71 -37 -127.5t-74 -96.5t-106 -67l-23 31q62 39 97.5 75t35.5 85q0 26 -14 55t-51 39q-25 35 -25 47q0 15 19 25q30 17 49.5 47.5t25.5 62.5h25q20 -37 33 -52t45 -36l3.5 -2.5t6.5 -5.5q12 -4 12 -18zM356 1262q0 -3 -6 -15
q-12 -20 -16 -47q-13 -108 -68.5 -179t-148.5 -112l-23 31q62 39 97.5 75t35.5 85q0 26 -14 55t-51 39q-25 35 -25 47q0 15 19 25q29 15 48.5 45.5t26.5 64.5h25q24 -40 35 -53.5t43 -34.5l3.5 -2.5t6.5 -5.5q12 -4 12 -18z" />
    <glyph glyph-name="quotedblbase" unicode="&#x201e;" horiz-adv-x="854" 
d="M743 131q0 -4 -5.5 -12t-6.5 -10q-7 -9 -11 -24t-7 -34q-14 -92 -61.5 -157.5t-149.5 -122.5l-21 34q131 70 131 156q0 59 -55 100q2 0 -6 5.5t-10 5.5q-25 20 -25 47q69 31 96 121h21q26 -54 69 -76q41 -20 41 -33zM360 129q0 -3 -4.5 -9.5t-7.5 -10.5q-12 -23 -18 -58
q-14 -91 -61.5 -157.5t-147.5 -122.5l-23 34q131 71 131 156q0 39 -18 62t-53 49q-21 14 -25 47q69 31 96 121h21q32 -57 69 -76q25 -12 33 -18.5t8 -16.5z" />
    <glyph glyph-name="dagger" unicode="&#x2020;" horiz-adv-x="725" 
d="M680 698h-29q-47 52 -132 81.5t-138 33.5q7 -74 31 -126.5t57 -80.5q-38 -135 -56.5 -300.5t-23 -300.5t-4.5 -267h-45q0 134 -4.5 269t-23 300t-56.5 299q72 60 88 207q-53 -4 -137 -33.5t-133 -81.5h-29v267h31q88 -88 268 -113q-6 23 -22 76q-21 68 -21 112
q0 6 11.5 74t11.5 80q0 70 -123 121v26h323v-26q-123 -53 -123 -121q0 -6 11.5 -74t11.5 -80q0 -44 -21 -112l-22 -76q180 25 268 113h31v-267z" />
    <glyph glyph-name="daggerdbl" unicode="&#x2021;" horiz-adv-x="725" 
d="M639 -221h-21q-47 40 -85 59.5t-65.5 25.5t-84.5 13q4 -18 11 -47.5t12.5 -63.5t5.5 -55q0 -13 -8.5 -58.5t-8.5 -55.5q0 -29 25 -66t57 -63v-27h-229v27q28 22 55 61.5t27 67.5q0 13 -8.5 59.5t-8.5 54.5q0 25 6 58t13.5 65t9.5 43q-57 -7 -85 -13t-67.5 -27t-83.5 -58
h-20l2 225h18q41 -40 82 -59t71 -23.5t83 -7.5q-4 55 -15.5 82.5t-41.5 69.5q51 160 51 329t-51 346q28 38 40.5 67t16.5 83q-66 0 -120.5 -15.5t-115.5 -72.5h-18l-2 225h20q43 -38 83.5 -59.5t73 -28t79.5 -10.5q-4 18 -10.5 46t-12.5 61t-6 57q0 8 8.5 54.5t8.5 59.5
q0 30 -26.5 68.5t-55.5 60.5v27h229v-27q-31 -26 -56.5 -63t-25.5 -66q0 -8 8.5 -53.5t8.5 -60.5q0 -22 -5.5 -55.5t-12.5 -63t-11 -45.5q70 6 119.5 23t115.5 75h21l-2 -225h-19q-60 57 -114.5 72.5t-120.5 15.5q4 -53 14 -77.5t43 -72.5q-26 -92 -38.5 -170.5
t-12.5 -175.5q0 -178 51 -329q-33 -48 -43 -73t-14 -79q53 3 83 7.5t71.5 24t80.5 58.5h19z" />
    <glyph glyph-name="bullet" unicode="&#x2022;" horiz-adv-x="768" 
d="M651 723q0 -71 -35.5 -133t-97 -98.5t-133.5 -36.5q-73 0 -135 36.5t-97.5 98.5t-35.5 133q0 111 78.5 189.5t189.5 78.5q74 0 134 -36t96 -97.5t36 -134.5z" />
    <glyph glyph-name="ellipsis" unicode="&#x2026;" horiz-adv-x="2048" 
d="M1878 86q0 -15 -18 -25q-22 -10 -38 -24.5t-40 -52.5q-15 -23 -29 -23q-16 0 -31 21q-20 37 -32.5 50t-42.5 29q-12 7 -15 9.5t-5.5 7.5t-2.5 12q0 14 27 31q42 23 75 82q10 16 27 16t25 -14q0 -9 20 -39t55 -51q17 -8 21 -13t4 -16zM1151 86q0 -15 -18 -25
q-22 -10 -38 -24.5t-40 -52.5q-10 -14 -14.5 -18.5t-14.5 -4.5q-16 0 -31 21q-20 37 -32.5 50t-42.5 29q-12 7 -15 9.5t-5.5 7.5t-2.5 12q0 14 27 31q42 23 75 82q10 16 27 16q15 0 25 -14q0 -9 20 -39t55 -51q17 -8 21 -13t4 -16zM424 86q0 -15 -18 -25
q-22 -10 -39.5 -25.5t-38.5 -51.5q-10 -14 -14.5 -18.5t-14.5 -4.5q-16 0 -31 21q-18 34 -32 48.5t-43 30.5q-12 7 -15 9.5t-5.5 7.5t-2.5 12q0 14 27 31q42 23 75 82q8 16 27 16q15 0 25 -14q0 -9 20 -39t55 -51q17 -8 21 -13t4 -16z" />
    <glyph glyph-name="perthousand" unicode="&#x2030;" horiz-adv-x="2324" 
d="M2234 313q0 -84 -36.5 -165.5t-107 -134t-165.5 -52.5q-80 0 -150 38.5t-111.5 112t-41.5 173.5t42.5 181t114.5 125t154 44q63 0 117 -23.5t94.5 -65t65 -103t24.5 -130.5zM2118 274q0 75 -23 149t-68 121.5t-110 47.5q-89 0 -136.5 -80.5t-47.5 -189.5q0 -124 58 -221
t146 -97q63 0 122 58.5t59 211.5zM1511 313q0 -61 -20 -123.5t-60 -115t-99 -83t-132 -30.5q-79 0 -149.5 38.5t-112 112t-41.5 173.5q0 152 92.5 251t220.5 99q81 0 150 -41.5t110 -116t41 -164.5zM1395 274q0 75 -23 149t-68 121.5t-110 47.5q-62 0 -103.5 -38.5t-62 -100
t-20.5 -131.5q0 -82 26 -155t73 -118t107 -45q63 0 122 58.5t59 211.5zM1253 1362q-151 -238 -334.5 -540.5t-324.5 -545t-186 -331.5q-52 -3 -84 -43l-35 14q91 132 228.5 351t252 409.5t174.5 298.5q41 74 72.5 130.5t73.5 131.5t43 76q3 3 22 35q34 0 52.5 2.5t45.5 11.5
zM721 1004q0 -85 -36.5 -166.5t-107.5 -134t-167 -52.5q-125 0 -213 87t-88 237q0 99 42.5 179t114.5 124.5t154 44.5q81 0 149.5 -40t110 -113.5t41.5 -165.5zM604 963q0 120 -52.5 219.5t-148.5 99.5q-90 0 -137 -81t-47 -189q0 -62 14 -118.5t42.5 -103.5t66.5 -72.5
t82 -25.5q35 0 76 21.5t72.5 82t31.5 167.5z" />
    <glyph glyph-name="guilsinglleft" unicode="&#x2039;" horiz-adv-x="512" 
d="M459 -4h-33l-360 387l358 389h35l-203 -391z" />
    <glyph glyph-name="guilsinglright" unicode="&#x203a;" horiz-adv-x="512" 
d="M446 385l-362 -389h-33l203 385l-203 391h35z" />
    <glyph glyph-name="uni2044" unicode="&#x2044;" horiz-adv-x="150" 
d="M518 1380q-26 -46 -62.5 -108t-71 -121.5t-58.5 -99.5q-9 -17 -61.5 -109t-74.5 -131l-217 -408q-108 -204 -147 -282q-63 -132 -84 -170q-44 -9 -88 -41l-27 12q33 51 118 194.5t200.5 349.5t239 436t239.5 460q46 3 94 18z" />
    <glyph glyph-name="Euro" unicode="&#x20ac;" horiz-adv-x="1004" 
d="M967 272q0 -9 -3 -24t-6.5 -31t-5.5 -24l-28 -144q-151 -65 -281 -65q-104 0 -204 60.5t-170.5 179t-92.5 280.5q-78 -4 -80 -4q-12 1 -27 2t-40 2l26 53q32 -12 60 -12q13 1 24 1.5t33 0.5q-4 56 -4 90v33q-37 -2 -72 -2q-12 1 -27 2t-40 2l26 53q32 -12 60 -12
q12 1 22.5 1.5t32.5 0.5q12 144 59 252.5t119.5 178.5t154.5 103t167 33q93 0 184 -47q36 -18 64 -18q1 0 10 1.5l18 3t10 1.5q5 0 7 -3.5t2 -5.5q0 -5 -4.5 -27.5t-6.5 -27.5q-10 -48 -24 -186q-35 7 -35 43q0 97 -75.5 156t-180.5 59q-138 0 -222 -132.5t-98 -377.5
q82 4 87 4q110 4 165 4q182 6 271 25q2 -10 2 -13q0 -24 -23 -47q4 0 -204 -7t-220 -7q-41 0 -80 -2v-39q0 -59 2 -86q82 4 87 4q110 4 165 4q182 6 271 25q2 -10 2 -13q0 -24 -23 -47q4 0 -204 -7t-220 -7q-37 0 -73 -2q18 -173 78.5 -281.5t134 -155t131.5 -46.5
q105 0 158.5 61.5t97.5 173.5q9 27 16 27q27 0 27 -17z" />
    <glyph glyph-name="trademark" unicode="&#x2122;" horiz-adv-x="2134" 
d="M1960 571h-346v33q54 0 78 10t32.5 39t8.5 92v515h-4l-308 -689h-16l-318 676h-4v-508q0 -66 5.5 -91t28.5 -34.5t83 -9.5v-33h-287v33q57 0 80.5 10.5t29 36.5t5.5 94v459q0 61 -5.5 86.5t-30 39.5t-79.5 18v32h238l295 -635l287 635h227v-32q-78 -4 -96.5 -24.5
t-18.5 -104.5v-474q0 -90 19 -115t96 -26v-33zM842 1192h-25q-11 82 -40.5 110.5t-117.5 28.5h-92v-565q0 -73 8.5 -106.5t33 -44.5t75.5 -11v-33h-356v33q73 0 94.5 29t21.5 133v565h-92q-51 0 -81.5 -9t-49.5 -38t-26 -92h-27v188h674v-188z" />
    <glyph glyph-name="uni2126" unicode="&#x2126;" horiz-adv-x="1573" 
d="M1518 0h-568l23 279q97 39 158 102t89.5 154.5t28.5 218.5q0 259 -123 405q-64 76 -152 117t-192 41q-102 0 -187 -39.5t-147 -112.5t-95.5 -175t-33.5 -222q0 -133 38 -242.5t106 -171.5q31 -28 57 -42.5t76 -32.5l22 -279h-563v279h35q3 -61 31 -82q26 -20 55.5 -27.5
t83.5 -7.5h270v69q-137 40 -236.5 118.5t-150.5 190t-51 248.5q0 130 50.5 241t142.5 191t218.5 123t278.5 43q154 0 283.5 -43.5t221 -121.5t143 -189.5t51.5 -243.5q0 -137 -54.5 -253t-154.5 -195.5t-230 -108.5l-8 -69h275q88 0 125 24.5t45 92.5h39v-279z" />
    <glyph glyph-name="partialdiff" unicode="&#x2202;" horiz-adv-x="1012" 
d="M995 920q0 -140 -28 -281t-81.5 -263.5t-127.5 -219.5q-143 -187 -355 -187q-154 0 -245.5 91.5t-91.5 244.5q0 157 76.5 296.5t203.5 222.5t270 83q106 0 189 -51q44 -27 72 -58t51 -81h4q10 147 10 186q0 117 -41.5 202t-120 130t-184.5 45q-100 0 -171.5 -37.5
t-129.5 -122.5h-45q35 74 61.5 116t63.5 79q49 51 117 79.5t137 28.5q47 0 94 -13.5t88 -39.5t70 -59q114 -130 114 -391zM911 629q-36 105 -111 165t-173 60q-81 0 -157.5 -49t-121.5 -127q-33 -57 -60 -132t-41 -146.5t-14 -135.5q0 -108 53.5 -172.5t143.5 -64.5
q72 0 152 49.5t147 136.5q70 93 112 188.5t70 227.5z" />
    <glyph glyph-name="uni2206" unicode="&#x2206;" horiz-adv-x="1253" 
d="M1227 0h-1200l628 1386zM991 82l-399 967l-440 -967h839z" />
    <glyph glyph-name="product" unicode="&#x220f;" horiz-adv-x="1686" 
d="M1640 -204h-598v37h35q87 0 125.5 37.5t38.5 118.5v1450h-797v-1450q0 -79 39.5 -117.5t122.5 -38.5h37v-37h-598v37h35q87 0 125.5 37.5t38.5 118.5v1335q0 83 -38.5 119.5t-125.5 36.5h-35v37h1595v-37h-34q-85 0 -124.5 -36.5t-39.5 -119.5v-1335q0 -81 39.5 -118.5
t124.5 -37.5h34v-37z" />
    <glyph glyph-name="summation" unicode="&#x2211;" horiz-adv-x="1460" 
d="M1419 212l-63 -416h-1313v37l670 831l-670 814v39h1278l27 -338h-39q-16 133 -76 194.5t-174 61.5h-740l562 -685l-629 -778h819q54 0 114.5 17t90.5 39q36 25 60.5 71t43.5 121z" />
    <glyph glyph-name="minus" unicode="&#x2212;" 
d="M1257 524h-1146v94h1146v-94z" />
    <glyph glyph-name="fraction" unicode="&#x2215;" horiz-adv-x="150" 
d="M518 1380q-26 -46 -62.5 -108t-71 -121.5t-58.5 -99.5q-9 -17 -61.5 -109t-74.5 -131l-217 -408q-108 -204 -147 -282q-63 -132 -84 -170q-44 -9 -88 -41l-27 12q33 51 118 194.5t200.5 349.5t239 436t239.5 460q46 3 94 18z" />
    <glyph glyph-name="periodcentered" unicode="&#x2219;" horiz-adv-x="362" 
d="M309 614q0 -15 -16 -24q-24 -11 -40 -25.5t-40 -52.5q-13 -23 -29 -23q-15 0 -30 21q-18 33 -34 49.5t-42 30.5q-23 12 -23 28q0 9 6 15t21 16q42 23 76 82q11 17 26 17q16 0 25.5 -15.5t9.5 -23.5q-2 0 18.5 -25t47.5 -41q18 -9 21 -13t3 -16z" />
    <glyph glyph-name="radical" unicode="&#x221a;" horiz-adv-x="1124" 
d="M1124 1870l-311 -1948l-496 1022l-198 -92l-35 63l301 152l403 -823h5l258 1626h73z" />
    <glyph glyph-name="infinity" unicode="&#x221e;" horiz-adv-x="1460" 
d="M1407 526q0 -186 -115 -307q-50 -53 -111.5 -83t-123.5 -30q-60 0 -112 25t-101.5 80t-98.5 139l-24 43q-44 -83 -90.5 -134.5t-103 -75t-130.5 -23.5q-100 0 -177.5 47t-122 132t-44.5 189q0 102 40.5 186.5t110.5 132.5t156 48q112 0 183 -68q54 -54 110 -159
q48 108 95 166q95 110 276 110q72 0 128 -19.5t110 -64.5q145 -124 145 -334zM1350 526q0 90 -38 169.5t-104 125t-141 45.5q-104 0 -172 -84q-29 -36 -54.5 -92t-78.5 -196l-12 -29q49 -101 93 -156.5t97.5 -81.5t120.5 -26q83 0 149 41.5t103 115.5t37 168zM625 590
q-38 80 -75 125t-84.5 67.5t-107.5 22.5q-74 0 -130 -35t-87.5 -97t-31.5 -143q0 -79 30.5 -147t83 -106.5t115.5 -38.5q60 0 115 36.5t84 92.5q39 77 77 190z" />
    <glyph glyph-name="integral" unicode="&#x222b;" horiz-adv-x="561" 
d="M561 1755q0 -29 -12.5 -53t-34 -36.5t-47.5 -12.5q-36 0 -76 35q-20 20 -39 20q-41 0 -41 -63q0 -46 11 -146q18 -204 27 -371t9 -294l-2 -121l-14 -471q-6 -190 -49 -320q-22 -67 -68 -104t-106 -37q-54 0 -86.5 33.5t-32.5 87.5q0 44 25 71t65 27q42 0 70 -33
q13 -14 24 -22t25 -8q39 0 39 61q0 37 -10 119q-20 170 -29 395q-3 104 -6 229q-2 70 -2 154l16 553q6 191 66 317q19 40 63.5 69.5t87.5 29.5q31 0 61.5 -15t48 -41t17.5 -53z" />
    <glyph glyph-name="approxequal" unicode="&#x2248;" horiz-adv-x="1124" 
d="M1073 874q-20 -152 -93.5 -236.5t-188.5 -84.5q-56 0 -123.5 26.5t-180.5 90.5q-140 78 -211 78q-72 0 -118.5 -49.5t-59.5 -137.5h-47q20 151 93 236.5t182 85.5q48 0 123 -25q56 -21 208 -102q118 -62 193 -62q41 0 68.5 13.5t54.5 46.5q39 47 49 120h51zM1073 487
q-20 -152 -93.5 -236.5t-188.5 -84.5q-56 0 -121 25t-183 90q-71 42 -121 60.5t-90 18.5q-72 0 -118.5 -49t-59.5 -137h-47q12 98 49 170.5t95 111t131 38.5q48 0 123 -25q52 -16 208 -100q118 -62 193 -62q41 0 68.5 13.5t54.5 46.5q39 47 49 120h51z" />
    <glyph glyph-name="notequal" unicode="&#x2260;" horiz-adv-x="1124" 
d="M1087 289h-602l-163 -289h-111l166 289h-340v96h393l158 279h-551v96h604l164 291h108l-163 -291h337v-96h-391l-155 -279h546v-96z" />
    <glyph glyph-name="lessequal" unicode="&#x2264;" horiz-adv-x="1124" 
d="M1065 221l-1006 498v51l1006 502v-111l-842 -416l842 -417v-107zM1065 0h-1006v96h1006v-96z" />
    <glyph glyph-name="greaterequal" unicode="&#x2265;" horiz-adv-x="1124" 
d="M1065 723l-1006 -502v111l842 416l-842 417v107l1006 -498v-51zM1065 0h-1006v96h1006v-96z" />
    <glyph glyph-name="lozenge" unicode="&#x25ca;" horiz-adv-x="1012" 
d="M967 709l-418 -709h-111l-391 709l391 714h111zM854 709l-358 616l-340 -616l340 -615z" />
    <glyph glyph-name="uniF001" unicode="&#xf001;" horiz-adv-x="981" 
d="M952 23l-2 -39q-79 20 -196 20q-12 0 -79 -2t-95 -2v37q74 0 90 24q21 32 26.5 115.5t5.5 208.5q0 129 -5.5 181.5t-25 77.5t-58 30.5t-130.5 5.5h-159q-9 -100 -9 -305q0 -149 2 -212.5t9 -92.5q3 -14 15.5 -18t47.5 -7l76 -6l2 -43q-83 10 -218 10q-46 0 -188 -2l-2 33
q71 17 94.5 30t30 40t6.5 102l3 469h-134v57l136 4v80q0 120 14.5 196.5t46 124.5t88.5 97q53 46 144.5 94.5t177.5 48.5q58 0 109.5 -20.5t82.5 -47.5t31 -38q0 -17 -43.5 -38.5t-59.5 -21.5q-9 0 -28 19q-31 33 -63.5 49t-86.5 16q-174 0 -229 -108t-55 -287v-162
q55 -6 93 -6h38q105 0 157.5 5.5t106.5 21.5l131 41q8 0 8 -10q0 -5 -3 -19.5t-3 -9.5q-24 -86 -30.5 -138.5t-6.5 -154.5v-55l4 -258q2 -66 8 -87.5t32 -31.5t93 -16z" />
    <glyph glyph-name="uniF001" unicode="&#xfb01;" horiz-adv-x="981" 
d="M952 23l-2 -39q-79 20 -196 20q-12 0 -79 -2t-95 -2v37q74 0 90 24q21 32 26.5 115.5t5.5 208.5q0 129 -5.5 181.5t-25 77.5t-58 30.5t-130.5 5.5h-159q-9 -100 -9 -305q0 -149 2 -212.5t9 -92.5q3 -14 15.5 -18t47.5 -7l76 -6l2 -43q-83 10 -218 10q-46 0 -188 -2l-2 33
q71 17 94.5 30t30 40t6.5 102l3 469h-134v57l136 4v80q0 120 14.5 196.5t46 124.5t88.5 97q53 46 144.5 94.5t177.5 48.5q58 0 109.5 -20.5t82.5 -47.5t31 -38q0 -17 -43.5 -38.5t-59.5 -21.5q-9 0 -28 19q-31 33 -63.5 49t-86.5 16q-174 0 -229 -108t-55 -287v-162
q55 -6 93 -6h38q105 0 157.5 5.5t106.5 21.5l131 41q8 0 8 -10q0 -5 -3 -19.5t-3 -9.5q-24 -86 -30.5 -138.5t-6.5 -154.5v-55l4 -258q2 -66 8 -87.5t32 -31.5t93 -16z" />
    <glyph glyph-name="uniF002" unicode="&#xf002;" horiz-adv-x="1004" 
d="M985 43l-6 -41q-92 4 -186 4q-27 0 -44.5 -0.5t-47 -1.5t-58 -2.5t-43.5 -1.5l-2 35q79 3 94 35q8 15 14.5 64.5t8 83t3 90.5t1.5 85l4 277h-397q-7 -164 -7 -224l3 -290q0 -69 22.5 -92t108.5 -23q47 0 61 -2l-2 -33l-233 -4q-13 0 -96 -6t-99 -6l6 26q68 10 86.5 36
t18.5 79q0 71 2 220t2 222v97h-121l2 49h121q3 123 15.5 208t43.5 152t90 133q77 86 157 116t140 30q74 0 127 -43q6 6 55.5 35.5t69.5 29.5q-23 -58 -33 -91.5t-16 -78.5t-10 -136t-4 -223v-65l2 -426v-61.5t0.5 -60.5t1.5 -52q5 -88 11 -108.5t34 -24.5q17 -3 100 -10z
M723 862q0 38 -1.5 108.5t-6 148t-8.5 116.5q-16 10 -37 29q-39 22 -92 22q-234 0 -244 -371l-6 -196h325q48 0 66 6q4 58 4 137z" />
    <glyph glyph-name="uniF002" unicode="&#xfb02;" horiz-adv-x="1004" 
d="M985 43l-6 -41q-92 4 -186 4q-27 0 -44.5 -0.5t-47 -1.5t-58 -2.5t-43.5 -1.5l-2 35q79 3 94 35q8 15 14.5 64.5t8 83t3 90.5t1.5 85l4 277h-397q-7 -164 -7 -224l3 -290q0 -69 22.5 -92t108.5 -23q47 0 61 -2l-2 -33l-233 -4q-13 0 -96 -6t-99 -6l6 26q68 10 86.5 36
t18.5 79q0 71 2 220t2 222v97h-121l2 49h121q3 123 15.5 208t43.5 152t90 133q77 86 157 116t140 30q74 0 127 -43q6 6 55.5 35.5t69.5 29.5q-23 -58 -33 -91.5t-16 -78.5t-10 -136t-4 -223v-65l2 -426v-61.5t0.5 -60.5t1.5 -52q5 -88 11 -108.5t34 -24.5q17 -3 100 -10z
M723 862q0 38 -1.5 108.5t-6 148t-8.5 116.5q-16 10 -37 29q-39 22 -92 22q-234 0 -244 -371l-6 -196h325q48 0 66 6q4 58 4 137z" />
    </font>
</defs>
</svg>
